999
dxflib 3.17.0.0
  0
SECTION
  2
HEADER
  9
$ACADVER
  1
AC1015
  9
$HANDSEED
  5
FFFF
  9
$DIMADEC
 70
0
  9
$DIMASZ
 40
2.5
  9
$DIMAUNIT
 70
0
  9
$DIMAZIN
 70
2
  9
$DIMDEC
 70
4
  9
$DIMDLI
 40
5.0
  9
$DIMDSEP
 70
46
  9
$DIMEXE
 40
1.25
  9
$DIMEXO
 40
0.625
  9
$DIMGAP
 40
0.625
  9
$DIMLUNIT
 70
2
  9
$DIMSCALE
 40
1.0
  9
$DIMTSZ
 40
0.0
  9
$DIMTXT
 40
2.5
  9
$DIMZIN
 70
8
  9
$DWGCODEPAGE
  3
ANSI_1252
  9
$INSUNITS
 70
4
  9
$LTSCALE
 40
1.0
  9
$MAXACTVP
 70
64
  9
$MEASUREMENT
 70
1
  9
$MIRRTEXT
 70
0
  9
$PDMODE
 70
0
  9
$PDSIZE
 40
0.0
  0
ENDSEC
  0
SECTION
  2
TABLES
  0
TABLE
  2
VPORT
  5
8
100
AcDbSymbolTable
 70
1
  0
VPORT
  5
30
100
AcDbSymbolTableRecord
100
AcDbViewportTableRecord
  2
*Active
 70
0
 10
0.0
 20
0.0
 11
1.0
 21
1.0
 12
286.3055555555554861
 22
148.5
 13
0.0
 23
0.0
 14
10.0
 24
10.0
 15
10.0
 25
10.0
 16
0.0
 26
0.0
 36
1.0
 17
0.0
 27
0.0
 37
0.0
 40
297.0
 41
1.92798353909465
 42
50.0
 43
0.0
 44
0.0
 50
0.0
 51
0.0
 71
0
 72
100
 73
1
 74
3
 75
1
 76
1
 77
0
 78
0
281
0
 65
1
110
0.0
120
0.0
130
0.0
111
1.0
121
0.0
131
0.0
112
0.0
122
1.0
132
0.0
 79
0
146
0.0
  0
ENDTAB
  0
TABLE
  2
LTYPE
  5
5
100
AcDbSymbolTable
 70
41
  0
LTYPE
  5
16
100
AcDbSymbolTableRecord
100
AcDbLinetypeTableRecord
  2
Continuous
 70
0
  3
Solid line
 72
65
 73
0
 40
0.0
  0
LTYPE
  5
15
100
AcDbSymbolTableRecord
100
AcDbLinetypeTableRecord
  2
BYLAYER
 70
0
  3

 72
65
 73
0
 40
0.0
  0
LTYPE
  5
31
100
AcDbSymbolTableRecord
100
AcDbLinetypeTableRecord
  2
ACAD_ISO13W100
 70
0
  3
ISO double-dash double-dot __ __ . . __ __ . . _
 72
65
 73
8
 40
36.0
 49
12.0
 74
0
 49
-3.0
 74
0
 49
12.0
 74
0
 49
-3.0
 74
0
 49
0.0
 74
0
 49
-3.0
 74
0
 49
0.0
 74
0
 49
-3.0
 74
0
  0
LTYPE
  5
32
100
AcDbSymbolTableRecord
100
AcDbLinetypeTableRecord
  2
CENTER
 70
0
  3
Center ____ _ ____ _ ____ _ ____ _ ____ _ ____
 72
65
 73
4
 40
50.8000000000000043
 49
31.75
 74
0
 49
-6.3499999999999996
 74
0
 49
6.3499999999999996
 74
0
 49
-6.3499999999999996
 74
0
  0
LTYPE
  5
33
100
AcDbSymbolTableRecord
100
AcDbLinetypeTableRecord
  2
ACAD_ISO02W100
 70
0
  3
ISO dash __ __ __ __ __ __ __ __ __ __ __ __ __
 72
65
 73
2
 40
15.0
 49
12.0
 74
0
 49
-3.0
 74
0
  0
LTYPE
  5
34
100
AcDbSymbolTableRecord
100
AcDbLinetypeTableRecord
  2
DASHDOT
 70
0
  3
Dash dot __ . __ . __ . __ . __ . __ . __ . __
 72
65
 73
4
 40
25.3999999999999986
 49
12.6999999999999993
 74
0
 49
-6.3499999999999996
 74
0
 49
0.0
 74
0
 49
-6.3499999999999996
 74
0
  0
LTYPE
  5
35
100
AcDbSymbolTableRecord
100
AcDbLinetypeTableRecord
  2
ACAD_ISO08W100
 70
0
  3
ISO long-dash short-dash ____ __ ____ __ ____ _
 72
65
 73
4
 40
36.0
 49
24.0
 74
0
 49
-3.0
 74
0
 49
6.0
 74
0
 49
-3.0
 74
0
  0
LTYPE
  5
36
100
AcDbSymbolTableRecord
100
AcDbLinetypeTableRecord
  2
DASHDOT2
 70
0
  3
Dash dot (.5x) _._._._._._._._._._._._._._._.
 72
65
 73
4
 40
12.6999999999999993
 49
6.3499999999999996
 74
0
 49
-3.1749999999999998
 74
0
 49
0.0
 74
0
 49
-3.1749999999999998
 74
0
  0
LTYPE
  5
37
100
AcDbSymbolTableRecord
100
AcDbLinetypeTableRecord
  2
HIDDEN2
 70
0
  3
Hidden (.5x) _ _ _ _ _ _ _ _ _ _ _ _ _ _ _ _ _ 
 72
65
 73
2
 40
4.7624999999999993
 49
3.1749999999999998
 74
0
 49
-1.5874999999999999
 74
0
  0
LTYPE
  5
38
100
AcDbSymbolTableRecord
100
AcDbLinetypeTableRecord
  2
ACAD_ISO10W100
 70
0
  3
ISO dash dot __ . __ . __ . __ . __ . __ . __ . 
 72
65
 73
4
 40
18.0
 49
12.0
 74
0
 49
-3.0
 74
0
 49
0.0
 74
0
 49
-3.0
 74
0
  0
LTYPE
  5
39
100
AcDbSymbolTableRecord
100
AcDbLinetypeTableRecord
  2
ACAD_ISO05W100
 70
0
  3
ISO long-dash double-dot ____ .. ____ .. ____ . 
 72
65
 73
6
 40
33.0
 49
24.0
 74
0
 49
-3.0
 74
0
 49
0.0
 74
0
 49
-3.0
 74
0
 49
0.0
 74
0
 49
-3.0
 74
0
  0
LTYPE
  5
3A
100
AcDbSymbolTableRecord
100
AcDbLinetypeTableRecord
  2
DASHEDX2
 70
0
  3
Dashed (2x) ____  ____  ____  ____  ____  ___
 72
65
 73
2
 40
38.0999999999999943
 49
25.3999999999999986
 74
0
 49
-12.6999999999999993
 74
0
  0
LTYPE
  5
3B
100
AcDbSymbolTableRecord
100
AcDbLinetypeTableRecord
  2
ACAD_ISO03W100
 70
0
  3
ISO dash space __    __    __    __    __    __
 72
65
 73
2
 40
30.0
 49
12.0
 74
0
 49
-18.0
 74
0
  0
LTYPE
  5
3C
100
AcDbSymbolTableRecord
100
AcDbLinetypeTableRecord
  2
CENTER2
 70
0
  3
Center (.5x) ___ _ ___ _ ___ _ ___ _ ___ _ ___
 72
65
 73
4
 40
28.5750000000000028
 49
19.0500000000000007
 74
0
 49
-3.1749999999999998
 74
0
 49
3.1749999999999998
 74
0
 49
-3.1749999999999998
 74
0
  0
LTYPE
  5
3D
100
AcDbSymbolTableRecord
100
AcDbLinetypeTableRecord
  2
DIVIDEX2
 70
0
  3
Divide (2x) ________  .  .  ________  .  .  _
 72
65
 73
6
 40
63.5
 49
25.3999999999999986
 74
0
 49
-12.6999999999999993
 74
0
 49
0.0
 74
0
 49
-12.6999999999999993
 74
0
 49
0.0
 74
0
 49
-12.6999999999999993
 74
0
  0
LTYPE
  5
3E
100
AcDbSymbolTableRecord
100
AcDbLinetypeTableRecord
  2
DIVIDE
 70
0
  3
Divide ____ . . ____ . . ____ . . ____ . . ____
 72
65
 73
6
 40
31.75
 49
12.6999999999999993
 74
0
 49
-6.3499999999999996
 74
0
 49
0.0
 74
0
 49
-6.3499999999999996
 74
0
 49
0.0
 74
0
 49
-6.3499999999999996
 74
0
  0
LTYPE
  5
3F
100
AcDbSymbolTableRecord
100
AcDbLinetypeTableRecord
  2
ACAD_ISO07W100
 70
0
  3
ISO dot . . . . . . . . . . . . . . . . . . . . 
 72
65
 73
2
 40
3.0
 49
0.0
 74
0
 49
-3.0
 74
0
  0
LTYPE
  5
40
100
AcDbSymbolTableRecord
100
AcDbLinetypeTableRecord
  2
DOT
 70
0
  3
Dot . . . . . . . . . . . . . . . . . . . . . . . .
 72
65
 73
2
 40
6.3499999999999996
 49
0.0
 74
0
 49
-6.3499999999999996
 74
0
  0
LTYPE
  5
41
100
AcDbSymbolTableRecord
100
AcDbLinetypeTableRecord
  2
ACAD_ISO11W100
 70
0
  3
ISO double-dash dot __ __ . __ __ . __ __ . __ _
 72
65
 73
6
 40
33.0
 49
12.0
 74
0
 49
-3.0
 74
0
 49
12.0
 74
0
 49
-3.0
 74
0
 49
0.0
 74
0
 49
-3.0
 74
0
  0
LTYPE
  5
42
100
AcDbSymbolTableRecord
100
AcDbLinetypeTableRecord
  2
PHANTOM2
 70
0
  3
Phantom (.5x) ___ _ _ ___ _ _ ___ _ _ ___ _ _
 72
65
 73
6
 40
31.7500000000000036
 49
15.875
 74
0
 49
-3.1749999999999998
 74
0
 49
3.1749999999999998
 74
0
 49
-3.1749999999999998
 74
0
 49
3.1749999999999998
 74
0
 49
-3.1749999999999998
 74
0
  0
LTYPE
  5
43
100
AcDbSymbolTableRecord
100
AcDbLinetypeTableRecord
  2
DASHDOTX2
 70
0
  3
Dash dot (2x) ____  .  ____  .  ____  .  ___
 72
65
 73
4
 40
50.7999999999999972
 49
25.3999999999999986
 74
0
 49
-12.6999999999999993
 74
0
 49
0.0
 74
0
 49
-12.6999999999999993
 74
0
  0
LTYPE
  5
14
100
AcDbSymbolTableRecord
100
AcDbLinetypeTableRecord
  2
BYBLOCK
 70
0
  3

 72
65
 73
0
 40
0.0
  0
LTYPE
  5
44
100
AcDbSymbolTableRecord
100
AcDbLinetypeTableRecord
  2
ACAD_ISO04W100
 70
0
  3
ISO long-dash dot ____ . ____ . ____ . ____ . _
 72
65
 73
4
 40
30.0
 49
24.0
 74
0
 49
-3.0
 74
0
 49
0.0
 74
0
 49
-3.0
 74
0
  0
LTYPE
  5
45
100
AcDbSymbolTableRecord
100
AcDbLinetypeTableRecord
  2
ACAD_ISO14W100
 70
0
  3
ISO dash triple-dot __ . . . __ . . . __ . . . _
 72
65
 73
8
 40
24.0
 49
12.0
 74
0
 49
-3.0
 74
0
 49
0.0
 74
0
 49
-3.0
 74
0
 49
0.0
 74
0
 49
-3.0
 74
0
 49
0.0
 74
0
 49
-3.0
 74
0
  0
LTYPE
  5
46
100
AcDbSymbolTableRecord
100
AcDbLinetypeTableRecord
  2
DASHED
 70
0
  3
Dashed __ __ __ __ __ __ __ __ __ __ __ __ __ _
 72
65
 73
2
 40
19.0499999999999972
 49
12.6999999999999993
 74
0
 49
-6.3499999999999996
 74
0
  0
LTYPE
  5
47
100
AcDbSymbolTableRecord
100
AcDbLinetypeTableRecord
  2
BORDERX2
 70
0
  3
Border (2x) ____  ____  .  ____  ____  .  ___
 72
65
 73
6
 40
88.8999999999999915
 49
25.3999999999999986
 74
0
 49
-12.6999999999999993
 74
0
 49
25.3999999999999986
 74
0
 49
-12.6999999999999993
 74
0
 49
0.0
 74
0
 49
-12.6999999999999993
 74
0
  0
LTYPE
  5
48
100
AcDbSymbolTableRecord
100
AcDbLinetypeTableRecord
  2
HIDDENX2
 70
0
  3
Hidden (2x) ____ ____ ____ ____ ____ ____ ____ 
 72
65
 73
2
 40
19.0499999999999972
 49
12.6999999999999993
 74
0
 49
-6.3499999999999996
 74
0
  0
LTYPE
  5
49
100
AcDbSymbolTableRecord
100
AcDbLinetypeTableRecord
  2
DOT2
 70
0
  3
Dot (.5x) ........................................
 72
65
 73
2
 40
3.1749999999999998
 49
0.0
 74
0
 49
-3.1749999999999998
 74
0
  0
LTYPE
  5
4A
100
AcDbSymbolTableRecord
100
AcDbLinetypeTableRecord
  2
BORDER
 70
0
  3
Border __ __ . __ __ . __ __ . __ __ . __ __ .
 72
65
 73
6
 40
44.4499999999999957
 49
12.6999999999999993
 74
0
 49
-6.3499999999999996
 74
0
 49
12.6999999999999993
 74
0
 49
-6.3499999999999996
 74
0
 49
0.0
 74
0
 49
-6.3499999999999996
 74
0
  0
LTYPE
  5
4B
100
AcDbSymbolTableRecord
100
AcDbLinetypeTableRecord
  2
ACAD_ISO06W100
 70
0
  3
ISO long-dash triple-dot ____ ... ____ ... ____
 72
65
 73
8
 40
36.0
 49
24.0
 74
0
 49
-3.0
 74
0
 49
0.0
 74
0
 49
-3.0
 74
0
 49
0.0
 74
0
 49
-3.0
 74
0
 49
0.0
 74
0
 49
-3.0
 74
0
  0
LTYPE
  5
4C
100
AcDbSymbolTableRecord
100
AcDbLinetypeTableRecord
  2
ACAD_ISO15W100
 70
0
  3
ISO double-dash triple-dot __ __ . . . __ __ . .
 72
65
 73
10
 40
39.0
 49
12.0
 74
0
 49
-3.0
 74
0
 49
12.0
 74
0
 49
-3.0
 74
0
 49
0.0
 74
0
 49
-3.0
 74
0
 49
0.0
 74
0
 49
-3.0
 74
0
 49
0.0
 74
0
 49
-3.0
 74
0
  0
LTYPE
  5
4D
100
AcDbSymbolTableRecord
100
AcDbLinetypeTableRecord
  2
HIDDEN
 70
0
  3
Hidden __ __ __ __ __ __ __ __ __ __ __ __ __ __
 72
65
 73
2
 40
9.5249999999999986
 49
6.3499999999999996
 74
0
 49
-3.1749999999999998
 74
0
  0
LTYPE
  5
4E
100
AcDbSymbolTableRecord
100
AcDbLinetypeTableRecord
  2
DASHED2
 70
0
  3
Dashed (.5x) _ _ _ _ _ _ _ _ _ _ _ _ _ _ _ _ _ 
 72
65
 73
2
 40
9.5249999999999986
 49
6.3499999999999996
 74
0
 49
-3.1749999999999998
 74
0
  0
LTYPE
  5
4F
100
AcDbSymbolTableRecord
100
AcDbLinetypeTableRecord
  2
CENTERX2
 70
0
  3
Center (2x) ________  __  ________  __  _____
 72
65
 73
4
 40
101.6000000000000085
 49
63.5
 74
0
 49
-12.6999999999999993
 74
0
 49
12.6999999999999993
 74
0
 49
-12.6999999999999993
 74
0
  0
LTYPE
  5
50
100
AcDbSymbolTableRecord
100
AcDbLinetypeTableRecord
  2
ACAD_ISO12W100
 70
0
  3
ISO dash double-dot __ . . __ . . __ . . __ . . 
 72
65
 73
6
 40
21.0
 49
12.0
 74
0
 49
-3.0
 74
0
 49
0.0
 74
0
 49
-3.0
 74
0
 49
0.0
 74
0
 49
-3.0
 74
0
  0
LTYPE
  5
51
100
AcDbSymbolTableRecord
100
AcDbLinetypeTableRecord
  2
DOTX2
 70
0
  3
Dot (2x) .  .  .  .  .  .  .  .  .  .  .  .  .  .
 72
65
 73
2
 40
12.6999999999999993
 49
0.0
 74
0
 49
-12.6999999999999993
 74
0
  0
LTYPE
  5
52
100
AcDbSymbolTableRecord
100
AcDbLinetypeTableRecord
  2
PHANTOM
 70
0
  3
Phantom ______  __  __  ______  __  __  ______ 
 72
65
 73
6
 40
63.5000000000000071
 49
31.75
 74
0
 49
-6.3499999999999996
 74
0
 49
6.3499999999999996
 74
0
 49
-6.3499999999999996
 74
0
 49
6.3499999999999996
 74
0
 49
-6.3499999999999996
 74
0
  0
LTYPE
  5
53
100
AcDbSymbolTableRecord
100
AcDbLinetypeTableRecord
  2
PHANTOMX2
 70
0
  3
Phantom (2x) ____________    ____    ____   _
 72
65
 73
6
 40
127.0000000000000142
 49
63.5
 74
0
 49
-12.6999999999999993
 74
0
 49
12.6999999999999993
 74
0
 49
-12.6999999999999993
 74
0
 49
12.6999999999999993
 74
0
 49
-12.6999999999999993
 74
0
  0
LTYPE
  5
54
100
AcDbSymbolTableRecord
100
AcDbLinetypeTableRecord
  2
DIVIDE2
 70
0
  3
Divide (.5x) __..__..__..__..__..__..__..__.._
 72
65
 73
6
 40
15.875
 49
6.3499999999999996
 74
0
 49
-3.1749999999999998
 74
0
 49
0.0
 74
0
 49
-3.1749999999999998
 74
0
 49
0.0
 74
0
 49
-3.1749999999999998
 74
0
  0
LTYPE
  5
55
100
AcDbSymbolTableRecord
100
AcDbLinetypeTableRecord
  2
BORDER2
 70
0
  3
Border (.5x) __.__.__.__.__.__.__.__.__.__.__.
 72
65
 73
6
 40
22.2249999999999979
 49
6.3499999999999996
 74
0
 49
-3.1749999999999998
 74
0
 49
6.3499999999999996
 74
0
 49
-3.1749999999999998
 74
0
 49
0.0
 74
0
 49
-3.1749999999999998
 74
0
  0
LTYPE
  5
56
100
AcDbSymbolTableRecord
100
AcDbLinetypeTableRecord
  2
ACAD_ISO09W100
 70
0
  3
ISO long-dash double-short-dash ____ __ __ ____
 72
65
 73
6
 40
45.0
 49
24.0
 74
0
 49
-3.0
 74
0
 49
6.0
 74
0
 49
-3.0
 74
0
 49
6.0
 74
0
 49
-3.0
 74
0
  0
ENDTAB
  0
TABLE
  2
LAYER
  5
2
100
AcDbSymbolTable
 70
9
  0
LAYER
  5
57
100
AcDbSymbolTableRecord
100
AcDbLayerTableRecord
  2
PCB
 70
4
 62
94
420
32768
  6
Continuous
370
25
390
F
  0
LAYER
  5
58
100
AcDbSymbolTableRecord
100
AcDbLayerTableRecord
  2
Medidas Vertical
 70
4
 62
1
420
16711680
  6
DASHED2
370
25
390
F
  0
LAYER
  5
59
100
AcDbSymbolTableRecord
100
AcDbLayerTableRecord
  2
PAD
 70
4
 62
52
420
12697856
  6
Continuous
370
25
390
F
  0
LAYER
  5
10
100
AcDbSymbolTableRecord
100
AcDbLayerTableRecord
  2
0
 70
4
 62
7
420
16777215
  6
Continuous
370
25
390
F
  0
LAYER
  5
5A
100
AcDbSymbolTableRecord
100
AcDbLayerTableRecord
  2
Origins
 70
4
 62
6
420
16711935
  6
Continuous
370
25
390
F
  0
LAYER
  5
5B
100
AcDbSymbolTableRecord
100
AcDbLayerTableRecord
  2
Raios
 70
5
 62
3
420
65280
  6
Continuous
370
25
390
F
  0
LAYER
  5
5C
100
AcDbSymbolTableRecord
100
AcDbLayerTableRecord
  2
Parts
 70
4
 62
252
420
10526884
  6
Continuous
370
25
390
F
  0
LAYER
  5
5D
100
AcDbSymbolTableRecord
100
AcDbLayerTableRecord
  2
Medidas Horizontal
 70
4
 62
1
420
16711680
  6
ACAD_ISO02W100
370
25
390
F
  0
LAYER
  5
5E
100
AcDbSymbolTableRecord
100
AcDbLayerTableRecord
  2
Back
 70
4
 62
7
420
16777215
  6
Continuous
370
25
390
F
  0
ENDTAB
  0
TABLE
  2
STYLE
  5
3
100
AcDbSymbolTable
 70
11
  0
STYLE
  5
5F
100
AcDbSymbolTableRecord
100
AcDbTextStyleTableRecord
  2
Standard
 70
0
 40
0.0
 41
1.0
 50
0.0
 71
0
 42
2.5
  3

  4

1001
ACAD
1000
txt
1071
0
  0
STYLE
  5
60
100
AcDbSymbolTableRecord
100
AcDbTextStyleTableRecord
  2
textstyle0
 70
0
 40
0.0
 41
1.0
 50
0.0
 71
0
 42
2.0
  3

  4

1001
ACAD
1000
Arial
1071
0
  0
STYLE
  5
61
100
AcDbSymbolTableRecord
100
AcDbTextStyleTableRecord
  2
textstyle1
 70
0
 40
0.0
 41
1.0
 50
0.0
 71
0
 42
3.0
  3

  4

1001
ACAD
1000
Arial
1071
0
  0
STYLE
  5
62
100
AcDbSymbolTableRecord
100
AcDbTextStyleTableRecord
  2
textstyle2
 70
0
 40
0.0
 41
1.0
 50
0.0
 71
0
 42
2.0
  3

  4

1001
ACAD
1000
Arial
1071
0
  0
STYLE
  5
63
100
AcDbSymbolTableRecord
100
AcDbTextStyleTableRecord
  2
textstyle3
 70
0
 40
0.0
 41
1.0
 50
0.0
 71
0
 42
2.0
  3

  4

1001
ACAD
1000
Arial
1071
0
  0
STYLE
  5
64
100
AcDbSymbolTableRecord
100
AcDbTextStyleTableRecord
  2
textstyle4
 70
0
 40
0.0
 41
1.0
 50
0.0
 71
0
 42
2.0
  3

  4

1001
ACAD
1000
Arial
1071
0
  0
STYLE
  5
65
100
AcDbSymbolTableRecord
100
AcDbTextStyleTableRecord
  2
textstyle5
 70
0
 40
0.0
 41
1.0
 50
0.0
 71
0
 42
3.0
  3

  4

1001
ACAD
1000
Arial
1071
0
  0
STYLE
  5
66
100
AcDbSymbolTableRecord
100
AcDbTextStyleTableRecord
  2
textstyle6
 70
0
 40
0.0
 41
1.0
 50
0.0
 71
0
 42
2.0
  3

  4

1001
ACAD
1000
Arial
1071
0
  0
STYLE
  5
67
100
AcDbSymbolTableRecord
100
AcDbTextStyleTableRecord
  2
textstyle7
 70
0
 40
0.0
 41
1.0
 50
0.0
 71
0
 42
2.0
  3

  4

1001
ACAD
1000
Arial
1071
0
  0
STYLE
  5
68
100
AcDbSymbolTableRecord
100
AcDbTextStyleTableRecord
  2
textstyle8
 70
0
 40
0.0
 41
1.0
 50
0.0
 71
0
 42
3.0
  3

  4

1001
ACAD
1000
Arial
1071
0
  0
STYLE
  5
69
100
AcDbSymbolTableRecord
100
AcDbTextStyleTableRecord
  2
textstyle9
 70
0
 40
0.0
 41
1.0
 50
0.0
 71
0
 42
3.0
  3

  4

1001
ACAD
1000
Arial
1071
0
  0
ENDTAB
  0
TABLE
  2
VIEW
  5
6
100
AcDbSymbolTable
 70
0
  0
ENDTAB
  0
TABLE
  2
UCS
  5
7
100
AcDbSymbolTable
 70
0
  0
ENDTAB
  0
TABLE
  2
APPID
  5
9
100
AcDbSymbolTable
 70
1
  0
APPID
  5
12
100
AcDbSymbolTableRecord
100
AcDbRegAppTableRecord
  2
ACAD
 70
0
  0
APPID
  5
6A
100
AcDbSymbolTableRecord
100
AcDbRegAppTableRecord
  2
QCAD
 70
0
  0
ENDTAB
  0
TABLE
  2
DIMSTYLE
  5
A
100
AcDbSymbolTable
 70
1
100
AcDbDimStyleTable
 71
0
  0
DIMSTYLE
105
27
100
AcDbSymbolTableRecord
100
AcDbDimStyleTableRecord
  2
Standard
 41
2.5
 42
0.625
 43
3.75
 44
1.25
 70
0
 73
0
 74
0
 77
1
 78
8
140
2.5
141
2.5
143
0.03937007874016
147
0.625
171
3
172
1
271
2
272
2
274
3
278
44
283
0
284
8
340
5F
  0
ENDTAB
  0
TABLE
  2
BLOCK_RECORD
  5
1
100
AcDbSymbolTable
 70
1
  0
BLOCK_RECORD
  5
1F
100
AcDbSymbolTableRecord
100
AcDbBlockTableRecord
  2
*Model_Space
340
22
  0
BLOCK_RECORD
  5
1B
100
AcDbSymbolTableRecord
100
AcDbBlockTableRecord
  2
*Paper_Space
340
1E
  0
BLOCK_RECORD
  5
23
100
AcDbSymbolTableRecord
100
AcDbBlockTableRecord
  2
*Paper_Space0
340
26
  0
ENDTAB
  0
ENDSEC
  0
SECTION
  2
BLOCKS
  0
BLOCK
  5
20
100
AcDbEntity
  8
0
100
AcDbBlockBegin
  2
*Model_Space
 70
0
 10
0.0
 20
0.0
 30
0.0
  3
*Model_Space
  1

  0
ENDBLK
  5
21
100
AcDbEntity
  8
0
100
AcDbBlockEnd
  0
BLOCK
  5
1C
100
AcDbEntity
 67
1
  8
0
100
AcDbBlockBegin
  2
*Paper_Space
 70
0
 10
0.0
 20
0.0
 30
0.0
  3
*Paper_Space
  1

  0
ENDBLK
  5
1D
100
AcDbEntity
 67
1
  8
0
100
AcDbBlockEnd
  0
BLOCK
  5
24
100
AcDbEntity
  8
0
100
AcDbBlockBegin
  2
*Paper_Space0
 70
0
 10
0.0
 20
0.0
 30
0.0
  3
*Paper_Space0
  1

  0
ENDBLK
  5
25
100
AcDbEntity
  8
0
100
AcDbBlockEnd
  0
ENDSEC
  0
SECTION
  2
ENTITIES
  0
CIRCLE
  5
6B
100
AcDbEntity
  8
0
 62
256
370
-1
 48
1.0
  6
BYLAYER
100
AcDbCircle
 10
0.0
 20
0.0
 30
0.0
 40
0.75
  0
CIRCLE
  5
6C
100
AcDbEntity
  8
PCB
 62
256
370
-1
 48
1.0
  6
BYLAYER
100
AcDbCircle
 10
150.0
 20
-0.1000000000000014
 30
0.0
 40
0.75
  0
CIRCLE
  5
6D
100
AcDbEntity
  8
PCB
 62
256
370
-1
 48
1.0
  6
BYLAYER
100
AcDbCircle
 10
336.1797629472746394
 20
119.3171978098202288
 30
0.0
 40
0.75
  0
CIRCLE
  5
6E
100
AcDbEntity
  8
0
 62
256
370
-1
 48
1.0
  6
BYLAYER
100
AcDbCircle
 10
-16.9250000000000007
 20
-29.6000000000000014
 30
0.0
 40
0.75
  0
CIRCLE
  5
6F
100
AcDbEntity
  8
PCB
 62
256
370
-1
 48
1.0
  6
BYLAYER
100
AcDbCircle
 10
133.0749999999999886
 20
-29.7000000000000028
 30
0.0
 40
0.75
  0
CIRCLE
  5
70
100
AcDbEntity
  8
PCB
 62
256
370
-1
 48
1.0
  6
BYLAYER
100
AcDbCircle
 10
319.2547629472746848
 20
89.7171978098202203
 30
0.0
 40
0.75
  0
CIRCLE
  5
71
100
AcDbEntity
  8
0
 62
256
370
-1
 48
1.0
  6
BYLAYER
100
AcDbCircle
 10
16.9250000000000007
 20
-29.6000000000000014
 30
0.0
 40
0.75
  0
CIRCLE
  5
72
100
AcDbEntity
  8
PCB
 62
256
370
-1
 48
1.0
  6
BYLAYER
100
AcDbCircle
 10
166.9250000000000114
 20
-29.7000000000000028
 30
0.0
 40
0.75
  0
CIRCLE
  5
73
100
AcDbEntity
  8
PCB
 62
256
370
-1
 48
1.0
  6
BYLAYER
100
AcDbCircle
 10
353.1047629472747076
 20
89.7171978098202203
 30
0.0
 40
0.75
  0
CIRCLE
  5
74
100
AcDbEntity
  8
0
 62
256
370
-1
 48
1.0
  6
BYLAYER
100
AcDbCircle
 10
0.0
 20
-44.134999999999998
 30
0.0
 40
1.8
  0
CIRCLE
  5
75
100
AcDbEntity
  8
PCB
 62
256
370
-1
 48
1.0
  6
BYLAYER
100
AcDbCircle
 10
150.0
 20
-44.2349999999999994
 30
0.0
 40
1.8
  0
CIRCLE
  5
76
100
AcDbEntity
  8
PCB
 62
256
370
-1
 48
1.0
  6
BYLAYER
100
AcDbCircle
 10
336.1797629472746394
 20
75.1821978098202237
 30
0.0
 40
1.8
  0
CIRCLE
  5
77
100
AcDbEntity
  8
0
 62
256
370
-1
 48
1.0
  6
BYLAYER
100
AcDbCircle
 10
-34.25
 20
-39.1000000000000014
 30
0.0
 40
1.8
  0
CIRCLE
  5
78
100
AcDbEntity
  8
PCB
 62
256
370
-1
 48
1.0
  6
BYLAYER
100
AcDbCircle
 10
115.75
 20
-39.2000000000000028
 30
0.0
 40
1.8
  0
CIRCLE
  5
79
100
AcDbEntity
  8
PCB
 62
256
370
-1
 48
1.0
  6
BYLAYER
100
AcDbCircle
 10
301.9297629472746394
 20
80.2171978098202203
 30
0.0
 40
1.8
  0
CIRCLE
  5
7A
100
AcDbEntity
  8
0
 62
256
370
-1
 48
1.0
  6
BYLAYER
100
AcDbCircle
 10
34.25
 20
-39.1000000000000014
 30
0.0
 40
1.8
  0
CIRCLE
  5
7B
100
AcDbEntity
  8
PCB
 62
256
370
-1
 48
1.0
  6
BYLAYER
100
AcDbCircle
 10
184.25
 20
-39.2000000000000028
 30
0.0
 40
1.8
  0
CIRCLE
  5
7C
100
AcDbEntity
  8
PCB
 62
256
370
-1
 48
1.0
  6
BYLAYER
100
AcDbCircle
 10
370.4297629472746394
 20
80.2171978098202203
 30
0.0
 40
1.8
  0
CIRCLE
  5
7D
100
AcDbEntity
  8
0
 62
256
370
-1
 48
1.0
  6
BYLAYER
100
AcDbCircle
 10
32.9750000000000014
 20
20.3500000000000014
 30
0.0
 40
1.8
  0
CIRCLE
  5
7E
100
AcDbEntity
  8
PCB
 62
256
370
-1
 48
1.0
  6
BYLAYER
100
AcDbCircle
 10
182.9749999999999943
 20
20.25
 30
0.0
 40
1.8
  0
CIRCLE
  5
7F
100
AcDbEntity
  8
PCB
 62
256
370
-1
 48
1.0
  6
BYLAYER
100
AcDbCircle
 10
369.1547629472746621
 20
139.6671978098202374
 30
0.0
 40
1.8
  0
CIRCLE
  5
80
100
AcDbEntity
  8
0
 62
256
370
-1
 48
1.0
  6
BYLAYER
100
AcDbCircle
 10
-32.9750000000000014
 20
20.3500000000000014
 30
0.0
 40
1.8
  0
CIRCLE
  5
81
100
AcDbEntity
  8
PCB
 62
256
370
-1
 48
1.0
  6
BYLAYER
100
AcDbCircle
 10
117.0250000000000057
 20
20.25
 30
0.0
 40
1.8
  0
CIRCLE
  5
82
100
AcDbEntity
  8
PCB
 62
256
370
-1
 48
1.0
  6
BYLAYER
100
AcDbCircle
 10
303.2047629472746735
 20
139.6671978098202374
 30
0.0
 40
1.8
  0
CIRCLE
  5
83
100
AcDbEntity
  8
0
 62
256
370
-1
 48
1.0
  6
BYLAYER
100
AcDbCircle
 10
0.0
 20
26.0
 30
0.0
 40
1.8
  0
CIRCLE
  5
84
100
AcDbEntity
  8
PCB
 62
256
370
-1
 48
1.0
  6
BYLAYER
100
AcDbCircle
 10
150.0
 20
25.8999999999999986
 30
0.0
 40
1.8
  0
CIRCLE
  5
85
100
AcDbEntity
  8
PCB
 62
256
370
-1
 48
1.0
  6
BYLAYER
100
AcDbCircle
 10
336.1797629472746394
 20
145.3171978098202146
 30
0.0
 40
1.8
  0
CIRCLE
  5
86
100
AcDbEntity
  8
0
 62
256
370
-1
 48
1.0
  6
BYLAYER
100
AcDbCircle
 10
-6.9749999999999996
 20
-38.6099999999999994
 30
0.0
 40
2.6499999999999999
  0
CIRCLE
  5
87
100
AcDbEntity
  8
PCB
 62
256
370
-1
 48
1.0
  6
BYLAYER
100
AcDbCircle
 10
143.0250000000000057
 20
-38.7100000000000009
 30
0.0
 40
2.6499999999999999
  0
CIRCLE
  5
88
100
AcDbEntity
  8
PCB
 62
256
370
-1
 48
1.0
  6
BYLAYER
100
AcDbCircle
 10
329.2047629472746735
 20
80.7071978098202294
 30
0.0
 40
2.6499999999999999
  0
CIRCLE
  5
89
100
AcDbEntity
  8
0
 62
256
370
-1
 48
1.0
  6
BYLAYER
100
AcDbCircle
 10
6.9749999999999996
 20
-38.6099999999999994
 30
0.0
 40
2.6499999999999999
  0
CIRCLE
  5
8A
100
AcDbEntity
  8
PCB
 62
256
370
-1
 48
1.0
  6
BYLAYER
100
AcDbCircle
 10
156.9749999999999943
 20
-38.7100000000000009
 30
0.0
 40
2.6499999999999999
  0
CIRCLE
  5
8B
100
AcDbEntity
  8
PCB
 62
256
370
-1
 48
1.0
  6
BYLAYER
100
AcDbCircle
 10
343.1547629472746621
 20
80.7071978098202294
 30
0.0
 40
2.6499999999999999
  0
LINE
  5
8C
100
AcDbEntity
  8
0
 62
256
370
-1
 48
1.0
  6
BYLAYER
100
AcDbLine
 10
-41.0
 20
34.7000000000000028
 30
0.0
 11
41.0
 21
34.7000000000000028
 31
0.0
  0
LINE
  5
8D
100
AcDbEntity
  8
0
 62
256
370
-1
 48
1.0
  6
BYLAYER
100
AcDbLine
 10
-41.0
 20
-48.5
 30
0.0
 11
41.0
 21
-48.5
 31
0.0
  0
LINE
  5
8E
100
AcDbEntity
  8
Back
 62
256
370
-1
 48
1.0
  6
BYLAYER
100
AcDbLine
 10
-37.7000000000000028
 20
80.0
 30
0.0
 11
37.0
 21
80.0
 31
0.0
  0
LINE
  5
8F
100
AcDbEntity
  8
Back
 62
256
370
-1
 48
1.0
  6
BYLAYER
100
AcDbLine
 10
-37.7000000000000028
 20
79.2000000000000028
 30
0.0
 11
37.0
 21
79.2000000000000028
 31
0.0
  0
LINE
  5
90
100
AcDbEntity
  8
PCB
 62
256
370
-1
 48
1.0
  6
DOTX2
100
AcDbLine
 10
109.0
 20
34.6000000000000014
 30
0.0
 11
191.0
 21
34.6000000000000014
 31
0.0
  0
LINE
  5
91
100
AcDbEntity
  8
PCB
 62
256
370
-1
 48
1.0
  6
DOTX2
100
AcDbLine
 10
109.0
 20
-48.6000000000000014
 30
0.0
 11
191.0
 21
-48.6000000000000014
 31
0.0
  0
LINE
  5
92
100
AcDbEntity
  8
PCB
 62
256
370
-1
 48
1.0
  6
DOTX2
100
AcDbLine
 10
295.1797629472746394
 20
154.0171978098202317
 30
0.0
 11
377.1797629472746394
 21
154.0171978098202317
 31
0.0
  0
LINE
  5
93
100
AcDbEntity
  8
PCB
 62
256
370
-1
 48
1.0
  6
DOTX2
100
AcDbLine
 10
295.1797629472746394
 20
70.8171978098202288
 30
0.0
 11
377.1797629472746394
 21
70.8171978098202288
 31
0.0
  0
LINE
  5
94
100
AcDbEntity
  8
0
 62
256
370
-1
 48
1.0
  6
BYLAYER
100
AcDbLine
 10
41.0
 20
34.7000000000000028
 30
0.0
 11
41.0
 21
-48.5
 31
0.0
  0
LINE
  5
95
100
AcDbEntity
  8
0
 62
256
370
-1
 48
1.0
  6
BYLAYER
100
AcDbLine
 10
-41.0
 20
34.7000000000000028
 30
0.0
 11
-41.0
 21
-48.5
 31
0.0
  0
LINE
  5
96
100
AcDbEntity
  8
PCB
 62
256
370
-1
 48
1.0
  6
DOTX2
100
AcDbLine
 10
191.0
 20
34.6000000000000014
 30
0.0
 11
191.0
 21
-48.6000000000000014
 31
0.0
  0
LINE
  5
97
100
AcDbEntity
  8
PCB
 62
256
370
-1
 48
1.0
  6
DOTX2
100
AcDbLine
 10
109.0
 20
34.6000000000000014
 30
0.0
 11
109.0
 21
-48.6000000000000014
 31
0.0
  0
LINE
  5
98
100
AcDbEntity
  8
PCB
 62
256
370
-1
 48
1.0
  6
DOTX2
100
AcDbLine
 10
377.1797629472746394
 20
154.0171978098202317
 30
0.0
 11
377.1797629472746394
 21
70.8171978098202288
 31
0.0
  0
LINE
  5
99
100
AcDbEntity
  8
PCB
 62
256
370
-1
 48
1.0
  6
DOTX2
100
AcDbLine
 10
295.1797629472746394
 20
154.0171978098202317
 30
0.0
 11
295.1797629472746394
 21
70.8171978098202288
 31
0.0
  0
CIRCLE
  5
9A
100
AcDbEntity
  8
0
 62
256
370
-1
 48
1.0
  6
BYLAYER
100
AcDbCircle
 10
-16.5499999999999972
 20
-4.0
 30
0.0
 40
4.1500000000000004
  0
CIRCLE
  5
9B
100
AcDbEntity
  8
PCB
 62
256
370
-1
 48
1.0
  6
BYLAYER
100
AcDbCircle
 10
133.4499999999999886
 20
-4.1000000000000014
 30
0.0
 40
4.1500000000000004
  0
CIRCLE
  5
9C
100
AcDbEntity
  8
PCB
 62
256
370
-1
 48
1.0
  6
BYLAYER
100
AcDbCircle
 10
319.6297629472746848
 20
115.3171978098202288
 30
0.0
 40
4.1500000000000004
  0
CIRCLE
  5
9D
100
AcDbEntity
  8
0
 62
256
370
-1
 48
1.0
  6
BYLAYER
100
AcDbCircle
 10
-26.5499999999999972
 20
0.25
 30
0.0
 40
4.1500000000000004
  0
CIRCLE
  5
9E
100
AcDbEntity
  8
PCB
 62
256
370
-1
 48
1.0
  6
BYLAYER
100
AcDbCircle
 10
123.4500000000000028
 20
0.1499999999999986
 30
0.0
 40
4.1500000000000004
  0
CIRCLE
  5
9F
100
AcDbEntity
  8
PCB
 62
256
370
-1
 48
1.0
  6
BYLAYER
100
AcDbCircle
 10
309.6297629472746848
 20
119.5671978098202288
 30
0.0
 40
4.1500000000000004
  0
CIRCLE
  5
A0
100
AcDbEntity
  8
0
 62
256
370
-1
 48
1.0
  6
BYLAYER
100
AcDbCircle
 10
0.0
 20
15.5999999999999996
 30
0.0
 40
2.1000000000000001
  0
CIRCLE
  5
A1
100
AcDbEntity
  8
PCB
 62
256
370
-1
 48
1.0
  6
BYLAYER
100
AcDbCircle
 10
150.0
 20
15.5
 30
0.0
 40
2.1000000000000001
  0
CIRCLE
  5
A2
100
AcDbEntity
  8
PCB
 62
256
370
-1
 48
1.0
  6
BYLAYER
100
AcDbCircle
 10
336.1797629472746394
 20
134.9171978098202374
 30
0.0
 40
2.1000000000000001
  0
CIRCLE
  5
A3
100
AcDbEntity
  8
0
 62
256
370
-1
 48
1.0
  6
BYLAYER
100
AcDbCircle
 10
20.6000000000000014
 20
-2.1400000000000001
 30
0.0
 40
9.1999999999999993
  0
CIRCLE
  5
A4
100
AcDbEntity
  8
PCB
 62
256
370
-1
 48
1.0
  6
BYLAYER
100
AcDbCircle
 10
170.5999999999999943
 20
-2.240000000000002
 30
0.0
 40
9.1999999999999993
  0
CIRCLE
  5
A5
100
AcDbEntity
  8
PCB
 62
256
370
-1
 48
1.0
  6
BYLAYER
100
AcDbCircle
 10
356.7797629472746621
 20
117.1771978098202283
 30
0.0
 40
9.1999999999999993
  0
CIRCLE
  5
A6
100
AcDbEntity
  8
0
 62
256
370
-1
 48
1.0
  6
BYLAYER
100
AcDbCircle
 10
0.0
 20
-20.5
 30
0.0
 40
11.5
  0
DIMENSION
  5
A7
100
AcDbEntity
  8
Raios
 62
256
370
-1
 48
1.0
  6
BYLAYER
100
AcDbDimension
 10
-26.5499999999999972
 20
0.25
 30
0.0
 11
-20.0067563681591629
 21
7.2916320268482391
 31
0.0
 70
4
 71
8
 72
2
 74
0
 41
1.0
 42
0.0
  1

  3
Standard
100
AcDbRadialDimension
 15
-23.1863250033668002
 25
2.6806769668190515
 35
0.0
 40
0.0
1001
ACAD
1000
DSTYLE
1002
{
1070
144
1040
1.0
1070
40
1040
1.0
1002
}
  0
DIMENSION
  5
A8
100
AcDbEntity
  8
Raios
 62
256
370
-1
 48
1.0
  6
BYLAYER
100
AcDbDimension
 10
-16.5499999999999972
 20
-4.0
 30
0.0
 11
-10.1625832158918676
 21
3.1832809810875613
 31
0.0
 70
4
 71
8
 72
2
 74
0
 41
1.0
 42
0.0
  1

  3
Standard
100
AcDbRadialDimension
 15
-13.2403795210749671
 25
-1.4962203999792507
 35
0.0
 40
0.0
1001
ACAD
1000
DSTYLE
1002
{
1070
144
1040
1.0
1070
40
1040
1.0
1002
}
  0
DIMENSION
  5
A9
100
AcDbEntity
  8
Raios
 62
256
370
-1
 48
1.0
  6
BYLAYER
100
AcDbDimension
 10
0.0
 20
0.0
 30
0.0
 11
3.2557501382877447
 21
5.5626655226432744
 31
0.0
 70
4
 71
8
 72
2
 74
0
 41
1.0
 42
0.0
  1

  3
Standard
100
AcDbRadialDimension
 15
0.550759640954211
 25
0.5090813470320716
 35
0.0
 40
0.0
1001
ACAD
1000
DSTYLE
1002
{
1070
144
1040
1.0
1070
40
1040
1.0
1002
}
  0
DIMENSION
  5
AA
100
AcDbEntity
  8
Raios
 62
256
370
-1
 48
1.0
  6
BYLAYER
100
AcDbDimension
 10
0.0
 20
15.5999999999999996
 30
0.0
 11
3.8708753824445576
 21
20.8728606927071212
 31
0.0
 70
4
 71
8
 72
2
 74
0
 41
1.0
 42
0.0
  1

  3
Standard
100
AcDbRadialDimension
 15
1.6758139444033104
 25
16.8655621769567148
 35
0.0
 40
0.0
1001
ACAD
1000
DSTYLE
1002
{
1070
144
1040
1.0
1070
40
1040
1.0
1002
}
  0
DIMENSION
  5
AB
100
AcDbEntity
  8
Raios
 62
256
370
-1
 48
1.0
  6
BYLAYER
100
AcDbDimension
 10
0.0
 20
26.0
 30
0.0
 11
3.9178044385751507
 21
30.8751968670190102
 31
0.0
 70
4
 71
8
 72
2
 74
0
 41
1.0
 42
0.0
  1

  3
Standard
100
AcDbRadialDimension
 15
1.4963162808427806
 25
27.0005186593386597
 35
0.0
 40
0.0
1001
ACAD
1000
DSTYLE
1002
{
1070
144
1040
1.0
1070
40
1040
1.0
1002
}
  0
DIMENSION
  5
AC
100
AcDbEntity
  8
Raios
 62
256
370
-1
 48
1.0
  6
BYLAYER
100
AcDbDimension
 10
32.9750000000000014
 20
20.3500000000000014
 30
0.0
 11
35.866565370308841
 21
25.8957718867928364
 31
0.0
 70
4
 71
8
 72
2
 74
0
 41
1.0
 42
0.0
  1

  3
Standard
100
AcDbRadialDimension
 15
34.2474065743538603
 25
21.6231777211140148
 35
0.0
 40
0.0
1001
ACAD
1000
DSTYLE
1002
{
1070
144
1040
1.0
1070
40
1040
1.0
1002
}
  0
DIMENSION
  5
AD
100
AcDbEntity
  8
Raios
 62
256
370
-1
 48
1.0
  6
BYLAYER
100
AcDbDimension
 10
-32.9750000000000014
 20
20.3500000000000014
 30
0.0
 11
-29.32676631758466
 21
25.4300715654015477
 31
0.0
 70
4
 71
8
 72
2
 74
0
 41
1.0
 42
0.0
  1

  3
Standard
100
AcDbRadialDimension
 15
-31.5350211857560581
 25
21.4300282470975532
 35
0.0
 40
0.0
1001
ACAD
1000
DSTYLE
1002
{
1070
144
1040
1.0
1070
40
1040
1.0
1002
}
  0
DIMENSION
  5
AE
100
AcDbEntity
  8
Raios
 62
256
370
-1
 48
1.0
  6
BYLAYER
100
AcDbDimension
 10
-34.25
 20
-39.1000000000000014
 30
0.0
 11
-30.8120201946562062
 21
-33.8753439377161527
 31
0.0
 70
4
 71
8
 72
2
 74
0
 41
1.0
 42
0.0
  1

  3
Standard
100
AcDbRadialDimension
 15
-32.8552742957737891
 25
-37.9621334832368547
 35
0.0
 40
0.0
1001
ACAD
1000
DSTYLE
1002
{
1070
144
1040
1.0
1070
40
1040
1.0
1002
}
  0
DIMENSION
  5
AF
100
AcDbEntity
  8
Raios
 62
256
370
-1
 48
1.0
  6
BYLAYER
100
AcDbDimension
 10
-6.9749999999999996
 20
-38.6099999999999994
 30
0.0
 11
-15.0179653302172209
 21
-40.5841947239406053
 31
0.0
 70
4
 71
8
 72
2
 74
0
 41
1.0
 42
0.0
  1

  3
Standard
100
AcDbRadialDimension
 15
-9.3387589136533684
 25
-39.8079748737449606
 35
0.0
 40
0.0
1001
ACAD
1000
DSTYLE
1002
{
1070
144
1040
1.0
1070
40
1040
1.0
1002
}
  0
DIMENSION
  5
B0
100
AcDbEntity
  8
Raios
 62
256
370
-1
 48
1.0
  6
BYLAYER
100
AcDbDimension
 10
0.0
 20
-44.134999999999998
 30
0.0
 11
6.2059757189593805
 21
-43.3587258945464384
 31
0.0
 70
4
 71
8
 72
2
 74
0
 41
1.0
 42
0.0
  1

  3
Standard
100
AcDbRadialDimension
 15
1.7709070647091325
 25
-44.4573168753932748
 35
0.0
 40
0.0
1001
ACAD
1000
DSTYLE
1002
{
1070
144
1040
1.0
1070
40
1040
1.0
1002
}
  0
DIMENSION
  5
B1
100
AcDbEntity
  8
Raios
 62
256
370
-1
 48
1.0
  6
BYLAYER
100
AcDbDimension
 10
6.9749999999999996
 20
-38.6099999999999994
 30
0.0
 11
15.239332134821165
 21
-38.0737626677735577
 31
0.0
 70
4
 71
8
 72
2
 74
0
 41
1.0
 42
0.0
  1

  3
Standard
100
AcDbRadialDimension
 15
9.5896207369115878
 25
-39.0415766468565053
 35
0.0
 40
0.0
1001
ACAD
1000
DSTYLE
1002
{
1070
144
1040
1.0
1070
40
1040
1.0
1002
}
  0
DIMENSION
  5
B2
100
AcDbEntity
  8
Raios
 62
256
370
-1
 48
1.0
  6
BYLAYER
100
AcDbDimension
 10
-16.9250000000000007
 20
-29.6000000000000014
 30
0.0
 11
-22.2033111921780382
 21
-25.901001806124679
 31
0.0
 70
4
 71
8
 72
2
 74
0
 41
1.0
 42
0.0
  1

  3
Standard
100
AcDbRadialDimension
 15
-17.6378448786395445
 25
-29.3668644621740924
 35
0.0
 40
0.0
1001
ACAD
1000
DSTYLE
1002
{
1070
144
1040
1.0
1070
40
1040
1.0
1002
}
  0
DIMENSION
  5
B3
100
AcDbEntity
  8
Raios
 62
256
370
-1
 48
1.0
  6
BYLAYER
100
AcDbDimension
 10
16.9250000000000007
 20
-29.6000000000000014
 30
0.0
 11
21.5252190607416978
 21
-25.0854522626343162
 31
0.0
 70
4
 71
8
 72
2
 74
0
 41
1.0
 42
0.0
  1

  3
Standard
100
AcDbRadialDimension
 15
17.5899597496941311
 25
-29.2531159685331161
 35
0.0
 40
0.0
1001
ACAD
1000
DSTYLE
1002
{
1070
144
1040
1.0
1070
40
1040
1.0
1002
}
  0
DIMENSION
  5
B4
100
AcDbEntity
  8
Raios
 62
256
370
-1
 48
1.0
  6
BYLAYER
100
AcDbDimension
 10
34.25
 20
-39.1000000000000014
 30
0.0
 11
29.9536057934083182
 21
-34.554922120284786
 31
0.0
 70
4
 71
8
 72
2
 74
0
 41
1.0
 42
0.0
  1

  3
Standard
100
AcDbRadialDimension
 15
32.6782197919532109
 25
-38.2227845318324597
 35
0.0
 40
0.0
1001
ACAD
1000
DSTYLE
1002
{
1070
144
1040
1.0
1070
40
1040
1.0
1002
}
  0
DIMENSION
  5
B5
100
AcDbEntity
  8
Raios
 62
256
370
-1
 48
1.0
  6
BYLAYER
100
AcDbDimension
 10
20.6000000000000014
 20
-2.1400000000000001
 30
0.0
 11
22.304940896470633
 21
2.5257048277341685
 31
0.0
 70
4
 71
8
 72
2
 74
0
 41
1.0
 42
0.0
  1

  3
Standard
100
AcDbRadialDimension
 15
26.7857199976515865
 25
4.6700563955560046
 35
0.0
 40
0.0
1001
ACAD
1000
DSTYLE
1002
{
1070
144
1040
1.0
1070
40
1040
1.0
1002
}
  0
DIMENSION
  5
B6
100
AcDbEntity
  8
Raios
 62
256
370
-1
 48
1.0
  6
BYLAYER
100
AcDbDimension
 10
0.0
 20
-20.5
 30
0.0
 11
3.9095573649811923
 21
-15.8855134402708114
 31
0.0
 70
4
 71
8
 72
2
 74
0
 41
1.0
 42
0.0
  1

  3
Standard
100
AcDbRadialDimension
 15
9.7877993255133209
 25
-14.4627005736437937
 35
0.0
 40
0.0
1001
ACAD
1000
DSTYLE
1002
{
1070
144
1040
1.0
1070
40
1040
1.0
1002
}
  0
DIMENSION
  5
B7
100
AcDbEntity
  8
Medidas Vertical
 62
256
370
-1
 48
1.0
  6
BYLAYER
100
AcDbDimension
 10
-59.7754702275947665
 20
0.0
 30
0.0
 11
-61.6504702275947665
 21
17.3500000000000014
 31
0.0
 70
0
 71
8
 72
2
 74
0
 75
0
 41
1.0
 42
0.0
  1

  3
Standard
100
AcDbAlignedDimension
 13
0.0
 23
0.0
 33
0.0
 14
-41.0
 24
34.7000000000000028
 34
0.0
 50
90.0
100
AcDbRotatedDimension
1001
ACAD
1000
DSTYLE
1002
{
1070
144
1040
1.0
1070
40
1040
1.0
1002
}
  0
DIMENSION
  5
B8
100
AcDbEntity
  8
Medidas Vertical
 62
256
370
-1
 48
1.0
  6
BYLAYER
100
AcDbDimension
 10
-53.0369223880885556
 20
0.0
 30
0.0
 11
-54.9119223880885556
 21
10.1750000000000007
 31
0.0
 70
0
 71
8
 72
2
 74
0
 75
0
 41
1.0
 42
0.0
  1

  3
Standard
100
AcDbAlignedDimension
 13
0.0
 23
0.0
 33
0.0
 14
-32.9750000000000014
 24
20.3500000000000014
 34
0.0
 50
90.0
100
AcDbRotatedDimension
1001
ACAD
1000
DSTYLE
1002
{
1070
144
1040
1.0
1070
40
1040
1.0
1002
}
  0
DIMENSION
  5
B9
100
AcDbEntity
  8
Medidas Vertical
 62
256
370
-1
 48
1.0
  6
BYLAYER
100
AcDbDimension
 10
-33.0
 20
0.0
 30
0.0
 11
-34.875
 21
3.7916467127414428
 31
0.0
 70
0
 71
8
 72
2
 74
0
 75
0
 41
1.0
 42
0.0
  1

  3
Standard
100
AcDbAlignedDimension
 13
0.0
 23
0.0
 33
0.0
 14
-26.5499999999999972
 24
0.25
 34
0.0
 50
90.0
100
AcDbRotatedDimension
1001
ACAD
1000
DSTYLE
1002
{
1070
144
1040
1.0
1070
40
1040
1.0
1002
}
  0
DIMENSION
  5
BA
100
AcDbEntity
  8
Medidas Vertical
 62
256
370
-1
 48
1.0
  6
BYLAYER
100
AcDbDimension
 10
-5.0
 20
0.0
 30
0.0
 11
-6.875
 21
-1.9999999999999998
 31
0.0
 70
0
 71
8
 72
2
 74
0
 75
0
 41
1.0
 42
0.0
  1

  3
Standard
100
AcDbAlignedDimension
 13
0.0
 23
0.0
 33
0.0
 14
-16.5499999999999972
 24
-4.0
 34
0.0
 50
90.0
100
AcDbRotatedDimension
1001
ACAD
1000
DSTYLE
1002
{
1070
144
1040
1.0
1070
40
1040
1.0
1002
}
  0
DIMENSION
  5
BB
100
AcDbEntity
  8
Medidas Vertical
 62
256
370
-1
 48
1.0
  6
BYLAYER
100
AcDbDimension
 10
35.0
 20
0.0
 30
0.0
 11
33.125
 21
3.4027777777777768
 31
0.0
 70
0
 71
8
 72
2
 74
0
 75
0
 41
1.0
 42
0.0
  1

  3
Standard
100
AcDbAlignedDimension
 13
0.0
 23
0.0
 33
0.0
 14
20.6000000000000014
 24
-2.1400000000000001
 34
0.0
 50
90.0
100
AcDbRotatedDimension
1001
ACAD
1000
DSTYLE
1002
{
1070
144
1040
1.0
1070
40
1040
1.0
1002
}
  0
DIMENSION
  5
BC
100
AcDbEntity
  8
Medidas Vertical
 62
256
370
-1
 48
1.0
  6
BYLAYER
100
AcDbDimension
 10
50.0
 20
0.0
 30
0.0
 11
48.125
 21
7.7999999999999998
 31
0.0
 70
0
 71
8
 72
2
 74
0
 75
0
 41
1.0
 42
0.0
  1

  3
Standard
100
AcDbAlignedDimension
 13
0.0
 23
0.0
 33
0.0
 14
0.0
 24
15.5999999999999996
 34
0.0
 50
90.0
100
AcDbRotatedDimension
1001
ACAD
1000
DSTYLE
1002
{
1070
144
1040
1.0
1070
40
1040
1.0
1002
}
  0
DIMENSION
  5
BD
100
AcDbEntity
  8
Medidas Vertical
 62
256
370
-1
 48
1.0
  6
BYLAYER
100
AcDbDimension
 10
57.0559477679470106
 20
0.0
 30
0.0
 11
55.1809477679470106
 21
10.1750000000000007
 31
0.0
 70
0
 71
8
 72
2
 74
0
 75
0
 41
1.0
 42
0.0
  1

  3
Standard
100
AcDbAlignedDimension
 13
0.0
 23
0.0
 33
0.0
 14
32.9750000000000014
 24
20.3500000000000014
 34
0.0
 50
90.0
100
AcDbRotatedDimension
1001
ACAD
1000
DSTYLE
1002
{
1070
144
1040
1.0
1070
40
1040
1.0
1002
}
  0
DIMENSION
  5
BE
100
AcDbEntity
  8
Medidas Vertical
 62
256
370
-1
 48
1.0
  6
BYLAYER
100
AcDbDimension
 10
64.7558706074531756
 20
0.0
 30
0.0
 11
62.8808706074531756
 21
13.0
 31
0.0
 70
0
 71
8
 72
2
 74
0
 75
0
 41
1.0
 42
0.0
  1

  3
Standard
100
AcDbAlignedDimension
 13
0.0
 23
0.0
 33
0.0
 14
0.0
 24
26.0
 34
0.0
 50
90.0
100
AcDbRotatedDimension
1001
ACAD
1000
DSTYLE
1002
{
1070
144
1040
1.0
1070
40
1040
1.0
1002
}
  0
DIMENSION
  5
BF
100
AcDbEntity
  8
Medidas Vertical
 62
256
370
-1
 48
1.0
  6
BYLAYER
100
AcDbDimension
 10
-65.7969906699815823
 20
34.7000000000000028
 30
0.0
 11
-67.6719906699815823
 21
-6.8999999999999986
 31
0.0
 70
0
 71
8
 72
2
 74
0
 75
0
 41
1.0
 42
0.0
  1

  3
Standard
100
AcDbAlignedDimension
 13
-41.0
 23
34.7000000000000028
 33
0.0
 14
-41.0
 24
-48.5
 34
0.0
 50
90.0
100
AcDbRotatedDimension
1001
ACAD
1000
DSTYLE
1002
{
1070
144
1040
1.0
1070
40
1040
1.0
1002
}
  0
DIMENSION
  5
C0
100
AcDbEntity
  8
Medidas Vertical
 62
256
370
-1
 48
1.0
  6
BYLAYER
100
AcDbDimension
 10
-41.0
 20
39.567102488568608
 30
0.0
 11
0.0000000000000001
 21
41.442102488568608
 31
0.0
 70
0
 71
8
 72
2
 74
0
 75
0
 41
1.0
 42
0.0
  1

  3
Standard
100
AcDbAlignedDimension
 13
-41.0
 23
34.7000000000000028
 33
0.0
 14
41.0
 24
34.7000000000000028
 34
0.0
 50
0.0
100
AcDbRotatedDimension
1001
ACAD
1000
DSTYLE
1002
{
1070
144
1040
1.0
1070
40
1040
1.0
1002
}
  0
DIMENSION
  5
C1
100
AcDbEntity
  8
Medidas Vertical
 62
256
370
-1
 48
1.0
  6
BYLAYER
100
AcDbDimension
 10
-23.0
 20
-38.6099999999999994
 30
0.0
 11
-24.875
 21
-43.5549999999999997
 31
0.0
 70
0
 71
8
 72
2
 74
0
 75
0
 41
1.0
 42
0.0
  1

  3
Standard
100
AcDbAlignedDimension
 13
6.9749999999999996
 23
-38.6099999999999994
 33
0.0
 14
6.9749999999999996
 24
-48.5
 34
0.0
 50
90.0
100
AcDbRotatedDimension
1001
ACAD
1000
DSTYLE
1002
{
1070
144
1040
1.0
1070
40
1040
1.0
1002
}
  0
DIMENSION
  5
C2
100
AcDbEntity
  8
Medidas Vertical
 62
256
370
-1
 48
1.0
  6
BYLAYER
100
AcDbDimension
 10
-45.0
 20
-39.1000000000000014
 30
0.0
 11
-46.875
 21
-43.7999999999999972
 31
0.0
 70
0
 71
8
 72
2
 74
0
 75
0
 41
1.0
 42
0.0
  1

  3
Standard
100
AcDbAlignedDimension
 13
-34.25
 23
-39.1000000000000014
 33
0.0
 14
-34.25
 24
-48.5
 34
0.0
 50
90.0
100
AcDbRotatedDimension
1001
ACAD
1000
DSTYLE
1002
{
1070
144
1040
1.0
1070
40
1040
1.0
1002
}
  0
DIMENSION
  5
C3
100
AcDbEntity
  8
Medidas Vertical
 62
256
370
-1
 48
1.0
  6
BYLAYER
100
AcDbDimension
 10
47.0
 20
-39.1000000000000014
 30
0.0
 11
45.125
 21
-43.7999999999999972
 31
0.0
 70
0
 71
8
 72
2
 74
0
 75
0
 41
1.0
 42
0.0
  1

  3
Standard
100
AcDbAlignedDimension
 13
34.25
 23
-39.1000000000000014
 33
0.0
 14
34.25
 24
-48.5
 34
0.0
 50
90.0
100
AcDbRotatedDimension
1001
ACAD
1000
DSTYLE
1002
{
1070
144
1040
1.0
1070
40
1040
1.0
1002
}
  0
DIMENSION
  5
C4
100
AcDbEntity
  8
Medidas Vertical
 62
256
370
-1
 48
1.0
  6
BYLAYER
100
AcDbDimension
 10
69.2047482668228753
 20
-20.5
 30
0.0
 11
67.3297482668228753
 21
-34.5
 31
0.0
 70
0
 71
8
 72
2
 74
0
 75
0
 41
1.0
 42
0.0
  1

  3
Standard
100
AcDbAlignedDimension
 13
0.0
 23
-20.5
 33
0.0
 14
0.625
 24
-48.5
 34
0.0
 50
90.0
100
AcDbRotatedDimension
1001
ACAD
1000
DSTYLE
1002
{
1070
144
1040
1.0
1070
40
1040
1.0
1002
}
  0
DIMENSION
  5
C5
100
AcDbEntity
  8
Medidas Vertical
 62
256
370
-1
 48
1.0
  6
BYLAYER
100
AcDbDimension
 10
-51.474903585028926
 20
-29.6000000000000014
 30
0.0
 11
-53.349903585028926
 21
-39.0499999999999972
 31
0.0
 70
0
 71
8
 72
2
 74
0
 75
0
 41
1.0
 42
0.0
  1

  3
Standard
100
AcDbAlignedDimension
 13
-16.9250000000000007
 23
-29.6000000000000014
 33
0.0
 14
-16.9249999999999972
 24
-48.5
 34
0.0
 50
90.0
100
AcDbRotatedDimension
1001
ACAD
1000
DSTYLE
1002
{
1070
144
1040
1.0
1070
40
1040
1.0
1002
}
  0
DIMENSION
  5
C6
100
AcDbEntity
  8
Medidas Vertical
 62
256
370
-1
 48
1.0
  6
BYLAYER
100
AcDbDimension
 10
57.0
 20
-29.6000000000000014
 30
0.0
 11
55.125
 21
-39.0499999999999972
 31
0.0
 70
0
 71
8
 72
2
 74
0
 75
0
 41
1.0
 42
0.0
  1

  3
Standard
100
AcDbAlignedDimension
 13
16.9250000000000007
 23
-29.6000000000000014
 33
0.0
 14
16.9250000000000007
 24
-48.5
 34
0.0
 50
90.0
100
AcDbRotatedDimension
1001
ACAD
1000
DSTYLE
1002
{
1070
144
1040
1.0
1070
40
1040
1.0
1002
}
  0
DIMENSION
  5
C7
100
AcDbEntity
  8
Medidas Vertical
 62
256
370
-1
 48
1.0
  6
BYLAYER
100
AcDbDimension
 10
24.7175776003675054
 20
-44.134999999999998
 30
0.0
 11
22.8425776003675089
 21
-39.4822222222222194
 31
0.0
 70
0
 71
8
 72
2
 74
0
 75
0
 41
1.0
 42
0.0
  1

  3
Standard
100
AcDbAlignedDimension
 13
0.0
 23
-44.134999999999998
 33
0.0
 14
0.0
 24
-48.5
 34
0.0
 50
90.0
100
AcDbRotatedDimension
1001
ACAD
1000
DSTYLE
1002
{
1070
144
1040
1.0
1070
40
1040
1.0
1002
}
  0
MTEXT
  5
C8
100
AcDbEntity
  8
0
 62
256
370
-1
 48
1.0
  6
BYLAYER
100
AcDbMText
 10
-27.8559582124090923
 20
56.6793465048656486
 30
0.0
 40
3.0
 41
0.0
 71
1
 72
1
  1
GBA SP Bottom part blueprint
  7
textstyle8
 50
0.0
 73
2
 44
1.0
  0
DIMENSION
  5
C9
100
AcDbEntity
  8
Medidas Horizontal
 62
256
370
-1
 48
1.0
  6
BYLAYER
100
AcDbDimension
 10
20.6000000000000014
 20
37.7547614149993365
 30
0.0
 11
10.3000000000000007
 21
39.6297614149993365
 31
0.0
 70
0
 71
8
 72
2
 74
0
 75
0
 41
1.0
 42
0.0
  1

  3
Standard
100
AcDbAlignedDimension
 13
20.6000000000000014
 23
-2.1400000000000001
 33
0.0
 14
0.0
 24
0.0
 34
0.0
 50
0.0
100
AcDbRotatedDimension
1001
ACAD
1000
DSTYLE
1002
{
1070
144
1040
1.0
1070
40
1040
1.0
1002
}
  0
DIMENSION
  5
CA
100
AcDbEntity
  8
Medidas Horizontal
 62
256
370
-1
 48
1.0
  6
BYLAYER
100
AcDbDimension
 10
0.0
 20
44.0
 30
0.0
 11
16.4875000000000007
 21
45.875
 31
0.0
 70
0
 71
8
 72
2
 74
0
 75
0
 41
1.0
 42
0.0
  1

  3
Standard
100
AcDbAlignedDimension
 13
0.0
 23
0.0
 33
0.0
 14
32.9750000000000014
 24
20.3500000000000014
 34
0.0
 50
0.0
100
AcDbRotatedDimension
1001
ACAD
1000
DSTYLE
1002
{
1070
144
1040
1.0
1070
40
1040
1.0
1002
}
  0
DIMENSION
  5
CB
100
AcDbEntity
  8
Medidas Horizontal
 62
256
370
-1
 48
1.0
  6
BYLAYER
100
AcDbDimension
 10
0.0
 20
49.0
 30
0.0
 11
20.5
 21
50.875
 31
0.0
 70
0
 71
8
 72
2
 74
0
 75
0
 41
1.0
 42
0.0
  1

  3
Standard
100
AcDbAlignedDimension
 13
0.0
 23
0.0
 33
0.0
 14
41.0
 24
14.0
 34
0.0
 50
0.0
100
AcDbRotatedDimension
1001
ACAD
1000
DSTYLE
1002
{
1070
144
1040
1.0
1070
40
1040
1.0
1002
}
  0
DIMENSION
  5
CC
100
AcDbEntity
  8
Medidas Horizontal
 62
256
370
-1
 48
1.0
  6
BYLAYER
100
AcDbDimension
 10
0.0
 20
-56.0
 30
0.0
 11
11.4888888888888872
 21
-54.125
 31
0.0
 70
128
 71
8
 72
2
 74
0
 75
0
 41
1.0
 42
0.0
  1

  3
Standard
100
AcDbAlignedDimension
 13
0.0
 23
0.0
 33
0.0
 14
6.9749999999999996
 24
-38.6099999999999994
 34
0.0
 50
0.0
100
AcDbRotatedDimension
1001
ACAD
1000
DSTYLE
1002
{
1070
279
1070
2
1070
144
1040
1.0
1070
40
1040
1.0
1002
}
  0
DIMENSION
  5
CD
100
AcDbEntity
  8
Medidas Horizontal
 62
256
370
-1
 48
1.0
  6
BYLAYER
100
AcDbDimension
 10
0.0
 20
-63.0
 30
0.0
 11
8.4625000000000004
 21
-61.125
 31
0.0
 70
0
 71
8
 72
2
 74
0
 75
0
 41
1.0
 42
0.0
  1

  3
Standard
100
AcDbAlignedDimension
 13
-0.0000000000000002
 23
-20.5
 33
0.0
 14
16.9250000000000007
 24
-29.6000000000000014
 34
0.0
 50
0.0
100
AcDbRotatedDimension
1001
ACAD
1000
DSTYLE
1002
{
1070
144
1040
1.0
1070
40
1040
1.0
1002
}
  0
DIMENSION
  5
CE
100
AcDbEntity
  8
Medidas Horizontal
 62
256
370
-1
 48
1.0
  6
BYLAYER
100
AcDbDimension
 10
0.0
 20
-70.2571392337203378
 30
0.0
 11
17.125
 21
-68.3821392337203378
 31
0.0
 70
0
 71
8
 72
2
 74
0
 75
0
 41
1.0
 42
0.0
  1

  3
Standard
100
AcDbAlignedDimension
 13
-0.0000000000000002
 23
-20.5
 33
0.0
 14
34.25
 24
-39.1000000000000014
 34
0.0
 50
0.0
100
AcDbRotatedDimension
1001
ACAD
1000
DSTYLE
1002
{
1070
144
1040
1.0
1070
40
1040
1.0
1002
}
  0
DIMENSION
  5
CF
100
AcDbEntity
  8
Medidas Horizontal
 62
256
370
-1
 48
1.0
  6
BYLAYER
100
AcDbDimension
 10
0.0
 20
-75.0
 30
0.0
 11
4.5138888888888884
 21
-73.125
 31
0.0
 70
0
 71
8
 72
2
 74
0
 75
0
 41
1.0
 42
0.0
  1

  3
Standard
100
AcDbAlignedDimension
 13
-0.0000000000000002
 23
-20.5
 33
0.0
 14
-6.9749999999999996
 24
-38.6099999999999994
 34
0.0
 50
0.0
100
AcDbRotatedDimension
1001
ACAD
1000
DSTYLE
1002
{
1070
144
1040
1.0
1070
40
1040
1.0
1002
}
  0
DIMENSION
  5
D0
100
AcDbEntity
  8
Medidas Horizontal
 62
256
370
-1
 48
1.0
  6
BYLAYER
100
AcDbDimension
 10
0.0
 20
-80.0
 30
0.0
 11
-8.4625000000000004
 21
-78.125
 31
0.0
 70
0
 71
8
 72
2
 74
0
 75
0
 41
1.0
 42
0.0
  1

  3
Standard
100
AcDbAlignedDimension
 13
-0.0000000000000002
 23
-20.5
 33
0.0
 14
-16.9250000000000007
 24
-29.6000000000000014
 34
0.0
 50
0.0
100
AcDbRotatedDimension
1001
ACAD
1000
DSTYLE
1002
{
1070
144
1040
1.0
1070
40
1040
1.0
1002
}
  0
DIMENSION
  5
D1
100
AcDbEntity
  8
Medidas Horizontal
 62
256
370
-1
 48
1.0
  6
BYLAYER
100
AcDbDimension
 10
0.0
 20
-85.0
 30
0.0
 11
-17.125
 21
-83.125
 31
0.0
 70
0
 71
8
 72
2
 74
0
 75
0
 41
1.0
 42
0.0
  1

  3
Standard
100
AcDbAlignedDimension
 13
-0.0000000000000002
 23
-20.5
 33
0.0
 14
-34.25
 24
-39.1000000000000014
 34
0.0
 50
0.0
100
AcDbRotatedDimension
1001
ACAD
1000
DSTYLE
1002
{
1070
144
1040
1.0
1070
40
1040
1.0
1002
}
  0
DIMENSION
  5
D2
100
AcDbEntity
  8
Medidas Horizontal
 62
256
370
-1
 48
1.0
  6
BYLAYER
100
AcDbDimension
 10
0.0
 20
37.6593052107242414
 30
0.0
 11
-8.2749999999999986
 21
39.5343052107242414
 31
0.0
 70
0
 71
8
 72
2
 74
0
 75
0
 41
1.0
 42
0.0
  1

  3
Standard
100
AcDbAlignedDimension
 13
0.0
 23
0.0
 33
0.0
 14
-16.5499999999999972
 24
-4.0
 34
0.0
 50
0.0
100
AcDbRotatedDimension
1001
ACAD
1000
DSTYLE
1002
{
1070
144
1040
1.0
1070
40
1040
1.0
1002
}
  0
DIMENSION
  5
D3
100
AcDbEntity
  8
Medidas Horizontal
 62
256
370
-1
 48
1.0
  6
BYLAYER
100
AcDbDimension
 10
0.0
 20
42.226971877390902
 30
0.0
 11
-13.2749999999999986
 21
44.101971877390902
 31
0.0
 70
0
 71
8
 72
2
 74
0
 75
0
 41
1.0
 42
0.0
  1

  3
Standard
100
AcDbAlignedDimension
 13
0.0
 23
0.0
 33
0.0
 14
-26.5499999999999972
 24
0.25
 34
0.0
 50
0.0
100
AcDbRotatedDimension
1001
ACAD
1000
DSTYLE
1002
{
1070
144
1040
1.0
1070
40
1040
1.0
1002
}
  0
DIMENSION
  5
D4
100
AcDbEntity
  8
Medidas Horizontal
 62
256
370
-1
 48
1.0
  6
BYLAYER
100
AcDbDimension
 10
0.0
 20
48.7560459514649622
 30
0.0
 11
-16.4875000000000007
 21
50.6310459514649622
 31
0.0
 70
0
 71
8
 72
2
 74
0
 75
0
 41
1.0
 42
0.0
  1

  3
Standard
100
AcDbAlignedDimension
 13
0.0
 23
0.0
 33
0.0
 14
-32.9750000000000014
 24
20.3500000000000014
 34
0.0
 50
0.0
100
AcDbRotatedDimension
1001
ACAD
1000
DSTYLE
1002
{
1070
144
1040
1.0
1070
40
1040
1.0
1002
}
  0
CIRCLE
  5
D5
100
AcDbEntity
  8
Back
 62
256
370
-1
 48
1.0
  6
BYLAYER
100
AcDbCircle
 10
30.75
 20
83.2999999999999972
 30
0.0
 40
1.6000000000000001
  0
CIRCLE
  5
D6
100
AcDbEntity
  8
Back
 62
256
370
-1
 48
1.0
  6
BYLAYER
100
AcDbCircle
 10
-32.25
 20
83.2999999999999972
 30
0.0
 40
1.6000000000000001
  0
LINE
  5
D7
100
AcDbEntity
  8
Back
 62
256
370
-1
 48
1.0
  6
BYLAYER
100
AcDbLine
 10
27.6499999999999986
 20
86.5999999999999943
 30
0.0
 11
33.8500000000000014
 21
86.5999999999999943
 31
0.0
  0
CIRCLE
  5
D8
100
AcDbEntity
  8
Back
 62
256
370
-1
 48
1.0
  6
BYLAYER
100
AcDbCircle
 10
0.0
 20
80.0
 30
0.0
 40
1.0
  0
LINE
  5
D9
100
AcDbEntity
  8
Back
 62
256
370
-1
 48
1.0
  6
BYLAYER
100
AcDbLine
 10
0.0
 20
82.0
 30
0.0
 11
0.0
 21
78.0
 31
0.0
  0
LINE
  5
DA
100
AcDbEntity
  8
Back
 62
256
370
-1
 48
1.0
  6
BYLAYER
100
AcDbLine
 10
3.3500000000000001
 20
81.0
 30
0.0
 11
3.3500000000000001
 21
87.7000000000000028
 31
0.0
  0
LINE
  5
DB
100
AcDbEntity
  8
Back
 62
256
370
-1
 48
1.0
  6
BYLAYER
100
AcDbLine
 10
15.6500000000000004
 20
81.0
 30
0.0
 11
15.6500000000000004
 21
87.7000000000000028
 31
0.0
  0
LINE
  5
DC
100
AcDbEntity
  8
Back
 62
256
370
-1
 48
1.0
  6
BYLAYER
100
AcDbLine
 10
3.3500000000000001
 20
87.7000000000000028
 30
0.0
 11
15.6500000000000004
 21
87.7000000000000028
 31
0.0
  0
LINE
  5
DD
100
AcDbEntity
  8
Back
 62
256
370
-1
 48
1.0
  6
BYLAYER
100
AcDbLine
 10
3.3500000000000001
 20
81.0
 30
0.0
 11
15.6500000000000004
 21
81.0
 31
0.0
  0
LINE
  5
DE
100
AcDbEntity
  8
Back
 62
256
370
-1
 48
1.0
  6
BYLAYER
100
AcDbLine
 10
8.0
 20
89.0
 30
0.0
 11
11.0
 21
89.0
 31
0.0
  0
LINE
  5
DF
100
AcDbEntity
  8
Back
 62
256
370
-1
 48
1.0
  6
BYLAYER
100
AcDbLine
 10
11.0
 20
89.0
 30
0.0
 11
12.0
 21
88.0
 31
0.0
  0
LINE
  5
E0
100
AcDbEntity
  8
Back
 62
256
370
-1
 48
1.0
  6
BYLAYER
100
AcDbLine
 10
8.0
 20
89.0
 30
0.0
 11
7.0
 21
88.0
 31
0.0
  0
LINE
  5
E1
100
AcDbEntity
  8
Back
 62
256
370
-1
 48
1.0
  6
BYLAYER
100
AcDbLine
 10
-3.3500000000000001
 20
81.0
 30
0.0
 11
-3.3500000000000001
 21
88.2000000000000028
 31
0.0
  0
LINE
  5
E2
100
AcDbEntity
  8
Back
 62
256
370
-1
 48
1.0
  6
BYLAYER
100
AcDbLine
 10
-13.3499999999999996
 20
81.0
 30
0.0
 11
-13.3499999999999996
 21
88.2000000000000028
 31
0.0
  0
LINE
  5
E3
100
AcDbEntity
  8
Back
 62
256
370
-1
 48
1.0
  6
BYLAYER
100
AcDbLine
 10
-13.3499999999999996
 20
81.0
 30
0.0
 11
-3.3500000000000001
 21
81.0
 31
0.0
  0
LINE
  5
E4
100
AcDbEntity
  8
Back
 62
256
370
-1
 48
1.0
  6
BYLAYER
100
AcDbLine
 10
-3.3500000000000001
 20
88.2000000000000028
 30
0.0
 11
-13.3499999999999996
 21
88.2000000000000028
 31
0.0
  0
LINE
  5
E5
100
AcDbEntity
  8
Back
 62
256
370
-1
 48
1.0
  6
BYLAYER
100
AcDbLine
 10
-4.0
 20
87.0
 30
0.0
 11
-7.0
 21
87.0
 31
0.0
  0
LINE
  5
E6
100
AcDbEntity
  8
Back
 62
256
370
-1
 48
1.0
  6
BYLAYER
100
AcDbLine
 10
-13.0
 20
87.0
 30
0.0
 11
-10.0
 21
87.0
 31
0.0
  0
LINE
  5
E7
100
AcDbEntity
  8
Back
 62
256
370
-1
 48
1.0
  6
BYLAYER
100
AcDbLine
 10
-10.0
 20
87.0
 30
0.0
 11
-9.0
 21
88.0
 31
0.0
  0
LINE
  5
E8
100
AcDbEntity
  8
Back
 62
256
370
-1
 48
1.0
  6
BYLAYER
100
AcDbLine
 10
-9.0
 20
88.0
 30
0.0
 11
-8.0
 21
88.0
 31
0.0
  0
LINE
  5
E9
100
AcDbEntity
  8
Back
 62
256
370
-1
 48
1.0
  6
BYLAYER
100
AcDbLine
 10
-8.0
 20
88.0
 30
0.0
 11
-7.0
 21
87.0
 31
0.0
  0
LINE
  5
EA
100
AcDbEntity
  8
Back
 62
256
370
-1
 48
1.0
  6
BYLAYER
100
AcDbLine
 10
37.0
 20
80.0
 30
0.0
 11
37.0
 21
79.2000000000000028
 31
0.0
  0
LINE
  5
EB
100
AcDbEntity
  8
Back
 62
256
370
-1
 48
1.0
  6
BYLAYER
100
AcDbLine
 10
-37.7000000000000028
 20
80.0
 30
0.0
 11
-37.7000000000000028
 21
79.2000000000000028
 31
0.0
  0
LINE
  5
EC
100
AcDbEntity
  8
Back
 62
256
370
-1
 48
1.0
  6
BYLAYER
100
AcDbLine
 10
33.8500000000000014
 20
86.5999999999999943
 30
0.0
 11
33.8500000000000014
 21
80.0
 31
0.0
  0
LINE
  5
ED
100
AcDbEntity
  8
Back
 62
256
370
-1
 48
1.0
  6
BYLAYER
100
AcDbLine
 10
27.6499999999999986
 20
86.5999999999999943
 30
0.0
 11
27.6499999999999986
 21
80.0
 31
0.0
  0
LINE
  5
EE
100
AcDbEntity
  8
Back
 62
256
370
-1
 48
1.0
  6
BYLAYER
100
AcDbLine
 10
-35.3500000000000014
 20
86.5999999999999943
 30
0.0
 11
-29.1499999999999986
 21
86.5999999999999943
 31
0.0
  0
LINE
  5
EF
100
AcDbEntity
  8
Back
 62
256
370
-1
 48
1.0
  6
BYLAYER
100
AcDbLine
 10
-29.1499999999999986
 20
86.5999999999999943
 30
0.0
 11
-29.1499999999999986
 21
80.0
 31
0.0
  0
LINE
  5
F0
100
AcDbEntity
  8
Back
 62
256
370
-1
 48
1.0
  6
BYLAYER
100
AcDbLine
 10
-35.3500000000000014
 20
86.5999999999999943
 30
0.0
 11
-35.3500000000000014
 21
80.0
 31
0.0
  0
DIMENSION
  5
F1
100
AcDbEntity
  8
Medidas Horizontal
 62
256
370
-1
 48
1.0
  6
BYLAYER
100
AcDbDimension
 10
0.0
 20
98.0
 30
0.0
 11
6.8916666666666657
 21
99.875
 31
0.0
 70
0
 71
8
 72
2
 74
0
 75
0
 41
1.0
 42
0.0
  1

  3
Standard
100
AcDbAlignedDimension
 13
-0.0
 23
80.0
 33
0.0
 14
3.3500000000000001
 24
81.0
 34
0.0
 50
0.0
100
AcDbRotatedDimension
1001
ACAD
1000
DSTYLE
1002
{
1070
144
1040
1.0
1070
40
1040
1.0
1002
}
  0
DIMENSION
  5
F2
100
AcDbEntity
  8
Medidas Horizontal
 62
256
370
-1
 48
1.0
  6
BYLAYER
100
AcDbDimension
 10
0.0
 20
103.0
 30
0.0
 11
3.5416666666666661
 21
104.875
 31
0.0
 70
0
 71
8
 72
2
 74
0
 75
0
 41
1.0
 42
0.0
  1

  3
Standard
100
AcDbAlignedDimension
 13
-0.0
 23
80.0
 33
0.0
 14
-3.3500000000000001
 24
81.0
 34
0.0
 50
0.0
100
AcDbRotatedDimension
1001
ACAD
1000
DSTYLE
1002
{
1070
144
1040
1.0
1070
40
1040
1.0
1002
}
  0
DIMENSION
  5
F3
100
AcDbEntity
  8
Medidas Horizontal
 62
256
370
-1
 48
1.0
  6
BYLAYER
100
AcDbDimension
 10
15.6500000000000004
 20
71.0
 30
0.0
 11
9.5
 21
72.875
 31
0.0
 70
0
 71
8
 72
2
 74
0
 75
0
 41
1.0
 42
0.0
  1

  3
Standard
100
AcDbAlignedDimension
 13
15.6500000000000004
 23
81.0
 33
0.0
 14
3.3500000000000001
 24
81.0
 34
0.0
 50
0.0
100
AcDbRotatedDimension
1001
ACAD
1000
DSTYLE
1002
{
1070
144
1040
1.0
1070
40
1040
1.0
1002
}
  0
DIMENSION
  5
F4
100
AcDbEntity
  8
Medidas Horizontal
 62
256
370
-1
 48
1.0
  6
BYLAYER
100
AcDbDimension
 10
15.6500000000000004
 20
94.0
 30
0.0
 11
21.6499999999999986
 21
95.875
 31
0.0
 70
0
 71
8
 72
2
 74
0
 75
0
 41
1.0
 42
0.0
  1

  3
Standard
100
AcDbAlignedDimension
 13
15.6500000000000004
 23
87.7000000000000028
 33
0.0
 14
27.6499999999999986
 24
86.5999999999999943
 34
0.0
 50
0.0
100
AcDbRotatedDimension
1001
ACAD
1000
DSTYLE
1002
{
1070
144
1040
1.0
1070
40
1040
1.0
1002
}
  0
DIMENSION
  5
F5
100
AcDbEntity
  8
Medidas Horizontal
 62
256
370
-1
 48
1.0
  6
BYLAYER
100
AcDbDimension
 10
33.8500000000000085
 20
100.0
 30
0.0
 11
30.7500000000000036
 21
101.875
 31
0.0
 70
0
 71
8
 72
2
 74
0
 75
0
 41
1.0
 42
0.0
  1

  3
Standard
100
AcDbAlignedDimension
 13
33.8500000000000085
 23
86.5999999999999943
 33
0.0
 14
27.6499999999999986
 24
86.5999999999999943
 34
0.0
 50
0.0
100
AcDbRotatedDimension
1001
ACAD
1000
DSTYLE
1002
{
1070
144
1040
1.0
1070
40
1040
1.0
1002
}
  0
DIMENSION
  5
F6
100
AcDbEntity
  8
Medidas Horizontal
 62
256
370
-1
 48
1.0
  6
BYLAYER
100
AcDbDimension
 10
30.75
 20
74.0
 30
0.0
 11
36.1416666666666657
 21
75.875
 31
0.0
 70
0
 71
8
 72
2
 74
0
 75
0
 41
1.0
 42
0.0
  1

  3
Standard
100
AcDbAlignedDimension
 13
30.75
 23
83.2999999999999972
 33
0.0
 14
33.8500000000000014
 24
83.2999999999999972
 34
0.0
 50
0.0
100
AcDbRotatedDimension
1001
ACAD
1000
DSTYLE
1002
{
1070
144
1040
1.0
1070
40
1040
1.0
1002
}
  0
DIMENSION
  5
F7
100
AcDbEntity
  8
Medidas Horizontal
 62
256
370
-1
 48
1.0
  6
BYLAYER
100
AcDbDimension
 10
-3.3499999999999996
 20
74.0
 30
0.0
 11
-8.3499999999999996
 21
75.875
 31
0.0
 70
0
 71
8
 72
2
 74
0
 75
0
 41
1.0
 42
0.0
  1

  3
Standard
100
AcDbAlignedDimension
 13
-3.3500000000000001
 23
81.0
 33
0.0
 14
-13.3499999999999979
 24
81.0
 34
0.0
 50
0.0
100
AcDbRotatedDimension
1001
ACAD
1000
DSTYLE
1002
{
1070
144
1040
1.0
1070
40
1040
1.0
1002
}
  0
DIMENSION
  5
F8
100
AcDbEntity
  8
Medidas Horizontal
 62
256
370
-1
 48
1.0
  6
BYLAYER
100
AcDbDimension
 10
-32.25
 20
73.0
 30
0.0
 11
-29.9583333333333286
 21
74.875
 31
0.0
 70
0
 71
8
 72
2
 74
0
 75
0
 41
1.0
 42
0.0
  1

  3
Standard
100
AcDbAlignedDimension
 13
-32.25
 23
83.2999999999999972
 33
0.0
 14
-35.3500000000000014
 24
83.2999999999999972
 34
0.0
 50
0.0
100
AcDbRotatedDimension
1001
ACAD
1000
DSTYLE
1002
{
1070
144
1040
1.0
1070
40
1040
1.0
1002
}
  0
DIMENSION
  5
F9
100
AcDbEntity
  8
Medidas Horizontal
 62
256
370
-1
 48
1.0
  6
BYLAYER
100
AcDbDimension
 10
-37.7000000000000028
 20
93.0
 30
0.0
 11
-31.8083333333333371
 21
94.875
 31
0.0
 70
0
 71
8
 72
2
 74
0
 75
0
 41
1.0
 42
0.0
  1

  3
Standard
100
AcDbAlignedDimension
 13
-37.7000000000000028
 23
80.0
 33
0.0
 14
-35.3500000000000014
 24
86.5999999999999943
 34
0.0
 50
0.0
100
AcDbRotatedDimension
1001
ACAD
1000
DSTYLE
1002
{
1070
144
1040
1.0
1070
40
1040
1.0
1002
}
  0
DIMENSION
  5
FA
100
AcDbEntity
  8
Medidas Horizontal
 62
256
370
-1
 48
1.0
  6
BYLAYER
100
AcDbDimension
 10
-35.3500000000000014
 20
100.0
 30
0.0
 11
-32.25
 21
101.875
 31
0.0
 70
0
 71
8
 72
2
 74
0
 75
0
 41
1.0
 42
0.0
  1

  3
Standard
100
AcDbAlignedDimension
 13
-35.3500000000000014
 23
86.5999999999999943
 33
0.0
 14
-29.1499999999999986
 24
86.5999999999999943
 34
0.0
 50
0.0
100
AcDbRotatedDimension
1001
ACAD
1000
DSTYLE
1002
{
1070
144
1040
1.0
1070
40
1040
1.0
1002
}
  0
DIMENSION
  5
FB
100
AcDbEntity
  8
Medidas Horizontal
 62
256
370
-1
 48
1.0
  6
BYLAYER
100
AcDbDimension
 10
-29.1499999999999986
 20
93.0
 30
0.0
 11
-21.25
 21
94.875
 31
0.0
 70
0
 71
8
 72
2
 74
0
 75
0
 41
1.0
 42
0.0
  1

  3
Standard
100
AcDbAlignedDimension
 13
-29.1499999999999986
 23
86.5999999999999943
 33
0.0
 14
-13.3499999999999979
 24
88.2000000000000028
 34
0.0
 50
0.0
100
AcDbRotatedDimension
1001
ACAD
1000
DSTYLE
1002
{
1070
144
1040
1.0
1070
40
1040
1.0
1002
}
  0
DIMENSION
  5
FC
100
AcDbEntity
  8
Medidas Vertical
 62
256
370
-1
 48
1.0
  6
BYLAYER
100
AcDbDimension
 10
-43.0
 20
83.2999999999999972
 30
0.0
 11
-44.875
 21
85.8694444444444542
 31
0.0
 70
0
 71
8
 72
2
 74
0
 75
0
 41
1.0
 42
0.0
  1

  3
Standard
100
AcDbAlignedDimension
 13
-32.25
 23
83.2999999999999972
 33
0.0
 14
-37.7000000000000028
 24
80.0
 34
0.0
 50
90.0
100
AcDbRotatedDimension
1001
ACAD
1000
DSTYLE
1002
{
1070
144
1040
1.0
1070
40
1040
1.0
1002
}
  0
DIMENSION
  5
FD
100
AcDbEntity
  8
Medidas Vertical
 62
256
370
-1
 48
1.0
  6
BYLAYER
100
AcDbDimension
 10
-23.0
 20
86.5999999999999943
 30
0.0
 11
-24.875
 21
83.2999999999999972
 31
0.0
 70
0
 71
8
 72
2
 74
0
 75
0
 41
1.0
 42
0.0
  1

  3
Standard
100
AcDbAlignedDimension
 13
-35.3500000000000014
 23
86.5999999999999943
 33
0.0
 14
-37.7000000000000028
 24
80.0
 34
0.0
 50
90.0
100
AcDbRotatedDimension
1001
ACAD
1000
DSTYLE
1002
{
1070
144
1040
1.0
1070
40
1040
1.0
1002
}
  0
DIMENSION
  5
FE
100
AcDbEntity
  8
Medidas Vertical
 62
256
370
-1
 48
1.0
  6
BYLAYER
100
AcDbDimension
 10
-17.5044950401701698
 20
81.0
 30
0.0
 11
-19.5939072629639242
 21
82.3250516908543801
 31
0.0
 70
128
 71
8
 72
2
 74
0
 75
0
 41
1.0
 42
0.0
  1

  3
Standard
100
AcDbAlignedDimension
 13
-13.3499999999999979
 23
81.0
 33
0.0
 14
-13.3499999999999979
 24
80.0
 34
0.0
 50
90.0
100
AcDbRotatedDimension
1001
ACAD
1000
DSTYLE
1002
{
1070
279
1070
2
1070
144
1040
1.0
1070
40
1040
1.0
1002
}
  0
DIMENSION
  5
FF
100
AcDbEntity
  8
Medidas Vertical
 62
256
370
-1
 48
1.0
  6
BYLAYER
100
AcDbDimension
 10
48.0
 20
80.0
 30
0.0
 11
46.125
 21
82.5694244905192107
 31
0.0
 70
0
 71
8
 72
2
 74
0
 75
0
 41
1.0
 42
0.0
  1

  3
Standard
100
AcDbAlignedDimension
 13
38.0
 23
80.0
 33
0.0
 14
38.0
 24
79.2000000000000028
 34
0.0
 50
90.0
100
AcDbRotatedDimension
1001
ACAD
1000
DSTYLE
1002
{
1070
144
1040
1.0
1070
40
1040
1.0
1002
}
  0
DIMENSION
  5
100
100
AcDbEntity
  8
Medidas Vertical
 62
256
370
-1
 48
1.0
  6
BYLAYER
100
AcDbDimension
 10
0.9999999999999996
 20
88.2000000000000028
 30
0.0
 11
-0.8750000000000009
 21
84.5999999999999943
 31
0.0
 70
0
 71
8
 72
2
 74
0
 75
0
 41
1.0
 42
0.0
  1

  3
Standard
100
AcDbAlignedDimension
 13
-3.3500000000000001
 23
88.2000000000000028
 33
0.0
 14
-3.3500000000000001
 24
81.0
 34
0.0
 50
90.0
100
AcDbRotatedDimension
1001
ACAD
1000
DSTYLE
1002
{
1070
144
1040
1.0
1070
40
1040
1.0
1002
}
  0
DIMENSION
  5
101
100
AcDbEntity
  8
Medidas Vertical
 62
256
370
-1
 48
1.0
  6
BYLAYER
100
AcDbDimension
 10
21.0
 20
88.0
 30
0.0
 11
19.125
 21
84.5
 31
0.0
 70
0
 71
8
 72
2
 74
0
 75
0
 41
1.0
 42
0.0
  1

  3
Standard
100
AcDbAlignedDimension
 13
14.0
 23
88.0
 33
0.0
 14
13.9999999999999982
 24
81.0
 34
0.0
 50
90.0
100
AcDbRotatedDimension
1001
ACAD
1000
DSTYLE
1002
{
1070
144
1040
1.0
1070
40
1040
1.0
1002
}
  0
DIMENSION
  5
102
100
AcDbEntity
  8
Medidas Vertical
 62
256
370
-1
 48
1.0
  6
BYLAYER
100
AcDbDimension
 10
39.0
 20
86.5999999999999943
 30
0.0
 11
37.125
 21
83.2999999999999972
 31
0.0
 70
0
 71
8
 72
2
 74
0
 75
0
 41
1.0
 42
0.0
  1

  3
Standard
100
AcDbAlignedDimension
 13
33.8500000000000085
 23
86.5999999999999943
 33
0.0
 14
33.8500000000000085
 24
80.0
 34
0.0
 50
90.0
100
AcDbRotatedDimension
1001
ACAD
1000
DSTYLE
1002
{
1070
144
1040
1.0
1070
40
1040
1.0
1002
}
  0
CIRCLE
  5
103
100
AcDbEntity
  8
PAD
 62
256
370
-1
 48
1.0
  6
BYLAYER
100
AcDbCircle
 10
151.5
 20
-10.0499999999999989
 30
0.0
 40
1.25
  0
CIRCLE
  5
104
100
AcDbEntity
  8
PAD
 62
256
370
-1
 48
1.0
  6
BYLAYER
100
AcDbCircle
 10
337.6797629472746394
 20
109.367197809820226
 30
0.0
 40
1.25
  0
CIRCLE
  5
105
100
AcDbEntity
  8
PCB
 62
256
370
-1
 48
1.0
  6
HIDDEN
100
AcDbCircle
 10
150.0
 20
-20.6000000000000014
 30
0.0
 40
7.9500000000000002
  0
CIRCLE
  5
106
100
AcDbEntity
  8
PCB
 62
256
370
-1
 48
1.0
  6
HIDDEN
100
AcDbCircle
 10
336.1797629472746394
 20
98.8171978098202288
 30
0.0
 40
7.9500000000000002
  0
CIRCLE
  5
107
100
AcDbEntity
  8
PAD
 62
256
370
-1
 48
1.0
  6
BYLAYER
100
AcDbCircle
 10
148.5
 20
-10.0499999999999989
 30
0.0
 40
1.25
  0
CIRCLE
  5
108
100
AcDbEntity
  8
PAD
 62
256
370
-1
 48
1.0
  6
BYLAYER
100
AcDbCircle
 10
334.6797629472746394
 20
109.367197809820226
 30
0.0
 40
1.25
  0
LINE
  5
109
100
AcDbEntity
  8
Origins
 62
256
370
-1
 48
1.0
  6
BYLAYER
100
AcDbLine
 10
163.8499999999999943
 20
-3.2400000000000002
 30
0.0
 11
163.8499999999999943
 21
-1.2400000000000002
 31
0.0
  0
LINE
  5
10A
100
AcDbEntity
  8
Origins
 62
256
370
-1
 48
1.0
  6
BYLAYER
100
AcDbLine
 10
133.4499999999999886
 20
-5.1000000000000014
 30
0.0
 11
133.4499999999999886
 21
-3.1000000000000014
 31
0.0
  0
LINE
  5
10B
100
AcDbEntity
  8
Origins
 62
256
370
-1
 48
1.0
  6
BYLAYER
100
AcDbLine
 10
123.4500000000000028
 20
-0.8500000000000014
 30
0.0
 11
123.4500000000000028
 21
1.1499999999999986
 31
0.0
  0
LINE
  5
10C
100
AcDbEntity
  8
Origins
 62
256
370
-1
 48
1.0
  6
BYLAYER
100
AcDbLine
 10
350.0297629472746621
 20
116.1771978098202283
 30
0.0
 11
350.0297629472746621
 21
118.1771978098202283
 31
0.0
  0
LINE
  5
10D
100
AcDbEntity
  8
Origins
 62
256
370
-1
 48
1.0
  6
BYLAYER
100
AcDbLine
 10
319.6297629472746848
 20
114.3171978098202288
 30
0.0
 11
319.6297629472746848
 21
116.3171978098202288
 31
0.0
  0
LINE
  5
10E
100
AcDbEntity
  8
Origins
 62
256
370
-1
 48
1.0
  6
BYLAYER
100
AcDbLine
 10
309.6297629472746848
 20
118.5671978098202288
 30
0.0
 11
309.6297629472746848
 21
120.5671978098202288
 31
0.0
  0
LINE
  5
10F
100
AcDbEntity
  8
Origins
 62
256
370
-1
 48
1.0
  6
BYLAYER
100
AcDbLine
 10
164.8499999999999943
 20
-2.240000000000002
 30
0.0
 11
162.8499999999999943
 21
-2.240000000000002
 31
0.0
  0
LINE
  5
110
100
AcDbEntity
  8
Origins
 62
256
370
-1
 48
1.0
  6
BYLAYER
100
AcDbLine
 10
134.4499999999999886
 20
-4.1000000000000032
 30
0.0
 11
132.4499999999999886
 21
-4.1000000000000032
 31
0.0
  0
LINE
  5
111
100
AcDbEntity
  8
Origins
 62
256
370
-1
 48
1.0
  6
BYLAYER
100
AcDbLine
 10
124.4500000000000028
 20
0.1499999999999968
 30
0.0
 11
122.4500000000000028
 21
0.1499999999999968
 31
0.0
  0
LINE
  5
112
100
AcDbEntity
  8
Origins
 62
256
370
-1
 48
1.0
  6
BYLAYER
100
AcDbLine
 10
351.0297629472746621
 20
117.1771978098202283
 30
0.0
 11
349.0297629472746621
 21
117.1771978098202283
 31
0.0
  0
LINE
  5
113
100
AcDbEntity
  8
Origins
 62
256
370
-1
 48
1.0
  6
BYLAYER
100
AcDbLine
 10
320.6297629472746848
 20
115.3171978098202288
 30
0.0
 11
318.6297629472746848
 21
115.3171978098202288
 31
0.0
  0
LINE
  5
114
100
AcDbEntity
  8
Origins
 62
256
370
-1
 48
1.0
  6
BYLAYER
100
AcDbLine
 10
310.6297629472746848
 20
119.5671978098202288
 30
0.0
 11
308.6297629472746848
 21
119.5671978098202288
 31
0.0
  0
LINE
  5
115
100
AcDbEntity
  8
Origins
 62
256
370
-1
 48
1.0
  6
BYLAYER
100
AcDbLine
 10
177.3499999999999943
 20
-3.2400000000000002
 30
0.0
 11
177.3499999999999943
 21
-1.2400000000000002
 31
0.0
  0
LINE
  5
116
100
AcDbEntity
  8
Origins
 62
256
370
-1
 48
1.0
  6
BYLAYER
100
AcDbLine
 10
363.5297629472746621
 20
116.1771978098202283
 30
0.0
 11
363.5297629472746621
 21
118.1771978098202283
 31
0.0
  0
LINE
  5
117
100
AcDbEntity
  8
Origins
 62
256
370
-1
 48
1.0
  6
BYLAYER
100
AcDbLine
 10
176.3499999999999943
 20
-2.240000000000002
 30
0.0
 11
178.3499999999999943
 21
-2.240000000000002
 31
0.0
  0
LINE
  5
118
100
AcDbEntity
  8
Origins
 62
256
370
-1
 48
1.0
  6
BYLAYER
100
AcDbLine
 10
362.5297629472746621
 20
117.1771978098202283
 30
0.0
 11
364.5297629472746621
 21
117.1771978098202283
 31
0.0
  0
LINE
  5
119
100
AcDbEntity
  8
Origins
 62
256
370
-1
 48
1.0
  6
BYLAYER
100
AcDbLine
 10
169.5999999999999943
 20
4.6600000000000001
 30
0.0
 11
171.5999999999999943
 21
4.6600000000000001
 31
0.0
  0
LINE
  5
11A
100
AcDbEntity
  8
Origins
 62
256
370
-1
 48
1.0
  6
BYLAYER
100
AcDbLine
 10
355.7797629472746621
 20
124.0771978098202339
 30
0.0
 11
357.7797629472746621
 21
124.0771978098202339
 31
0.0
  0
LINE
  5
11B
100
AcDbEntity
  8
Origins
 62
256
370
-1
 48
1.0
  6
BYLAYER
100
AcDbLine
 10
170.5999999999999943
 20
3.6600000000000001
 30
0.0
 11
170.5999999999999943
 21
5.6600000000000001
 31
0.0
  0
LINE
  5
11C
100
AcDbEntity
  8
Origins
 62
256
370
-1
 48
1.0
  6
BYLAYER
100
AcDbLine
 10
356.7797629472746621
 20
123.0771978098202339
 30
0.0
 11
356.7797629472746621
 21
125.0771978098202339
 31
0.0
  0
LINE
  5
11D
100
AcDbEntity
  8
Origins
 62
256
370
-1
 48
1.0
  6
BYLAYER
100
AcDbLine
 10
169.5999999999999943
 20
-9.1400000000000006
 30
0.0
 11
171.5999999999999943
 21
-9.1400000000000006
 31
0.0
  0
LINE
  5
11E
100
AcDbEntity
  8
Origins
 62
256
370
-1
 48
1.0
  6
BYLAYER
100
AcDbLine
 10
355.7797629472746621
 20
110.2771978098202226
 30
0.0
 11
357.7797629472746621
 21
110.2771978098202226
 31
0.0
  0
LINE
  5
11F
100
AcDbEntity
  8
Origins
 62
256
370
-1
 48
1.0
  6
BYLAYER
100
AcDbLine
 10
170.5999999999999659
 20
-8.1400000000000006
 30
0.0
 11
170.5999999999999659
 21
-10.1400000000000006
 31
0.0
  0
LINE
  5
120
100
AcDbEntity
  8
Origins
 62
256
370
-1
 48
1.0
  6
BYLAYER
100
AcDbLine
 10
356.7797629472746621
 20
111.2771978098202226
 30
0.0
 11
356.7797629472746621
 21
109.2771978098202226
 31
0.0
  0
LINE
  5
121
100
AcDbEntity
  8
Origins
 62
256
370
-1
 48
1.0
  6
BYLAYER
100
AcDbLine
 10
150.0
 20
-21.6000000000000014
 30
0.0
 11
150.0
 21
-19.6000000000000014
 31
0.0
  0
LINE
  5
122
100
AcDbEntity
  8
Origins
 62
256
370
-1
 48
1.0
  6
BYLAYER
100
AcDbLine
 10
143.0250000000000057
 20
-39.7100000000000009
 30
0.0
 11
143.0250000000000057
 21
-37.7100000000000009
 31
0.0
  0
LINE
  5
123
100
AcDbEntity
  8
Origins
 62
256
370
-1
 48
1.0
  6
BYLAYER
100
AcDbLine
 10
156.9749999999999943
 20
-39.7100000000000009
 30
0.0
 11
156.9749999999999943
 21
-37.7100000000000009
 31
0.0
  0
LINE
  5
124
100
AcDbEntity
  8
Origins
 62
256
370
-1
 48
1.0
  6
BYLAYER
100
AcDbLine
 10
150.0
 20
14.5
 30
0.0
 11
150.0
 21
16.5
 31
0.0
  0
LINE
  5
125
100
AcDbEntity
  8
Origins
 62
256
370
-1
 48
1.0
  6
BYLAYER
100
AcDbLine
 10
336.1797629472746394
 20
97.8171978098202288
 30
0.0
 11
336.1797629472746394
 21
99.8171978098202288
 31
0.0
  0
LINE
  5
126
100
AcDbEntity
  8
Origins
 62
256
370
-1
 48
1.0
  6
BYLAYER
100
AcDbLine
 10
329.2047629472746735
 20
79.7071978098202294
 30
0.0
 11
329.2047629472746735
 21
81.7071978098202294
 31
0.0
  0
LINE
  5
127
100
AcDbEntity
  8
Origins
 62
256
370
-1
 48
1.0
  6
BYLAYER
100
AcDbLine
 10
343.1547629472746621
 20
79.7071978098202294
 30
0.0
 11
343.1547629472746621
 21
81.7071978098202294
 31
0.0
  0
LINE
  5
128
100
AcDbEntity
  8
Origins
 62
256
370
-1
 48
1.0
  6
BYLAYER
100
AcDbLine
 10
336.1797629472746394
 20
133.9171978098202374
 30
0.0
 11
336.1797629472746394
 21
135.9171978098202374
 31
0.0
  0
LINE
  5
129
100
AcDbEntity
  8
Origins
 62
256
370
-1
 48
1.0
  6
BYLAYER
100
AcDbLine
 10
149.0
 20
-20.6000000000000014
 30
0.0
 11
151.0
 21
-20.6000000000000014
 31
0.0
  0
LINE
  5
12A
100
AcDbEntity
  8
Origins
 62
256
370
-1
 48
1.0
  6
BYLAYER
100
AcDbLine
 10
142.0250000000000057
 20
-38.7100000000000009
 30
0.0
 11
144.0250000000000057
 21
-38.7100000000000009
 31
0.0
  0
LINE
  5
12B
100
AcDbEntity
  8
Origins
 62
256
370
-1
 48
1.0
  6
BYLAYER
100
AcDbLine
 10
155.9749999999999943
 20
-38.7100000000000009
 30
0.0
 11
157.9749999999999943
 21
-38.7100000000000009
 31
0.0
  0
LINE
  5
12C
100
AcDbEntity
  8
Origins
 62
256
370
-1
 48
1.0
  6
BYLAYER
100
AcDbLine
 10
149.0
 20
15.5
 30
0.0
 11
151.0
 21
15.5
 31
0.0
  0
LINE
  5
12D
100
AcDbEntity
  8
Origins
 62
256
370
-1
 48
1.0
  6
BYLAYER
100
AcDbLine
 10
335.1797629472746394
 20
98.8171978098202288
 30
0.0
 11
337.1797629472746394
 21
98.8171978098202288
 31
0.0
  0
LINE
  5
12E
100
AcDbEntity
  8
Origins
 62
256
370
-1
 48
1.0
  6
BYLAYER
100
AcDbLine
 10
328.2047629472746735
 20
80.7071978098202294
 30
0.0
 11
330.2047629472746735
 21
80.7071978098202294
 31
0.0
  0
LINE
  5
12F
100
AcDbEntity
  8
Origins
 62
256
370
-1
 48
1.0
  6
BYLAYER
100
AcDbLine
 10
342.1547629472746621
 20
80.7071978098202294
 30
0.0
 11
344.1547629472746621
 21
80.7071978098202294
 31
0.0
  0
LINE
  5
130
100
AcDbEntity
  8
Origins
 62
256
370
-1
 48
1.0
  6
BYLAYER
100
AcDbLine
 10
335.1797629472746394
 20
134.9171978098202374
 30
0.0
 11
337.1797629472746394
 21
134.9171978098202374
 31
0.0
  0
MTEXT
  5
131
100
AcDbEntity
  8
PCB
 62
256
370
-1
 48
1.0
  6
BYLAYER
100
AcDbMText
 10
110.0
 20
38.0
 30
0.0
 40
3.0
 41
0.0
 71
1
 72
1
  1
PCB Bottom-view
  7
textstyle5
 50
0.0
 73
2
 44
1.0
  0
MTEXT
  5
132
100
AcDbEntity
  8
PCB
 62
256
370
-1
 48
1.0
  6
BYLAYER
100
AcDbMText
 10
296.1797629472746962
 20
157.4171978098202089
 30
0.0
 40
3.0
 41
0.0
 71
1
 72
1
  1
PCB Bottom-view
  7
textstyle1
 50
0.0
 73
2
 44
1.0
  0
MTEXT
  5
133
100
AcDbEntity
  8
PCB
 62
256
370
-1
 48
1.0
  6
BYLAYER
100
AcDbMText
 10
110.5565360819736327
 20
42.4636486265553685
 30
0.0
 40
2.0
 41
0.0
 71
1
 72
1
  1
L R Buttons have ~1mm travel distance\P
  7
textstyle4
 50
0.0
 73
2
 44
1.0
  0
MTEXT
  5
134
100
AcDbEntity
  8
PCB
 62
256
370
-1
 48
1.0
  6
BYLAYER
100
AcDbMText
 10
296.7362990292483005
 20
161.880846436375549
 30
0.0
 40
2.0
 41
0.0
 71
1
 72
1
  1
L R Buttons have ~1mm travel distance\P
  7
textstyle0
 50
0.0
 73
2
 44
1.0
  0
LINE
  5
135
100
AcDbEntity
  8
PCB
 62
256
370
-1
 48
1.0
  6
DOT2
100
AcDbLine
 10
184.7750000000000057
 20
20.25
 30
0.0
 11
187.7750000000000057
 21
20.25
 31
0.0
  0
LINE
  5
136
100
AcDbEntity
  8
PCB
 62
256
370
-1
 48
1.0
  6
DOT2
100
AcDbLine
 10
370.9547629472746735
 20
139.6671978098202374
 30
0.0
 11
373.9547629472746735
 21
139.6671978098202374
 31
0.0
  0
LINE
  5
137
100
AcDbEntity
  8
PCB
 62
256
370
-1
 48
1.0
  6
BYLAYER
100
AcDbLine
 10
187.7750000000000057
 20
-5.9499999999999993
 30
0.0
 11
187.7750000000000057
 21
29.0500000000000007
 31
0.0
  0
LINE
  5
138
100
AcDbEntity
  8
PCB
 62
256
370
-1
 48
1.0
  6
BYLAYER
100
AcDbLine
 10
373.9547629472746735
 20
113.4671978098202203
 30
0.0
 11
373.9547629472746735
 21
148.4671978098202203
 31
0.0
  0
LINE
  5
139
100
AcDbEntity
  8
PCB
 62
256
370
-1
 48
1.0
  6
BYLAYER
100
AcDbLine
 10
187.7750000000000057
 20
29.0500000000000007
 30
0.0
 11
166.7750000000000057
 21
29.0500000000000007
 31
0.0
  0
LINE
  5
13A
100
AcDbEntity
  8
PCB
 62
256
370
-1
 48
1.0
  6
BYLAYER
100
AcDbLine
 10
373.9547629472746735
 20
148.4671978098202203
 30
0.0
 11
352.9547629472746735
 21
148.4671978098202203
 31
0.0
  0
LINE
  5
13B
100
AcDbEntity
  8
Parts
 62
256
370
-1
 48
1.0
  6
BYLAYER
100
AcDbLine
 10
187.7750000000000057
 20
15.4500000000000011
 30
0.0
 11
182.2750000000000057
 21
15.4500000000000011
 31
0.0
  0
LINE
  5
13C
100
AcDbEntity
  8
Parts
 62
256
370
-1
 48
1.0
  6
BYLAYER
100
AcDbLine
 10
214.0
 20
15.5
 30
0.0
 11
208.5
 21
15.5
 31
0.0
  0
LINE
  5
13D
100
AcDbEntity
  8
Parts
 62
256
370
-1
 48
1.0
  6
BYLAYER
100
AcDbLine
 10
373.9547629472746735
 20
134.867197809820226
 30
0.0
 11
368.4547629472746735
 21
134.867197809820226
 31
0.0
  0
LINE
  5
13E
100
AcDbEntity
  8
Parts
 62
256
370
-1
 48
1.0
  6
BYLAYER
100
AcDbLine
 10
417.0
 20
139.0
 30
0.0
 11
411.5
 21
139.0
 31
0.0
  0
LINE
  5
13F
100
AcDbEntity
  8
Parts
 62
256
370
-1
 48
1.0
  6
BYLAYER
100
AcDbLine
 10
182.2750000000000057
 20
15.4500000000000011
 30
0.0
 11
182.2750000000000057
 21
4.4499999999999993
 31
0.0
  0
LINE
  5
140
100
AcDbEntity
  8
Parts
 62
256
370
-1
 48
1.0
  6
BYLAYER
100
AcDbLine
 10
208.5
 20
15.5
 30
0.0
 11
208.5
 21
4.4999999999999982
 31
0.0
  0
LINE
  5
141
100
AcDbEntity
  8
Parts
 62
256
370
-1
 48
1.0
  6
BYLAYER
100
AcDbLine
 10
368.4547629472746735
 20
134.867197809820226
 30
0.0
 11
368.4547629472746735
 21
123.867197809820226
 31
0.0
  0
LINE
  5
142
100
AcDbEntity
  8
Parts
 62
256
370
-1
 48
1.0
  6
BYLAYER
100
AcDbLine
 10
411.5
 20
139.0
 30
0.0
 11
411.5
 21
127.9999999999999858
 31
0.0
  0
LINE
  5
143
100
AcDbEntity
  8
Parts
 62
256
370
-1
 48
1.0
  6
BYLAYER
100
AcDbLine
 10
182.2750000000000057
 20
4.4499999999999993
 30
0.0
 11
187.7750000000000057
 21
4.4499999999999993
 31
0.0
  0
LINE
  5
144
100
AcDbEntity
  8
Parts
 62
256
370
-1
 48
1.0
  6
BYLAYER
100
AcDbLine
 10
208.5
 20
4.4999999999999982
 30
0.0
 11
214.0
 21
4.4999999999999982
 31
0.0
  0
LINE
  5
145
100
AcDbEntity
  8
Parts
 62
256
370
-1
 48
1.0
  6
BYLAYER
100
AcDbLine
 10
368.4547629472746735
 20
123.867197809820226
 30
0.0
 11
373.9547629472746735
 21
123.867197809820226
 31
0.0
  0
LINE
  5
146
100
AcDbEntity
  8
Parts
 62
256
370
-1
 48
1.0
  6
BYLAYER
100
AcDbLine
 10
411.5
 20
127.9999999999999858
 30
0.0
 11
417.0
 21
127.9999999999999858
 31
0.0
  0
LINE
  5
147
100
AcDbEntity
  8
Parts
 62
256
370
-1
 48
1.0
  6
BYLAYER
100
AcDbLine
 10
187.7750000000000057
 20
15.4500000000000028
 30
0.0
 11
187.7750000000000057
 21
4.4499999999999984
 31
0.0
  0
LINE
  5
148
100
AcDbEntity
  8
Parts
 62
256
370
-1
 48
1.0
  6
BYLAYER
100
AcDbLine
 10
214.0
 20
15.5000000000000018
 30
0.0
 11
214.0
 21
4.4999999999999973
 31
0.0
  0
LINE
  5
149
100
AcDbEntity
  8
Parts
 62
256
370
-1
 48
1.0
  6
BYLAYER
100
AcDbLine
 10
373.9547629472746735
 20
134.867197809820226
 30
0.0
 11
373.9547629472746735
 21
123.867197809820226
 31
0.0
  0
LINE
  5
14A
100
AcDbEntity
  8
Parts
 62
256
370
-1
 48
1.0
  6
BYLAYER
100
AcDbLine
 10
417.0
 20
139.0
 30
0.0
 11
417.0
 21
127.9999999999999858
 31
0.0
  0
LINE
  5
14B
100
AcDbEntity
  8
Parts
 62
256
370
-1
 48
1.0
  6
BYLAYER
100
AcDbLine
 10
187.7750000000000057
 20
4.4499999999999984
 30
0.0
 11
182.2750000000000341
 21
15.4500000000000028
 31
0.0
  0
LINE
  5
14C
100
AcDbEntity
  8
Parts
 62
256
370
-1
 48
1.0
  6
BYLAYER
100
AcDbLine
 10
214.0
 20
4.4999999999999973
 30
0.0
 11
208.5000000000000284
 21
15.5000000000000018
 31
0.0
  0
LINE
  5
14D
100
AcDbEntity
  8
Parts
 62
256
370
-1
 48
1.0
  6
BYLAYER
100
AcDbLine
 10
373.9547629472746735
 20
123.867197809820226
 30
0.0
 11
368.4547629472747303
 21
134.867197809820226
 31
0.0
  0
LINE
  5
14E
100
AcDbEntity
  8
Parts
 62
256
370
-1
 48
1.0
  6
BYLAYER
100
AcDbLine
 10
417.0
 20
127.9999999999999858
 30
0.0
 11
411.5000000000000568
 21
139.0
 31
0.0
  0
LINE
  5
14F
100
AcDbEntity
  8
Parts
 62
256
370
-1
 48
1.0
  6
BYLAYER
100
AcDbLine
 10
182.2750000000000341
 20
15.4500000000000028
 30
0.0
 11
187.7749999999999773
 21
15.4500000000000011
 31
0.0
  0
LINE
  5
150
100
AcDbEntity
  8
Parts
 62
256
370
-1
 48
1.0
  6
BYLAYER
100
AcDbLine
 10
208.5000000000000284
 20
15.5000000000000018
 30
0.0
 11
213.9999999999999716
 21
15.5
 31
0.0
  0
LINE
  5
151
100
AcDbEntity
  8
Parts
 62
256
370
-1
 48
1.0
  6
BYLAYER
100
AcDbLine
 10
368.4547629472747303
 20
134.867197809820226
 30
0.0
 11
373.9547629472746166
 21
134.867197809820226
 31
0.0
  0
LINE
  5
152
100
AcDbEntity
  8
Parts
 62
256
370
-1
 48
1.0
  6
BYLAYER
100
AcDbLine
 10
411.5000000000000568
 20
139.0
 30
0.0
 11
417.0
 21
139.0
 31
0.0
  0
LINE
  5
153
100
AcDbEntity
  8
Parts
 62
256
370
-1
 48
1.0
  6
BYLAYER
100
AcDbLine
 10
187.7749999999999773
 20
15.4500000000000011
 30
0.0
 11
182.2750000000000341
 21
4.4499999999999993
 31
0.0
  0
LINE
  5
154
100
AcDbEntity
  8
Parts
 62
256
370
-1
 48
1.0
  6
BYLAYER
100
AcDbLine
 10
213.9999999999999716
 20
15.5
 30
0.0
 11
208.5000000000000284
 21
4.4999999999999982
 31
0.0
  0
LINE
  5
155
100
AcDbEntity
  8
Parts
 62
256
370
-1
 48
1.0
  6
BYLAYER
100
AcDbLine
 10
373.9547629472746166
 20
134.867197809820226
 30
0.0
 11
368.4547629472747303
 21
123.867197809820226
 31
0.0
  0
LINE
  5
156
100
AcDbEntity
  8
Parts
 62
256
370
-1
 48
1.0
  6
BYLAYER
100
AcDbLine
 10
417.0
 20
139.0
 30
0.0
 11
411.5000000000000568
 21
127.9999999999999858
 31
0.0
  0
LINE
  5
157
100
AcDbEntity
  8
PCB
 62
256
370
-1
 48
1.0
  6
ACAD_ISO07W100
100
AcDbLine
 10
150.0
 20
27.6999999999999993
 30
0.0
 11
150.0
 21
32.1000000000000014
 31
0.0
  0
LINE
  5
158
100
AcDbEntity
  8
PCB
 62
256
370
-1
 48
1.0
  6
ACAD_ISO07W100
100
AcDbLine
 10
336.1797629472746394
 20
147.117197809820226
 30
0.0
 11
336.1797629472746394
 21
151.5171978098202317
 31
0.0
  0
LINE
  5
159
100
AcDbEntity
  8
PCB
 62
256
370
-1
 48
1.0
  6
ACAD_ISO07W100
100
AcDbLine
 10
117.0250000000000057
 20
22.0500000000000007
 30
0.0
 11
117.0250000000000057
 21
29.0500000000000007
 31
0.0
  0
LINE
  5
15A
100
AcDbEntity
  8
PCB
 62
256
370
-1
 48
1.0
  6
ACAD_ISO07W100
100
AcDbLine
 10
303.2047629472746735
 20
141.4671978098202203
 30
0.0
 11
303.2047629472746735
 21
148.4671978098202203
 31
0.0
  0
LINE
  5
15B
100
AcDbEntity
  8
PCB
 62
256
370
-1
 48
1.0
  6
ACAD_ISO07W100
100
AcDbLine
 10
115.2250000000000085
 20
20.25
 30
0.0
 11
111.7249999999999943
 21
20.25
 31
0.0
  0
LINE
  5
15C
100
AcDbEntity
  8
PCB
 62
256
370
-1
 48
1.0
  6
ACAD_ISO07W100
100
AcDbLine
 10
301.4047629472746621
 20
139.6671978098202374
 30
0.0
 11
297.9047629472746621
 21
139.6671978098202374
 31
0.0
  0
LINE
  5
15D
100
AcDbEntity
  8
PCB
 62
256
370
-1
 48
1.0
  6
BYLAYER
100
AcDbLine
 10
166.7750000000000057
 20
32.1000000000000014
 30
0.0
 11
150.0
 21
32.1000000000000014
 31
0.0
  0
LINE
  5
15E
100
AcDbEntity
  8
PCB
 62
256
370
-1
 48
1.0
  6
BYLAYER
100
AcDbLine
 10
352.9547629472746735
 20
151.5171978098202317
 30
0.0
 11
336.1797629472746394
 21
151.5171978098202317
 31
0.0
  0
LINE
  5
15F
100
AcDbEntity
  8
PCB
 62
256
370
-1
 48
1.0
  6
BYLAYER
100
AcDbLine
 10
166.7750000000000057
 20
29.0500000000000007
 30
0.0
 11
166.7750000000000057
 21
32.1000000000000014
 31
0.0
  0
LINE
  5
160
100
AcDbEntity
  8
PCB
 62
256
370
-1
 48
1.0
  6
BYLAYER
100
AcDbLine
 10
352.9547629472746735
 20
148.4671978098202203
 30
0.0
 11
352.9547629472746735
 21
151.5171978098202317
 31
0.0
  0
LINE
  5
161
100
AcDbEntity
  8
PCB
 62
256
370
-1
 48
1.0
  6
BYLAYER
100
AcDbLine
 10
132.7249999999999943
 20
29.0500000000000007
 30
0.0
 11
113.2249999999999943
 21
29.0500000000000007
 31
0.0
  0
LINE
  5
162
100
AcDbEntity
  8
PCB
 62
256
370
-1
 48
1.0
  6
BYLAYER
100
AcDbLine
 10
318.9047629472746621
 20
148.4671978098202203
 30
0.0
 11
299.4047629472746621
 21
148.4671978098202203
 31
0.0
  0
LINE
  5
163
100
AcDbEntity
  8
PCB
 62
256
370
-1
 48
1.0
  6
BYLAYER
100
AcDbLine
 10
111.7249999999999943
 20
23.0500000000000007
 30
0.0
 11
112.2249999999999943
 21
23.0500000000000007
 31
0.0
  0
LINE
  5
164
100
AcDbEntity
  8
PCB
 62
256
370
-1
 48
1.0
  6
BYLAYER
100
AcDbLine
 10
297.9047629472746621
 20
142.4671978098202203
 30
0.0
 11
298.4047629472746621
 21
142.4671978098202203
 31
0.0
  0
LINE
  5
165
100
AcDbEntity
  8
PCB
 62
256
370
-1
 48
1.0
  6
BYLAYER
100
AcDbLine
 10
132.7249999999999943
 20
29.0500000000000007
 30
0.0
 11
132.7249999999999943
 21
32.1000000000000014
 31
0.0
  0
LINE
  5
166
100
AcDbEntity
  8
PCB
 62
256
370
-1
 48
1.0
  6
BYLAYER
100
AcDbLine
 10
318.9047629472746621
 20
148.4671978098202203
 30
0.0
 11
318.9047629472746621
 21
151.5171978098202317
 31
0.0
  0
LINE
  5
167
100
AcDbEntity
  8
PCB
 62
256
370
-1
 48
1.0
  6
BYLAYER
100
AcDbLine
 10
132.7249999999999943
 20
32.1000000000000014
 30
0.0
 11
150.0
 21
32.1000000000000014
 31
0.0
  0
LINE
  5
168
100
AcDbEntity
  8
PCB
 62
256
370
-1
 48
1.0
  6
BYLAYER
100
AcDbLine
 10
318.9047629472746621
 20
151.5171978098202317
 30
0.0
 11
336.1797629472746394
 21
151.5171978098202317
 31
0.0
  0
LINE
  5
169
100
AcDbEntity
  8
PCB
 62
256
370
-1
 48
1.0
  6
ACAD_ISO07W100
100
AcDbLine
 10
186.0500000000000114
 20
-39.2000000000000028
 30
0.0
 11
187.8500000000000227
 21
-39.2000000000000028
 31
0.0
  0
LINE
  5
16A
100
AcDbEntity
  8
PCB
 62
256
370
-1
 48
1.0
  6
ACAD_ISO07W100
100
AcDbLine
 10
372.2297629472747076
 20
80.2171978098202203
 30
0.0
 11
374.0297629472746621
 21
80.2171978098202203
 31
0.0
  0
LINE
  5
16B
100
AcDbEntity
  8
PCB
 62
256
370
-1
 48
1.0
  6
ACAD_ISO07W100
100
AcDbLine
 10
184.25
 20
-41.0
 30
0.0
 11
184.25
 21
-44.5
 31
0.0
  0
LINE
  5
16C
100
AcDbEntity
  8
PCB
 62
256
370
-1
 48
1.0
  6
ACAD_ISO07W100
100
AcDbLine
 10
370.4297629472746394
 20
78.4171978098202231
 30
0.0
 11
370.4297629472746394
 21
74.9171978098202231
 31
0.0
  0
LINE
  5
16D
100
AcDbEntity
  8
PCB
 62
256
370
-1
 48
1.0
  6
ACAD_ISO07W100
100
AcDbLine
 10
113.9500000000000028
 20
-39.2000000000000028
 30
0.0
 11
112.1500000000000057
 21
-39.2000000000000028
 31
0.0
  0
LINE
  5
16E
100
AcDbEntity
  8
PCB
 62
256
370
-1
 48
1.0
  6
ACAD_ISO07W100
100
AcDbLine
 10
300.1297629472746848
 20
80.2171978098202203
 30
0.0
 11
298.3297629472746735
 21
80.2171978098202203
 31
0.0
  0
LINE
  5
16F
100
AcDbEntity
  8
PCB
 62
256
370
-1
 48
1.0
  6
ACAD_ISO07W100
100
AcDbLine
 10
115.75
 20
-41.0
 30
0.0
 11
115.75
 21
-44.5
 31
0.0
  0
LINE
  5
170
100
AcDbEntity
  8
PCB
 62
256
370
-1
 48
1.0
  6
ACAD_ISO07W100
100
AcDbLine
 10
301.9297629472746394
 20
78.4171978098202231
 30
0.0
 11
301.9297629472746394
 21
74.9171978098202231
 31
0.0
  0
ARC
  5
171
100
AcDbEntity
  8
PCB
 62
256
370
-1
 48
1.0
  6
BYLAYER
100
AcDbCircle
 10
184.25
 20
-40.8999999999999986
 30
0.0
 40
3.6000000000000227
100
AcDbArc
 50
270.0
 51
0.0
  0
ARC
  5
172
100
AcDbEntity
  8
PCB
 62
256
370
-1
 48
1.0
  6
BYLAYER
100
AcDbCircle
 10
370.4297629472746394
 20
78.5171978098202317
 30
0.0
 40
3.6000000000000227
100
AcDbArc
 50
270.0
 51
0.0
  0
LINE
  5
173
100
AcDbEntity
  8
PCB
 62
256
370
-1
 48
1.0
  6
BYLAYER
100
AcDbLine
 10
187.8500000000000227
 20
-40.8999999999999986
 30
0.0
 11
187.8500000000000227
 21
-39.2000000000000028
 31
0.0
  0
LINE
  5
174
100
AcDbEntity
  8
PCB
 62
256
370
-1
 48
1.0
  6
BYLAYER
100
AcDbLine
 10
374.0297629472746621
 20
78.5171978098202317
 30
0.0
 11
374.0297629472746621
 21
80.2171978098202203
 31
0.0
  0
LINE
  5
175
100
AcDbEntity
  8
PCB
 62
256
370
-1
 48
1.0
  6
BYLAYER
100
AcDbLine
 10
187.7750000000000057
 20
-5.9499999999999993
 30
0.0
 11
187.7750000000000057
 21
-39.2000000000000099
 31
0.0
  0
LINE
  5
176
100
AcDbEntity
  8
PCB
 62
256
370
-1
 48
1.0
  6
BYLAYER
100
AcDbLine
 10
373.9547629472746735
 20
113.4671978098202203
 30
0.0
 11
373.9547629472746735
 21
80.2171978098202203
 31
0.0
  0
ARC
  5
177
100
AcDbEntity
  8
PCB
 62
256
370
-1
 48
1.0
  6
BYLAYER
100
AcDbCircle
 10
115.75
 20
-40.8999999999999986
 30
0.0
 40
3.5999999999999943
100
AcDbArc
 50
180.0
 51
270.0
  0
ARC
  5
178
100
AcDbEntity
  8
PCB
 62
256
370
-1
 48
1.0
  6
BYLAYER
100
AcDbCircle
 10
301.9297629472746394
 20
78.5171978098202317
 30
0.0
 40
3.5999999999999943
100
AcDbArc
 50
180.0
 51
270.0
  0
LINE
  5
179
100
AcDbEntity
  8
PCB
 62
256
370
-1
 48
1.0
  6
BYLAYER
100
AcDbLine
 10
112.1500000000000057
 20
-40.8999999999999986
 30
0.0
 11
112.1500000000000057
 21
-39.2000000000000028
 31
0.0
  0
LINE
  5
17A
100
AcDbEntity
  8
PCB
 62
256
370
-1
 48
1.0
  6
BYLAYER
100
AcDbLine
 10
298.3297629472746735
 20
78.5171978098202317
 30
0.0
 11
298.3297629472746735
 21
80.2171978098202203
 31
0.0
  0
LINE
  5
17B
100
AcDbEntity
  8
PCB
 62
256
370
-1
 48
1.0
  6
BYLAYER
100
AcDbLine
 10
112.1500000000000057
 20
-39.2000000000000028
 30
0.0
 11
112.1500000000000057
 21
-34.2000000000000028
 31
0.0
  0
LINE
  5
17C
100
AcDbEntity
  8
PCB
 62
256
370
-1
 48
1.0
  6
BYLAYER
100
AcDbLine
 10
298.3297629472746735
 20
80.2171978098202203
 30
0.0
 11
298.3297629472746735
 21
85.2171978098202203
 31
0.0
  0
LINE
  5
17D
100
AcDbEntity
  8
PCB
 62
256
370
-1
 48
1.0
  6
BYLAYER
100
AcDbLine
 10
112.1500000000000057
 20
-34.2000000000000028
 30
0.0
 11
113.6500000000000057
 21
-34.2000000000000028
 31
0.0
  0
LINE
  5
17E
100
AcDbEntity
  8
PCB
 62
256
370
-1
 48
1.0
  6
BYLAYER
100
AcDbLine
 10
298.3297629472746735
 20
85.2171978098202203
 30
0.0
 11
299.8297629472746735
 21
85.2171978098202203
 31
0.0
  0
LINE
  5
17F
100
AcDbEntity
  8
PCB
 62
256
370
-1
 48
1.0
  6
BYLAYER
100
AcDbLine
 10
113.6500000000000057
 20
-34.2000000000000028
 30
0.0
 11
113.6500000000000057
 21
-10.2000000000000028
 31
0.0
  0
LINE
  5
180
100
AcDbEntity
  8
PCB
 62
256
370
-1
 48
1.0
  6
BYLAYER
100
AcDbLine
 10
299.8297629472746735
 20
85.2171978098202203
 30
0.0
 11
299.8297629472746735
 21
109.2171978098202203
 31
0.0
  0
LINE
  5
181
100
AcDbEntity
  8
PCB
 62
256
370
-1
 48
1.0
  6
BYLAYER
100
AcDbLine
 10
113.6500000000000057
 20
-10.2000000000000028
 30
0.0
 11
111.7249999999999943
 21
-10.2000000000000028
 31
0.0
  0
LINE
  5
182
100
AcDbEntity
  8
PCB
 62
256
370
-1
 48
1.0
  6
BYLAYER
100
AcDbLine
 10
299.8297629472746735
 20
109.2171978098202203
 30
0.0
 11
297.9047629472746621
 21
109.2171978098202203
 31
0.0
  0
LINE
  5
183
100
AcDbEntity
  8
PCB
 62
256
370
-1
 48
1.0
  6
BYLAYER
100
AcDbLine
 10
111.7249999999999943
 20
23.0500000000000007
 30
0.0
 11
111.7249999999999943
 21
-10.2000000000000028
 31
0.0
  0
LINE
  5
184
100
AcDbEntity
  8
PCB
 62
256
370
-1
 48
1.0
  6
BYLAYER
100
AcDbLine
 10
297.9047629472746621
 20
142.4671978098202203
 30
0.0
 11
297.9047629472746621
 21
109.2171978098202203
 31
0.0
  0
LINE
  5
185
100
AcDbEntity
  8
PCB
 62
256
370
-1
 48
1.0
  6
BYLAYER
100
AcDbLine
 10
184.25
 20
-44.5000000000000213
 30
0.0
 11
153.25
 21
-44.5000000000000213
 31
0.0
  0
LINE
  5
186
100
AcDbEntity
  8
PCB
 62
256
370
-1
 48
1.0
  6
BYLAYER
100
AcDbLine
 10
370.4297629472746394
 20
74.9171978098202089
 30
0.0
 11
339.4297629472746394
 21
74.9171978098202089
 31
0.0
  0
LINE
  5
187
100
AcDbEntity
  8
PCB
 62
256
370
-1
 48
1.0
  6
BYLAYER
100
AcDbLine
 10
115.75
 20
-44.4999999999999929
 30
0.0
 11
146.75
 21
-44.4999999999999929
 31
0.0
  0
LINE
  5
188
100
AcDbEntity
  8
PCB
 62
256
370
-1
 48
1.0
  6
BYLAYER
100
AcDbLine
 10
301.9297629472746394
 20
74.9171978098202374
 30
0.0
 11
332.9297629472746394
 21
74.9171978098202374
 31
0.0
  0
LINE
  5
189
100
AcDbEntity
  8
PCB
 62
256
370
-1
 48
1.0
  6
BYLAYER
100
AcDbLine
 10
153.25
 20
-44.5000000000000213
 30
0.0
 11
153.25
 21
-41.5
 31
0.0
  0
LINE
  5
18A
100
AcDbEntity
  8
PCB
 62
256
370
-1
 48
1.0
  6
BYLAYER
100
AcDbLine
 10
339.4297629472746394
 20
74.9171978098202089
 30
0.0
 11
339.4297629472746394
 21
77.9171978098202231
 31
0.0
  0
LINE
  5
18B
100
AcDbEntity
  8
PCB
 62
256
370
-1
 48
1.0
  6
BYLAYER
100
AcDbLine
 10
146.75
 20
-44.4999999999999929
 30
0.0
 11
146.75
 21
-41.5
 31
0.0
  0
LINE
  5
18C
100
AcDbEntity
  8
PCB
 62
256
370
-1
 48
1.0
  6
BYLAYER
100
AcDbLine
 10
332.9297629472746394
 20
74.9171978098202374
 30
0.0
 11
332.9297629472746394
 21
77.9171978098202231
 31
0.0
  0
LINE
  5
18D
100
AcDbEntity
  8
PCB
 62
256
370
-1
 48
1.0
  6
BYLAYER
100
AcDbLine
 10
146.75
 20
-41.5
 30
0.0
 11
153.25
 21
-41.5
 31
0.0
  0
LINE
  5
18E
100
AcDbEntity
  8
PCB
 62
256
370
-1
 48
1.0
  6
BYLAYER
100
AcDbLine
 10
332.9297629472746394
 20
77.9171978098202231
 30
0.0
 11
339.4297629472746394
 21
77.9171978098202231
 31
0.0
  0
LINE
  5
18F
100
AcDbEntity
  8
Parts
 62
256
370
-1
 48
1.0
  6
BYLAYER
100
AcDbLine
 10
153.3499999999999943
 20
25.9000000000000021
 30
0.0
 11
153.3499999999999943
 21
33.1000000000000014
 31
0.0
  0
LINE
  5
190
100
AcDbEntity
  8
Parts
 62
256
370
-1
 48
1.0
  6
BYLAYER
100
AcDbLine
 10
339.5297629472746621
 20
145.317197809820243
 30
0.0
 11
339.5297629472746621
 21
152.5171978098202317
 31
0.0
  0
LINE
  5
191
100
AcDbEntity
  8
Parts
 62
256
370
-1
 48
1.0
  6
BYLAYER
100
AcDbLine
 10
153.3499999999999943
 20
33.1000000000000014
 30
0.0
 11
163.3499999999999943
 21
33.1000000000000014
 31
0.0
  0
LINE
  5
192
100
AcDbEntity
  8
Parts
 62
256
370
-1
 48
1.0
  6
BYLAYER
100
AcDbLine
 10
339.5297629472746621
 20
152.5171978098202317
 30
0.0
 11
349.5297629472746621
 21
152.5171978098202317
 31
0.0
  0
LINE
  5
193
100
AcDbEntity
  8
Parts
 62
256
370
-1
 48
1.0
  6
BYLAYER
100
AcDbLine
 10
163.3499999999999943
 20
33.1000000000000014
 30
0.0
 11
163.3499999999999943
 21
25.9000000000000021
 31
0.0
  0
LINE
  5
194
100
AcDbEntity
  8
Parts
 62
256
370
-1
 48
1.0
  6
BYLAYER
100
AcDbLine
 10
349.5297629472746621
 20
152.5171978098202317
 30
0.0
 11
349.5297629472746621
 21
145.317197809820243
 31
0.0
  0
LINE
  5
195
100
AcDbEntity
  8
Parts
 62
256
370
-1
 48
1.0
  6
BYLAYER
100
AcDbLine
 10
153.3499999999999943
 20
25.9000000000000021
 30
0.0
 11
163.3499999999999943
 21
25.9000000000000021
 31
0.0
  0
LINE
  5
196
100
AcDbEntity
  8
Parts
 62
256
370
-1
 48
1.0
  6
BYLAYER
100
AcDbLine
 10
339.5297629472746621
 20
145.317197809820243
 30
0.0
 11
349.5297629472746621
 21
145.317197809820243
 31
0.0
  0
LINE
  5
197
100
AcDbEntity
  8
Parts
 62
256
370
-1
 48
1.0
  6
BYLAYER
100
AcDbLine
 10
146.6500000000000057
 20
25.9000000000000021
 30
0.0
 11
146.6500000000000057
 21
33.1000000000000014
 31
0.0
  0
LINE
  5
198
100
AcDbEntity
  8
Parts
 62
256
370
-1
 48
1.0
  6
BYLAYER
100
AcDbLine
 10
332.8297629472746735
 20
145.317197809820243
 30
0.0
 11
332.8297629472746735
 21
152.5171978098202317
 31
0.0
  0
LINE
  5
199
100
AcDbEntity
  8
Parts
 62
256
370
-1
 48
1.0
  6
BYLAYER
100
AcDbLine
 10
146.6500000000000057
 20
33.1000000000000014
 30
0.0
 11
134.3499999999999943
 21
33.1000000000000014
 31
0.0
  0
LINE
  5
19A
100
AcDbEntity
  8
Parts
 62
256
370
-1
 48
1.0
  6
BYLAYER
100
AcDbLine
 10
332.8297629472746735
 20
152.5171978098202317
 30
0.0
 11
320.5297629472746621
 21
152.5171978098202317
 31
0.0
  0
LINE
  5
19B
100
AcDbEntity
  8
Parts
 62
256
370
-1
 48
1.0
  6
BYLAYER
100
AcDbLine
 10
146.6500000000000057
 20
25.9000000000000021
 30
0.0
 11
134.3499999999999943
 21
25.9000000000000021
 31
0.0
  0
LINE
  5
19C
100
AcDbEntity
  8
Parts
 62
256
370
-1
 48
1.0
  6
BYLAYER
100
AcDbLine
 10
332.8297629472746735
 20
145.317197809820243
 30
0.0
 11
320.5297629472746621
 21
145.317197809820243
 31
0.0
  0
LINE
  5
19D
100
AcDbEntity
  8
Parts
 62
256
370
-1
 48
1.0
  6
BYLAYER
100
AcDbLine
 10
134.3499999999999943
 20
33.1000000000000014
 30
0.0
 11
134.3499999999999943
 21
25.9000000000000021
 31
0.0
  0
LINE
  5
19E
100
AcDbEntity
  8
Parts
 62
256
370
-1
 48
1.0
  6
BYLAYER
100
AcDbLine
 10
320.5297629472746621
 20
152.5171978098202317
 30
0.0
 11
320.5297629472746621
 21
145.317197809820243
 31
0.0
  0
LINE
  5
19F
100
AcDbEntity
  8
Parts
 62
256
370
-1
 48
1.0
  6
BYLAYER
100
AcDbLine
 10
131.8499999999999943
 20
-0.3
 30
0.0
 11
128.75
 21
-0.3
 31
0.0
  0
LINE
  5
1A0
100
AcDbEntity
  8
Parts
 62
256
370
-1
 48
1.0
  6
BYLAYER
100
AcDbLine
 10
318.0297629472746621
 20
119.117197809820226
 30
0.0
 11
314.9297629472746394
 21
119.117197809820226
 31
0.0
  0
LINE
  5
1A1
100
AcDbEntity
  8
Parts
 62
256
370
-1
 48
1.0
  6
BYLAYER
100
AcDbLine
 10
128.75
 20
-0.3
 30
0.0
 11
128.75
 21
2.7999999999999998
 31
0.0
  0
LINE
  5
1A2
100
AcDbEntity
  8
Parts
 62
256
370
-1
 48
1.0
  6
BYLAYER
100
AcDbLine
 10
314.9297629472746394
 20
119.117197809820226
 30
0.0
 11
314.9297629472746394
 21
122.2171978098202203
 31
0.0
  0
LINE
  5
1A3
100
AcDbEntity
  8
Parts
 62
256
370
-1
 48
1.0
  6
BYLAYER
100
AcDbLine
 10
131.8499999999999943
 20
-0.3
 30
0.0
 11
131.8499999999999943
 21
2.7999999999999998
 31
0.0
  0
LINE
  5
1A4
100
AcDbEntity
  8
Parts
 62
256
370
-1
 48
1.0
  6
BYLAYER
100
AcDbLine
 10
318.0297629472746621
 20
119.117197809820226
 30
0.0
 11
318.0297629472746621
 21
122.2171978098202203
 31
0.0
  0
LINE
  5
1A5
100
AcDbEntity
  8
Parts
 62
256
370
-1
 48
1.0
  6
BYLAYER
100
AcDbLine
 10
128.75
 20
2.7999999999999998
 30
0.0
 11
131.8499999999999943
 21
2.7999999999999998
 31
0.0
  0
LINE
  5
1A6
100
AcDbEntity
  8
Parts
 62
256
370
-1
 48
1.0
  6
BYLAYER
100
AcDbLine
 10
314.9297629472746394
 20
122.2171978098202203
 30
0.0
 11
318.0297629472746621
 21
122.2171978098202203
 31
0.0
  0
LINE
  5
1A7
100
AcDbEntity
  8
Parts
 62
256
370
-1
 48
1.0
  6
BYLAYER
100
AcDbLine
 10
180.8249999999999886
 20
28.0500000000000007
 30
0.0
 11
183.8249999999999886
 21
28.0500000000000007
 31
0.0
  0
LINE
  5
1A8
100
AcDbEntity
  8
Parts
 62
256
370
-1
 48
1.0
  6
BYLAYER
100
AcDbLine
 10
367.0047629472746848
 20
147.4671978098202203
 30
0.0
 11
370.0047629472746848
 21
147.4671978098202203
 31
0.0
  0
LINE
  5
1A9
100
AcDbEntity
  8
Parts
 62
256
370
-1
 48
1.0
  6
BYLAYER
100
AcDbLine
 10
183.8249999999999886
 20
28.0500000000000007
 30
0.0
 11
183.8249999999999886
 21
27.0500000000000007
 31
0.0
  0
LINE
  5
1AA
100
AcDbEntity
  8
Parts
 62
256
370
-1
 48
1.0
  6
BYLAYER
100
AcDbLine
 10
370.0047629472746848
 20
147.4671978098202203
 30
0.0
 11
370.0047629472746848
 21
146.4671978098202203
 31
0.0
  0
LINE
  5
1AB
100
AcDbEntity
  8
Parts
 62
256
370
-1
 48
1.0
  6
BYLAYER
100
AcDbLine
 10
183.8249999999999886
 20
27.0500000000000007
 30
0.0
 11
184.8249999999999886
 21
27.0500000000000007
 31
0.0
  0
LINE
  5
1AC
100
AcDbEntity
  8
Parts
 62
256
370
-1
 48
1.0
  6
BYLAYER
100
AcDbLine
 10
370.0047629472746848
 20
146.4671978098202203
 30
0.0
 11
371.0047629472746848
 21
146.4671978098202203
 31
0.0
  0
LINE
  5
1AD
100
AcDbEntity
  8
Parts
 62
256
370
-1
 48
1.0
  6
BYLAYER
100
AcDbLine
 10
180.8249999999999886
 20
28.0500000000000007
 30
0.0
 11
180.8249999999999886
 21
27.0500000000000007
 31
0.0
  0
LINE
  5
1AE
100
AcDbEntity
  8
Parts
 62
256
370
-1
 48
1.0
  6
BYLAYER
100
AcDbLine
 10
367.0047629472746848
 20
147.4671978098202203
 30
0.0
 11
367.0047629472746848
 21
146.4671978098202203
 31
0.0
  0
LINE
  5
1AF
100
AcDbEntity
  8
Parts
 62
256
370
-1
 48
1.0
  6
BYLAYER
100
AcDbLine
 10
184.8249999999999886
 20
27.0500000000000007
 30
0.0
 11
184.8249999999999886
 21
26.0500000000000007
 31
0.0
  0
LINE
  5
1B0
100
AcDbEntity
  8
Parts
 62
256
370
-1
 48
1.0
  6
BYLAYER
100
AcDbLine
 10
371.0047629472746848
 20
146.4671978098202203
 30
0.0
 11
371.0047629472746848
 21
145.4671978098202203
 31
0.0
  0
LINE
  5
1B1
100
AcDbEntity
  8
Parts
 62
256
370
-1
 48
1.0
  6
BYLAYER
100
AcDbLine
 10
180.8249999999999886
 20
27.0500000000000007
 30
0.0
 11
179.8249999999999886
 21
27.0500000000000007
 31
0.0
  0
LINE
  5
1B2
100
AcDbEntity
  8
Parts
 62
256
370
-1
 48
1.0
  6
BYLAYER
100
AcDbLine
 10
367.0047629472746848
 20
146.4671978098202203
 30
0.0
 11
366.0047629472746848
 21
146.4671978098202203
 31
0.0
  0
LINE
  5
1B3
100
AcDbEntity
  8
Parts
 62
256
370
-1
 48
1.0
  6
BYLAYER
100
AcDbLine
 10
179.8249999999999886
 20
27.0500000000000007
 30
0.0
 11
179.8249999999999886
 21
26.0500000000000007
 31
0.0
  0
LINE
  5
1B4
100
AcDbEntity
  8
Parts
 62
256
370
-1
 48
1.0
  6
BYLAYER
100
AcDbLine
 10
366.0047629472746848
 20
146.4671978098202203
 30
0.0
 11
366.0047629472746848
 21
145.4671978098202203
 31
0.0
  0
LINE
  5
1B5
100
AcDbEntity
  8
Parts
 62
256
370
-1
 48
1.0
  6
BYLAYER
100
AcDbLine
 10
179.8249999999999886
 20
26.0500000000000007
 30
0.0
 11
184.8249999999999886
 21
26.0500000000000007
 31
0.0
  0
LINE
  5
1B6
100
AcDbEntity
  8
Parts
 62
256
370
-1
 48
1.0
  6
BYLAYER
100
AcDbLine
 10
366.0047629472746848
 20
145.4671978098202203
 30
0.0
 11
371.0047629472746848
 21
145.4671978098202203
 31
0.0
  0
DIMENSION
  5
1B7
100
AcDbEntity
  8
Medidas Horizontal
 62
256
370
-1
 48
1.0
  6
BYLAYER
100
AcDbDimension
 10
37.0
 20
92.0
 30
0.0
 11
40.2638888888888857
 21
93.875
 31
0.0
 70
0
 71
8
 72
2
 74
0
 75
0
 41
1.0
 42
0.0
  1

  3
Standard
100
AcDbAlignedDimension
 13
37.0
 23
79.9999999999999858
 33
0.0
 14
33.8500000000000014
 24
82.6749999999999972
 34
0.0
 50
0.0
100
AcDbRotatedDimension
1001
ACAD
1000
DSTYLE
1002
{
1070
144
1040
1.0
1070
40
1040
1.0
1002
}
  0
LINE
  5
1B8
100
AcDbEntity
  8
PCB
 62
256
370
-1
 48
1.0
  6
BYLAYER
100
AcDbLine
 10
113.2249999999999943
 20
29.0500000000000043
 30
0.0
 11
112.2249999999999943
 21
29.0500000000000043
 31
0.0
  0
LINE
  5
1B9
100
AcDbEntity
  8
PCB
 62
256
370
-1
 48
1.0
  6
BYLAYER
100
AcDbLine
 10
299.4047629472746621
 20
148.4671978098202203
 30
0.0
 11
298.4047629472746621
 21
148.4671978098202203
 31
0.0
  0
LINE
  5
1BA
100
AcDbEntity
  8
PCB
 62
256
370
-1
 48
1.0
  6
BYLAYER
100
AcDbLine
 10
112.2249999999999943
 20
29.0500000000000043
 30
0.0
 11
112.2249999999999943
 21
23.0500000000000007
 31
0.0
  0
LINE
  5
1BB
100
AcDbEntity
  8
PCB
 62
256
370
-1
 48
1.0
  6
BYLAYER
100
AcDbLine
 10
298.4047629472746621
 20
148.4671978098202203
 30
0.0
 11
298.4047629472746621
 21
142.4671978098202203
 31
0.0
  0
LINE
  5
1BC
100
AcDbEntity
  8
Parts
 62
256
370
-1
 48
1.0
  6
BYLAYER
100
AcDbLine
 10
119.9749999999999943
 20
28.0500000000000007
 30
0.0
 11
116.9749999999999943
 21
28.0500000000000007
 31
0.0
  0
LINE
  5
1BD
100
AcDbEntity
  8
Parts
 62
256
370
-1
 48
1.0
  6
BYLAYER
100
AcDbLine
 10
306.1547629472746621
 20
147.4671978098202203
 30
0.0
 11
303.1547629472746621
 21
147.4671978098202203
 31
0.0
  0
LINE
  5
1BE
100
AcDbEntity
  8
Parts
 62
256
370
-1
 48
1.0
  6
BYLAYER
100
AcDbLine
 10
119.9749999999999943
 20
28.0500000000000007
 30
0.0
 11
119.9749999999999943
 21
27.0500000000000007
 31
0.0
  0
LINE
  5
1BF
100
AcDbEntity
  8
Parts
 62
256
370
-1
 48
1.0
  6
BYLAYER
100
AcDbLine
 10
306.1547629472746621
 20
147.4671978098202203
 30
0.0
 11
306.1547629472746621
 21
146.4671978098202203
 31
0.0
  0
LINE
  5
1C0
100
AcDbEntity
  8
Parts
 62
256
370
-1
 48
1.0
  6
BYLAYER
100
AcDbLine
 10
116.9749999999999943
 20
28.0500000000000007
 30
0.0
 11
116.9749999999999943
 21
27.0500000000000007
 31
0.0
  0
LINE
  5
1C1
100
AcDbEntity
  8
Parts
 62
256
370
-1
 48
1.0
  6
BYLAYER
100
AcDbLine
 10
303.1547629472746621
 20
147.4671978098202203
 30
0.0
 11
303.1547629472746621
 21
146.4671978098202203
 31
0.0
  0
LINE
  5
1C2
100
AcDbEntity
  8
Parts
 62
256
370
-1
 48
1.0
  6
BYLAYER
100
AcDbLine
 10
116.9749999999999943
 20
27.0500000000000007
 30
0.0
 11
115.9749999999999943
 21
27.0500000000000007
 31
0.0
  0
LINE
  5
1C3
100
AcDbEntity
  8
Parts
 62
256
370
-1
 48
1.0
  6
BYLAYER
100
AcDbLine
 10
303.1547629472746621
 20
146.4671978098202203
 30
0.0
 11
302.1547629472746621
 21
146.4671978098202203
 31
0.0
  0
LINE
  5
1C4
100
AcDbEntity
  8
Parts
 62
256
370
-1
 48
1.0
  6
BYLAYER
100
AcDbLine
 10
119.9749999999999943
 20
27.0500000000000007
 30
0.0
 11
120.9749999999999943
 21
27.0500000000000007
 31
0.0
  0
LINE
  5
1C5
100
AcDbEntity
  8
Parts
 62
256
370
-1
 48
1.0
  6
BYLAYER
100
AcDbLine
 10
306.1547629472746621
 20
146.4671978098202203
 30
0.0
 11
307.1547629472746621
 21
146.4671978098202203
 31
0.0
  0
LINE
  5
1C6
100
AcDbEntity
  8
Parts
 62
256
370
-1
 48
1.0
  6
BYLAYER
100
AcDbLine
 10
120.9749999999999943
 20
27.0500000000000007
 30
0.0
 11
120.9749999999999943
 21
26.0500000000000007
 31
0.0
  0
LINE
  5
1C7
100
AcDbEntity
  8
Parts
 62
256
370
-1
 48
1.0
  6
BYLAYER
100
AcDbLine
 10
307.1547629472746621
 20
146.4671978098202203
 30
0.0
 11
307.1547629472746621
 21
145.4671978098202203
 31
0.0
  0
LINE
  5
1C8
100
AcDbEntity
  8
Parts
 62
256
370
-1
 48
1.0
  6
BYLAYER
100
AcDbLine
 10
115.9749999999999943
 20
27.0500000000000007
 30
0.0
 11
115.9749999999999943
 21
26.0500000000000007
 31
0.0
  0
LINE
  5
1C9
100
AcDbEntity
  8
Parts
 62
256
370
-1
 48
1.0
  6
BYLAYER
100
AcDbLine
 10
302.1547629472746621
 20
146.4671978098202203
 30
0.0
 11
302.1547629472746621
 21
145.4671978098202203
 31
0.0
  0
LINE
  5
1CA
100
AcDbEntity
  8
Parts
 62
256
370
-1
 48
1.0
  6
BYLAYER
100
AcDbLine
 10
115.9749999999999943
 20
26.0500000000000007
 30
0.0
 11
120.9749999999999943
 21
26.0500000000000007
 31
0.0
  0
LINE
  5
1CB
100
AcDbEntity
  8
Parts
 62
256
370
-1
 48
1.0
  6
BYLAYER
100
AcDbLine
 10
302.1547629472746621
 20
145.4671978098202203
 30
0.0
 11
307.1547629472746621
 21
145.4671978098202203
 31
0.0
  0
LINE
  5
1CC
100
AcDbEntity
  8
Parts
 62
256
370
-1
 48
1.0
  6
BYLAYER
100
AcDbLine
 10
114.4500000000000028
 20
-29.1000000000000014
 30
0.0
 11
114.4500000000000028
 21
-14.8999999999999986
 31
0.0
  0
LINE
  5
1CD
100
AcDbEntity
  8
Parts
 62
256
370
-1
 48
1.0
  6
BYLAYER
100
AcDbLine
 10
92.2999999999999972
 20
-29.1000000000000014
 30
0.0
 11
92.2999999999999972
 21
-14.8999999999999986
 31
0.0
  0
LINE
  5
1CE
100
AcDbEntity
  8
Parts
 62
256
370
-1
 48
1.0
  6
BYLAYER
100
AcDbLine
 10
300.6297629472746848
 20
90.3171978098202288
 30
0.0
 11
300.6297629472746848
 21
104.5171978098202317
 31
0.0
  0
LINE
  5
1CF
100
AcDbEntity
  8
Parts
 62
256
370
-1
 48
1.0
  6
BYLAYER
100
AcDbLine
 10
262.0999999999999659
 20
91.7999999999999972
 30
0.0
 11
262.0999999999999659
 21
106.0
 31
0.0
  0
LINE
  5
1D0
100
AcDbEntity
  8
Parts
 62
256
370
-1
 48
1.0
  6
BYLAYER
100
AcDbLine
 10
114.4500000000000028
 20
-14.8999999999999986
 30
0.0
 11
117.3500000000000085
 21
-14.8999999999999986
 31
0.0
  0
LINE
  5
1D1
100
AcDbEntity
  8
Parts
 62
256
370
-1
 48
1.0
  6
BYLAYER
100
AcDbLine
 10
92.2999999999999972
 20
-14.8999999999999986
 30
0.0
 11
95.2000000000000028
 21
-14.8999999999999986
 31
0.0
  0
LINE
  5
1D2
100
AcDbEntity
  8
Parts
 62
256
370
-1
 48
1.0
  6
BYLAYER
100
AcDbLine
 10
300.6297629472746848
 20
104.5171978098202317
 30
0.0
 11
303.5297629472746621
 21
104.5171978098202317
 31
0.0
  0
LINE
  5
1D3
100
AcDbEntity
  8
Parts
 62
256
370
-1
 48
1.0
  6
BYLAYER
100
AcDbLine
 10
262.0999999999999659
 20
106.0
 30
0.0
 11
265.0
 21
106.0
 31
0.0
  0
LINE
  5
1D4
100
AcDbEntity
  8
Parts
 62
256
370
-1
 48
1.0
  6
BYLAYER
100
AcDbLine
 10
114.4500000000000028
 20
-29.1000000000000014
 30
0.0
 11
117.3500000000000085
 21
-29.1000000000000014
 31
0.0
  0
LINE
  5
1D5
100
AcDbEntity
  8
Parts
 62
256
370
-1
 48
1.0
  6
BYLAYER
100
AcDbLine
 10
92.2999999999999972
 20
-29.1000000000000014
 30
0.0
 11
95.2000000000000028
 21
-29.1000000000000014
 31
0.0
  0
LINE
  5
1D6
100
AcDbEntity
  8
Parts
 62
256
370
-1
 48
1.0
  6
BYLAYER
100
AcDbLine
 10
300.6297629472746848
 20
90.3171978098202288
 30
0.0
 11
303.5297629472746621
 21
90.3171978098202288
 31
0.0
  0
LINE
  5
1D7
100
AcDbEntity
  8
Parts
 62
256
370
-1
 48
1.0
  6
BYLAYER
100
AcDbLine
 10
262.0999999999999659
 20
91.7999999999999972
 30
0.0
 11
265.0
 21
91.7999999999999972
 31
0.0
  0
LINE
  5
1D8
100
AcDbEntity
  8
Parts
 62
256
370
-1
 48
1.0
  6
BYLAYER
100
AcDbLine
 10
117.3500000000000085
 20
-29.1000000000000014
 30
0.0
 11
117.3500000000000085
 21
-14.8999999999999968
 31
0.0
  0
LINE
  5
1D9
100
AcDbEntity
  8
Parts
 62
256
370
-1
 48
1.0
  6
BYLAYER
100
AcDbLine
 10
95.2000000000000028
 20
-29.1000000000000014
 30
0.0
 11
95.2000000000000028
 21
-14.8999999999999968
 31
0.0
  0
LINE
  5
1DA
100
AcDbEntity
  8
Parts
 62
256
370
-1
 48
1.0
  6
BYLAYER
100
AcDbLine
 10
303.5297629472746621
 20
90.3171978098202288
 30
0.0
 11
303.5297629472746621
 21
104.5171978098202317
 31
0.0
  0
LINE
  5
1DB
100
AcDbEntity
  8
Parts
 62
256
370
-1
 48
1.0
  6
BYLAYER
100
AcDbLine
 10
265.0
 20
91.7999999999999972
 30
0.0
 11
265.0
 21
106.0
 31
0.0
  0
LINE
  5
1DC
100
AcDbEntity
  8
Parts
 62
256
370
-1
 48
1.0
  6
BYLAYER
100
AcDbLine
 10
114.4500000000000028
 20
-24.5
 30
0.0
 11
112.9500000000000028
 21
-24.5
 31
0.0
  0
LINE
  5
1DD
100
AcDbEntity
  8
Parts
 62
256
370
-1
 48
1.0
  6
BYLAYER
100
AcDbLine
 10
92.2999999999999972
 20
-24.5
 30
0.0
 11
90.7999999999999972
 21
-24.5
 31
0.0
  0
LINE
  5
1DE
100
AcDbEntity
  8
Parts
 62
256
370
-1
 48
1.0
  6
BYLAYER
100
AcDbLine
 10
300.6297629472746848
 20
94.9171978098202231
 30
0.0
 11
299.1297629472746848
 21
94.9171978098202231
 31
0.0
  0
LINE
  5
1DF
100
AcDbEntity
  8
Parts
 62
256
370
-1
 48
1.0
  6
BYLAYER
100
AcDbLine
 10
262.0999999999999659
 20
96.3999999999999915
 30
0.0
 11
260.5999999999999659
 21
96.3999999999999915
 31
0.0
  0
LINE
  5
1E0
100
AcDbEntity
  8
Parts
 62
256
370
-1
 48
1.0
  6
BYLAYER
100
AcDbLine
 10
112.9500000000000028
 20
-24.5
 30
0.0
 11
112.9500000000000028
 21
-22.5
 31
0.0
  0
LINE
  5
1E1
100
AcDbEntity
  8
Parts
 62
256
370
-1
 48
1.0
  6
BYLAYER
100
AcDbLine
 10
90.7999999999999972
 20
-24.5
 30
0.0
 11
90.7999999999999972
 21
-22.5
 31
0.0
  0
LINE
  5
1E2
100
AcDbEntity
  8
Parts
 62
256
370
-1
 48
1.0
  6
BYLAYER
100
AcDbLine
 10
299.1297629472746848
 20
94.9171978098202231
 30
0.0
 11
299.1297629472746848
 21
96.9171978098202231
 31
0.0
  0
LINE
  5
1E3
100
AcDbEntity
  8
Parts
 62
256
370
-1
 48
1.0
  6
BYLAYER
100
AcDbLine
 10
260.5999999999999659
 20
96.3999999999999915
 30
0.0
 11
260.5999999999999659
 21
98.3999999999999915
 31
0.0
  0
LINE
  5
1E4
100
AcDbEntity
  8
Parts
 62
256
370
-1
 48
1.0
  6
BYLAYER
100
AcDbLine
 10
112.9500000000000028
 20
-22.5
 30
0.0
 11
114.4500000000000028
 21
-22.5
 31
0.0
  0
LINE
  5
1E5
100
AcDbEntity
  8
Parts
 62
256
370
-1
 48
1.0
  6
BYLAYER
100
AcDbLine
 10
90.7999999999999972
 20
-22.5
 30
0.0
 11
92.2999999999999972
 21
-22.5
 31
0.0
  0
LINE
  5
1E6
100
AcDbEntity
  8
Parts
 62
256
370
-1
 48
1.0
  6
BYLAYER
100
AcDbLine
 10
299.1297629472746848
 20
96.9171978098202231
 30
0.0
 11
300.6297629472746848
 21
96.9171978098202231
 31
0.0
  0
LINE
  5
1E7
100
AcDbEntity
  8
Parts
 62
256
370
-1
 48
1.0
  6
BYLAYER
100
AcDbLine
 10
260.5999999999999659
 20
98.3999999999999915
 30
0.0
 11
262.0999999999999659
 21
98.3999999999999915
 31
0.0
  0
LINE
  5
1E8
100
AcDbEntity
  8
Parts
 62
256
370
-1
 48
1.0
  6
BYLAYER
100
AcDbLine
 10
111.4500000000000028
 20
-19.5
 30
0.0
 11
111.4500000000000028
 21
-24.5
 31
0.0
  0
LINE
  5
1E9
100
AcDbEntity
  8
Parts
 62
256
370
-1
 48
1.0
  6
BYLAYER
100
AcDbLine
 10
297.6297629472746848
 20
99.9171978098202231
 30
0.0
 11
297.6297629472746848
 21
94.9171978098202231
 31
0.0
  0
LINE
  5
1EA
100
AcDbEntity
  8
Parts
 62
256
370
-1
 48
1.0
  6
BYLAYER
100
AcDbLine
 10
111.4500000000000028
 20
-19.5
 30
0.0
 11
112.1571067811865561
 21
-20.2071067811865461
 31
0.0
  0
LINE
  5
1EB
100
AcDbEntity
  8
Parts
 62
256
370
-1
 48
1.0
  6
BYLAYER
100
AcDbLine
 10
297.6297629472746848
 20
99.9171978098202231
 30
0.0
 11
298.3368697284612381
 21
99.2100910286336841
 31
0.0
  0
LINE
  5
1EC
100
AcDbEntity
  8
Parts
 62
256
370
-1
 48
1.0
  6
BYLAYER
100
AcDbLine
 10
111.4500000000000028
 20
-19.5000000000000036
 30
0.0
 11
110.7428932188134496
 21
-20.2071067811865497
 31
0.0
  0
LINE
  5
1ED
100
AcDbEntity
  8
Parts
 62
256
370
-1
 48
1.0
  6
BYLAYER
100
AcDbLine
 10
297.6297629472746848
 20
99.9171978098202231
 30
0.0
 11
296.9226561660881316
 21
99.2100910286336841
 31
0.0
  0
LINE
  5
1EE
100
AcDbEntity
  8
Parts
 62
256
370
-1
 48
1.0
  6
BYLAYER
100
AcDbLine
 10
111.4500000000000028
 20
-24.5
 30
0.0
 11
110.7428932188134496
 21
-23.7928932188134539
 31
0.0
  0
LINE
  5
1EF
100
AcDbEntity
  8
Parts
 62
256
370
-1
 48
1.0
  6
BYLAYER
100
AcDbLine
 10
297.6297629472746848
 20
94.9171978098202231
 30
0.0
 11
296.9226561660881316
 21
95.6243045910067764
 31
0.0
  0
LINE
  5
1F0
100
AcDbEntity
  8
Parts
 62
256
370
-1
 48
1.0
  6
BYLAYER
100
AcDbLine
 10
111.4500000000000028
 20
-24.5
 30
0.0
 11
112.1571067811865561
 21
-23.7928932188134539
 31
0.0
  0
LINE
  5
1F1
100
AcDbEntity
  8
Parts
 62
256
370
-1
 48
1.0
  6
BYLAYER
100
AcDbLine
 10
297.6297629472746848
 20
94.9171978098202231
 30
0.0
 11
298.3368697284612381
 21
95.6243045910067764
 31
0.0
  0
DIMENSION
  5
1F2
100
AcDbEntity
  8
Parts
 62
256
370
-1
 48
1.0
  6
BYLAYER
100
AcDbDimension
 10
106.3755185538933574
 20
-19.5
 30
0.0
 11
104.5005185538933574
 21
-22.0
 31
0.0
 70
0
 71
8
 72
2
 74
0
 75
0
 41
1.0
 42
0.0
  1

  3
Standard
100
AcDbAlignedDimension
 13
111.4500000000000028
 23
-19.5
 33
0.0
 14
111.4500000000000028
 24
-24.4999999999999964
 34
0.0
 50
90.0
100
AcDbRotatedDimension
1001
ACAD
1000
DSTYLE
1002
{
1070
144
1040
1.0
1070
40
1040
1.0
1002
}
  0
DIMENSION
  5
1F3
100
AcDbEntity
  8
Parts
 62
256
370
-1
 48
1.0
  6
BYLAYER
100
AcDbDimension
 10
292.5552815011679968
 20
99.9171978098202516
 30
0.0
 11
290.6802815011679968
 21
97.4171978098202089
 31
0.0
 70
0
 71
8
 72
2
 74
0
 75
0
 41
1.0
 42
0.0
  1

  3
Standard
100
AcDbAlignedDimension
 13
297.629762947274628
 23
99.9171978098202089
 33
0.0
 14
297.629762947274628
 24
94.9171978098201947
 34
0.0
 50
90.0
100
AcDbRotatedDimension
1001
ACAD
1000
DSTYLE
1002
{
1070
144
1040
1.0
1070
40
1040
1.0
1002
}
  0
MTEXT
  5
1F4
100
AcDbEntity
  8
Parts
 62
256
370
-1
 48
1.0
  6
BYLAYER
100
AcDbMText
 10
100.0
 20
-32.0
 30
0.0
 40
2.0
 41
0.0
 71
1
 72
1
  1
Travel distance\P
  7
textstyle6
 50
90.0
 73
2
 44
1.0
  0
MTEXT
  5
1F5
100
AcDbEntity
  8
Parts
 62
256
370
-1
 48
1.0
  6
BYLAYER
100
AcDbMText
 10
286.1797629472746394
 20
87.4171978098201805
 30
0.0
 40
2.0
 41
0.0
 71
1
 72
1
  1
Travel distance\P
  7
textstyle2
 50
90.0
 73
2
 44
1.0
  0
LINE
  5
1F6
100
AcDbEntity
  8
Parts
 62
256
370
-1
 48
1.0
  6
BYLAYER
100
AcDbLine
 10
189.2750000000000057
 20
6.2000000000000002
 30
0.0
 11
187.7750000000000057
 21
6.2000000000000002
 31
0.0
  0
LINE
  5
1F7
100
AcDbEntity
  8
Parts
 62
256
370
-1
 48
1.0
  6
BYLAYER
100
AcDbLine
 10
215.5
 20
6.2499999999999991
 30
0.0
 11
214.0
 21
6.2499999999999991
 31
0.0
  0
LINE
  5
1F8
100
AcDbEntity
  8
Parts
 62
256
370
-1
 48
1.0
  6
BYLAYER
100
AcDbLine
 10
375.4547629472746735
 20
125.617197809820226
 30
0.0
 11
373.9547629472746735
 21
125.617197809820226
 31
0.0
  0
LINE
  5
1F9
100
AcDbEntity
  8
Parts
 62
256
370
-1
 48
1.0
  6
BYLAYER
100
AcDbLine
 10
418.5
 20
129.75
 30
0.0
 11
417.0
 21
129.75
 31
0.0
  0
LINE
  5
1FA
100
AcDbEntity
  8
Parts
 62
256
370
-1
 48
1.0
  6
BYLAYER
100
AcDbLine
 10
189.2750000000000057
 20
6.2000000000000002
 30
0.0
 11
189.2750000000000057
 21
8.5
 31
0.0
  0
LINE
  5
1FB
100
AcDbEntity
  8
Parts
 62
256
370
-1
 48
1.0
  6
BYLAYER
100
AcDbLine
 10
215.5
 20
6.2499999999999991
 30
0.0
 11
215.5
 21
8.5499999999999989
 31
0.0
  0
LINE
  5
1FC
100
AcDbEntity
  8
Parts
 62
256
370
-1
 48
1.0
  6
BYLAYER
100
AcDbLine
 10
375.4547629472746735
 20
125.617197809820226
 30
0.0
 11
375.4547629472746735
 21
127.9171978098202231
 31
0.0
  0
LINE
  5
1FD
100
AcDbEntity
  8
Parts
 62
256
370
-1
 48
1.0
  6
BYLAYER
100
AcDbLine
 10
418.5
 20
129.75
 30
0.0
 11
418.5
 21
132.0499999999999829
 31
0.0
  0
LINE
  5
1FE
100
AcDbEntity
  8
Parts
 62
256
370
-1
 48
1.0
  6
BYLAYER
100
AcDbLine
 10
189.2750000000000057
 20
8.5
 30
0.0
 11
187.7750000000000057
 21
8.5
 31
0.0
  0
LINE
  5
1FF
100
AcDbEntity
  8
Parts
 62
256
370
-1
 48
1.0
  6
BYLAYER
100
AcDbLine
 10
215.5
 20
8.5499999999999989
 30
0.0
 11
214.0
 21
8.5499999999999989
 31
0.0
  0
LINE
  5
200
100
AcDbEntity
  8
Parts
 62
256
370
-1
 48
1.0
  6
BYLAYER
100
AcDbLine
 10
375.4547629472746735
 20
127.9171978098202231
 30
0.0
 11
373.9547629472746735
 21
127.9171978098202231
 31
0.0
  0
LINE
  5
201
100
AcDbEntity
  8
Parts
 62
256
370
-1
 48
1.0
  6
BYLAYER
100
AcDbLine
 10
418.5
 20
132.0499999999999829
 30
0.0
 11
417.0
 21
132.0499999999999829
 31
0.0
  0
LINE
  5
202
100
AcDbEntity
  8
Parts
 62
256
370
-1
 48
1.0
  6
BYLAYER
100
AcDbLine
 10
192.2750000000000057
 20
6.2000000000000011
 30
0.0
 11
191.5678932188134524
 21
6.907106781186549
 31
0.0
  0
LINE
  5
203
100
AcDbEntity
  8
Parts
 62
256
370
-1
 48
1.0
  6
BYLAYER
100
AcDbLine
 10
378.4547629472746735
 20
125.617197809820226
 30
0.0
 11
377.7476561660881202
 21
126.3243045910067792
 31
0.0
  0
LINE
  5
204
100
AcDbEntity
  8
Parts
 62
256
370
-1
 48
1.0
  6
BYLAYER
100
AcDbLine
 10
192.2750000000000057
 20
6.2000000000000011
 30
0.0
 11
192.2750000000000057
 21
13.6999999999999993
 31
0.0
  0
LINE
  5
205
100
AcDbEntity
  8
Parts
 62
256
370
-1
 48
1.0
  6
BYLAYER
100
AcDbLine
 10
378.4547629472746735
 20
125.617197809820226
 30
0.0
 11
378.4547629472746735
 21
133.117197809820226
 31
0.0
  0
LINE
  5
206
100
AcDbEntity
  8
Parts
 62
256
370
-1
 48
1.0
  6
BYLAYER
100
AcDbLine
 10
192.2750000000000057
 20
13.6999999999999993
 30
0.0
 11
192.9821067811865589
 21
12.9928932188134514
 31
0.0
  0
LINE
  5
207
100
AcDbEntity
  8
Parts
 62
256
370
-1
 48
1.0
  6
BYLAYER
100
AcDbLine
 10
378.4547629472746735
 20
133.117197809820226
 30
0.0
 11
379.1618697284612267
 21
132.4100910286336727
 31
0.0
  0
LINE
  5
208
100
AcDbEntity
  8
Parts
 62
256
370
-1
 48
1.0
  6
BYLAYER
100
AcDbLine
 10
192.2750000000000057
 20
13.7000000000000011
 30
0.0
 11
191.5678932188134524
 21
12.9928932188134532
 31
0.0
  0
LINE
  5
209
100
AcDbEntity
  8
Parts
 62
256
370
-1
 48
1.0
  6
BYLAYER
100
AcDbLine
 10
378.4547629472746735
 20
133.117197809820226
 30
0.0
 11
377.7476561660881202
 21
132.4100910286336727
 31
0.0
  0
LINE
  5
20A
100
AcDbEntity
  8
Parts
 62
256
370
-1
 48
1.0
  6
BYLAYER
100
AcDbLine
 10
192.2750000000000057
 20
6.2000000000000011
 30
0.0
 11
192.9821067811865589
 21
6.907106781186549
 31
0.0
  0
LINE
  5
20B
100
AcDbEntity
  8
Parts
 62
256
370
-1
 48
1.0
  6
BYLAYER
100
AcDbLine
 10
378.4547629472746735
 20
125.617197809820226
 30
0.0
 11
379.1618697284612267
 21
126.3243045910067792
 31
0.0
  0
DIMENSION
  5
20C
100
AcDbEntity
  8
Parts
 62
256
370
-1
 48
1.0
  6
BYLAYER
100
AcDbDimension
 10
198.0061626235741414
 20
13.6999999999999762
 30
0.0
 11
196.1311626235741414
 21
9.9499999999999726
 31
0.0
 70
0
 71
8
 72
2
 74
0
 75
0
 41
1.0
 42
0.0
  1

  3
Standard
100
AcDbAlignedDimension
 13
192.2750000000000057
 23
13.6999999999999762
 33
0.0
 14
192.2750000000000057
 24
6.1999999999999691
 34
0.0
 50
90.0
100
AcDbRotatedDimension
1001
ACAD
1000
DSTYLE
1002
{
1070
144
1040
1.0
1070
40
1040
1.0
1002
}
  0
DIMENSION
  5
20D
100
AcDbEntity
  8
Parts
 62
256
370
-1
 48
1.0
  6
BYLAYER
100
AcDbDimension
 10
384.1859255708487808
 20
133.1171978098201123
 30
0.0
 11
382.3109255708487808
 21
129.3671978098205102
 31
0.0
 70
0
 71
8
 72
2
 74
0
 75
0
 41
1.0
 42
0.0
  1

  3
Standard
100
AcDbAlignedDimension
 13
378.4547629472746735
 23
133.1171978098204249
 33
0.0
 14
378.4547629472746735
 24
125.6171978098205955
 34
0.0
 50
90.0
100
AcDbRotatedDimension
1001
ACAD
1000
DSTYLE
1002
{
1070
144
1040
1.0
1070
40
1040
1.0
1002
}
  0
MTEXT
  5
20E
100
AcDbEntity
  8
Parts
 62
256
370
-1
 48
1.0
  6
BYLAYER
100
AcDbMText
 10
200.4653832132803473
 20
0.412335798238896
 30
0.0
 40
2.0
 41
0.0
 71
1
 72
1
  1
Travel distance\P
  7
textstyle7
 50
90.0
 73
2
 44
1.0
  0
MTEXT
  5
20F
100
AcDbEntity
  8
Parts
 62
256
370
-1
 48
1.0
  6
BYLAYER
100
AcDbMText
 10
386.6451461605549866
 20
119.8295336080651339
 30
0.0
 40
2.0
 41
0.0
 71
1
 72
1
  1
Travel distance\P
  7
textstyle3
 50
90.0
 73
2
 44
1.0
  0
DIMENSION
  5
210
100
AcDbEntity
  8
Medidas Horizontal
 62
256
370
-1
 48
1.0
  6
BYLAYER
100
AcDbDimension
 10
113.6500000000000199
 20
-71.0
 30
0.0
 11
150.7125000000000057
 21
-69.125
 31
0.0
 70
0
 71
8
 72
2
 74
0
 75
0
 41
1.0
 42
0.0
  1

  3
Standard
100
AcDbAlignedDimension
 13
113.6500000000000199
 23
-34.2000000000000028
 33
0.0
 14
187.7750000000000057
 24
-34.2000000000000028
 34
0.0
 50
0.0
100
AcDbRotatedDimension
1001
ACAD
1000
DSTYLE
1002
{
1070
144
1040
1.0
1070
40
1040
1.0
1002
}
  0
DIMENSION
  5
211
100
AcDbEntity
  8
Medidas Horizontal
 62
256
370
-1
 48
1.0
  6
BYLAYER
100
AcDbDimension
 10
153.25
 20
-60.0
 30
0.0
 11
168.75
 21
-58.125
 31
0.0
 70
0
 71
8
 72
2
 74
0
 75
0
 41
1.0
 42
0.0
  1

  3
Standard
100
AcDbAlignedDimension
 13
153.25
 23
-44.5000000000000284
 33
0.0
 14
184.25
 24
-39.2000000000000028
 34
0.0
 50
0.0
100
AcDbRotatedDimension
1001
ACAD
1000
DSTYLE
1002
{
1070
144
1040
1.0
1070
40
1040
1.0
1002
}
  0
DIMENSION
  5
212
100
AcDbEntity
  8
Medidas Horizontal
 62
256
370
-1
 48
1.0
  6
BYLAYER
100
AcDbDimension
 10
153.25
 20
-65.0
 30
0.0
 11
170.5500000000000114
 21
-63.125
 31
0.0
 70
0
 71
8
 72
2
 74
0
 75
0
 41
1.0
 42
0.0
  1

  3
Standard
100
AcDbAlignedDimension
 13
153.25
 23
-44.5000000000000284
 33
0.0
 14
187.8500000000000512
 24
-39.2000000000000099
 34
0.0
 50
0.0
100
AcDbRotatedDimension
1001
ACAD
1000
DSTYLE
1002
{
1070
144
1040
1.0
1070
40
1040
1.0
1002
}
  0
DIMENSION
  5
213
100
AcDbEntity
  8
Medidas Horizontal
 62
256
370
-1
 48
1.0
  6
BYLAYER
100
AcDbDimension
 10
150.0
 20
-56.0
 30
0.0
 11
156.7916666666666572
 21
-54.125
 31
0.0
 70
0
 71
8
 72
2
 74
0
 75
0
 41
1.0
 42
0.0
  1

  3
Standard
100
AcDbAlignedDimension
 13
150.0
 23
-44.2349999999999994
 33
0.0
 14
153.25
 24
-44.5000000000000284
 34
0.0
 50
0.0
100
AcDbRotatedDimension
1001
ACAD
1000
DSTYLE
1002
{
1070
144
1040
1.0
1070
40
1040
1.0
1002
}
  0
DIMENSION
  5
214
100
AcDbEntity
  8
Medidas Horizontal
 62
256
370
-1
 48
1.0
  6
BYLAYER
100
AcDbDimension
 10
182.3249999999999886
 20
37.5364316917674046
 30
0.0
 11
191.455555555555577
 21
39.4114316917674046
 31
0.0
 70
0
 71
8
 72
2
 74
0
 75
0
 41
1.0
 42
0.0
  1

  3
Standard
100
AcDbAlignedDimension
 13
182.3249999999999886
 23
28.0500000000000007
 33
0.0
 14
187.7750000000000057
 24
29.0500000000000043
 34
0.0
 50
0.0
100
AcDbRotatedDimension
1001
ACAD
1000
DSTYLE
1002
{
1070
144
1040
1.0
1070
40
1040
1.0
1002
}
  0
DIMENSION
  5
215
100
AcDbEntity
  8
Medidas Horizontal
 62
256
370
-1
 48
1.0
  6
BYLAYER
100
AcDbDimension
 10
166.7750000000000057
 20
42.0
 30
0.0
 11
177.2750000000000057
 21
43.875
 31
0.0
 70
0
 71
8
 72
2
 74
0
 75
0
 41
1.0
 42
0.0
  1

  3
Standard
100
AcDbAlignedDimension
 13
166.7750000000000057
 23
29.0500000000000043
 33
0.0
 14
187.7750000000000057
 24
29.0500000000000043
 34
0.0
 50
0.0
100
AcDbRotatedDimension
1001
ACAD
1000
DSTYLE
1002
{
1070
144
1040
1.0
1070
40
1040
1.0
1002
}
  0
DIMENSION
  5
216
100
AcDbEntity
  8
Medidas Horizontal
 62
256
370
-1
 48
1.0
  6
BYLAYER
100
AcDbDimension
 10
187.7750000000000057
 20
48.0
 30
0.0
 11
173.0625
 21
49.875
 31
0.0
 70
0
 71
8
 72
2
 74
0
 75
0
 41
1.0
 42
0.0
  1

  3
Standard
100
AcDbAlignedDimension
 13
187.7750000000000057
 23
29.0500000000000043
 33
0.0
 14
158.3499999999999943
 24
33.1000000000000014
 34
0.0
 50
0.0
100
AcDbRotatedDimension
1001
ACAD
1000
DSTYLE
1002
{
1070
144
1040
1.0
1070
40
1040
1.0
1002
}
  0
DIMENSION
  5
217
100
AcDbEntity
  8
Medidas Horizontal
 62
256
370
-1
 48
1.0
  6
BYLAYER
100
AcDbDimension
 10
163.3499999999999943
 20
53.0
 30
0.0
 11
158.3499999999999943
 21
54.875
 31
0.0
 70
0
 71
8
 72
2
 74
0
 75
0
 41
1.0
 42
0.0
  1

  3
Standard
100
AcDbAlignedDimension
 13
163.3499999999999943
 23
33.0999999999999943
 33
0.0
 14
153.3499999999999943
 24
33.0999999999999943
 34
0.0
 50
0.0
100
AcDbRotatedDimension
1001
ACAD
1000
DSTYLE
1002
{
1070
144
1040
1.0
1070
40
1040
1.0
1002
}
  0
DIMENSION
  5
218
100
AcDbEntity
  8
Medidas Horizontal
 62
256
370
-1
 48
1.0
  6
BYLAYER
100
AcDbDimension
 10
146.6500000000000057
 20
53.0
 30
0.0
 11
140.5
 21
54.875
 31
0.0
 70
0
 71
8
 72
2
 74
0
 75
0
 41
1.0
 42
0.0
  1

  3
Standard
100
AcDbAlignedDimension
 13
146.6500000000000057
 23
33.1000000000000014
 33
0.0
 14
134.3499999999999943
 24
33.1000000000000014
 34
0.0
 50
0.0
100
AcDbRotatedDimension
1001
ACAD
1000
DSTYLE
1002
{
1070
144
1040
1.0
1070
40
1040
1.0
1002
}
  0
DIMENSION
  5
219
100
AcDbEntity
  8
Medidas Horizontal
 62
256
370
-1
 48
1.0
  6
BYLAYER
100
AcDbDimension
 10
187.7750000000000057
 20
59.0
 30
0.0
 11
168.8874999999999886
 21
60.875
 31
0.0
 70
0
 71
8
 72
2
 74
0
 75
0
 41
1.0
 42
0.0
  1

  3
Standard
100
AcDbAlignedDimension
 13
187.7750000000000057
 23
29.0500000000000043
 33
0.0
 14
150.0
 24
25.8999999999999986
 34
0.0
 50
0.0
100
AcDbRotatedDimension
1001
ACAD
1000
DSTYLE
1002
{
1070
144
1040
1.0
1070
40
1040
1.0
1002
}
  0
DIMENSION
  5
21A
100
AcDbEntity
  8
Medidas Horizontal
 62
256
370
-1
 48
1.0
  6
BYLAYER
100
AcDbDimension
 10
150.0
 20
62.0
 30
0.0
 11
153.5416666666666572
 21
63.875
 31
0.0
 70
0
 71
8
 72
2
 74
0
 75
0
 41
1.0
 42
0.0
  1

  3
Standard
100
AcDbAlignedDimension
 13
150.0
 23
25.8999999999999986
 33
0.0
 14
146.6500000000000057
 24
25.9000000000000021
 34
0.0
 50
0.0
100
AcDbRotatedDimension
1001
ACAD
1000
DSTYLE
1002
{
1070
144
1040
1.0
1070
40
1040
1.0
1002
}
  0
DIMENSION
  5
21B
100
AcDbEntity
  8
Medidas Horizontal
 62
256
370
-1
 48
1.0
  6
BYLAYER
100
AcDbDimension
 10
132.7249999999999943
 20
66.0
 30
0.0
 11
138.5861111111111086
 21
67.875
 31
0.0
 70
0
 71
8
 72
2
 74
0
 75
0
 41
1.0
 42
0.0
  1

  3
Standard
100
AcDbAlignedDimension
 13
132.7249999999999943
 23
32.1000000000000014
 33
0.0
 14
134.3499999999999943
 24
32.1000000000000014
 34
0.0
 50
0.0
100
AcDbRotatedDimension
1001
ACAD
1000
DSTYLE
1002
{
1070
144
1040
1.0
1070
40
1040
1.0
1002
}
  0
DIMENSION
  5
21C
100
AcDbEntity
  8
Medidas Horizontal
 62
256
370
-1
 48
1.0
  6
BYLAYER
100
AcDbDimension
 10
134.3499999999999943
 20
17.0
 30
0.0
 11
137.4250000000000114
 21
18.875
 31
0.0
 70
0
 71
8
 72
2
 74
0
 75
0
 41
1.0
 42
0.0
  1

  3
Standard
100
AcDbAlignedDimension
 13
134.3499999999999943
 23
33.1000000000000014
 33
0.0
 14
140.5
 24
33.1000000000000014
 34
0.0
 50
0.0
100
AcDbRotatedDimension
1001
ACAD
1000
DSTYLE
1002
{
1070
144
1040
1.0
1070
40
1040
1.0
1002
}
  0
DIMENSION
  5
21D
100
AcDbEntity
  8
Medidas Horizontal
 62
256
370
-1
 48
1.0
  6
BYLAYER
100
AcDbDimension
 10
150.0
 20
9.0
 30
0.0
 11
139.375
 21
10.875
 31
0.0
 70
0
 71
8
 72
2
 74
0
 75
0
 41
1.0
 42
0.0
  1

  3
Standard
100
AcDbAlignedDimension
 13
150.0
 23
-0.1000000000000014
 33
0.0
 14
128.75
 24
-0.3
 34
0.0
 50
0.0
100
AcDbRotatedDimension
1001
ACAD
1000
DSTYLE
1002
{
1070
144
1040
1.0
1070
40
1040
1.0
1002
}
  0
DIMENSION
  5
21E
100
AcDbEntity
  8
Medidas Horizontal
 62
256
370
-1
 48
1.0
  6
BYLAYER
100
AcDbDimension
 10
128.75
 20
5.0
 30
0.0
 11
134.1416666666666799
 21
6.875
 31
0.0
 70
0
 71
8
 72
2
 74
0
 75
0
 41
1.0
 42
0.0
  1

  3
Standard
100
AcDbAlignedDimension
 13
128.75
 23
2.7999999999999998
 33
0.0
 14
131.8499999999999943
 24
2.7999999999999998
 34
0.0
 50
0.0
100
AcDbRotatedDimension
1001
ACAD
1000
DSTYLE
1002
{
1070
144
1040
1.0
1070
40
1040
1.0
1002
}
  0
DIMENSION
  5
21F
100
AcDbEntity
  8
Medidas Horizontal
 62
256
370
-1
 48
1.0
  6
BYLAYER
100
AcDbDimension
 10
123.4500000000000028
 20
-14.0
 30
0.0
 11
128.4499999999999886
 21
-12.125
 31
0.0
 70
0
 71
8
 72
2
 74
0
 75
0
 41
1.0
 42
0.0
  1

  3
Standard
100
AcDbAlignedDimension
 13
123.4500000000000028
 23
0.1499999999999968
 33
0.0
 14
133.4499999999999886
 24
-4.1000000000000032
 34
0.0
 50
0.0
100
AcDbRotatedDimension
1001
ACAD
1000
DSTYLE
1002
{
1070
144
1040
1.0
1070
40
1040
1.0
1002
}
  0
DIMENSION
  5
220
100
AcDbEntity
  8
Medidas Horizontal
 62
256
370
-1
 48
1.0
  6
BYLAYER
100
AcDbDimension
 10
133.4499999999999886
 20
-20.6000000000000014
 30
0.0
 11
141.7249999999999943
 21
-18.7250000000000014
 31
0.0
 70
0
 71
8
 72
2
 74
0
 75
0
 41
1.0
 42
0.0
  1

  3
Standard
100
AcDbAlignedDimension
 13
133.4499999999999886
 23
-4.1000000000000032
 33
0.0
 14
150.0
 24
0.6499999999999986
 34
0.0
 50
0.0
100
AcDbRotatedDimension
1001
ACAD
1000
DSTYLE
1002
{
1070
144
1040
1.0
1070
40
1040
1.0
1002
}
  0
DIMENSION
  5
221
100
AcDbEntity
  8
Medidas Horizontal
 62
256
370
-1
 48
1.0
  6
BYLAYER
100
AcDbDimension
 10
150.25
 20
-15.0
 30
0.0
 11
155.3194444444444571
 21
-13.125
 31
0.0
 70
0
 71
8
 72
2
 74
0
 75
0
 41
1.0
 42
0.0
  1

  3
Standard
100
AcDbAlignedDimension
 13
150.25
 23
-10.0499999999999989
 33
0.0
 14
152.75
 24
-10.0499999999999989
 34
0.0
 50
0.0
100
AcDbRotatedDimension
1001
ACAD
1000
DSTYLE
1002
{
1070
144
1040
1.0
1070
40
1040
1.0
1002
}
  0
DIMENSION
  5
222
100
AcDbEntity
  8
Medidas Horizontal
 62
256
370
-1
 48
1.0
  6
BYLAYER
100
AcDbDimension
 10
151.5
 20
-4.0
 30
0.0
 11
153.7916666666666572
 21
-2.1250000000000009
 31
0.0
 70
0
 71
8
 72
2
 74
0
 75
0
 41
1.0
 42
0.0
  1

  3
Standard
100
AcDbAlignedDimension
 13
151.5
 23
-10.0499999999999989
 33
0.0
 14
150.0
 24
0.0249999999999986
 34
0.0
 50
0.0
100
AcDbRotatedDimension
1001
ACAD
1000
DSTYLE
1002
{
1070
144
1040
1.0
1070
40
1040
1.0
1002
}
  0
DIMENSION
  5
223
100
AcDbEntity
  8
Medidas Horizontal
 62
256
370
-1
 48
1.0
  6
BYLAYER
100
AcDbDimension
 10
163.8499999999999943
 20
-19.0
 30
0.0
 11
170.5999999999999943
 21
-17.125
 31
0.0
 70
0
 71
8
 72
2
 74
0
 75
0
 41
1.0
 42
0.0
  1

  3
Standard
100
AcDbAlignedDimension
 13
163.8499999999999943
 23
-2.240000000000002
 33
0.0
 14
177.3499999999999943
 24
-2.240000000000002
 34
0.0
 50
0.0
100
AcDbRotatedDimension
1001
ACAD
1000
DSTYLE
1002
{
1070
144
1040
1.0
1070
40
1040
1.0
1002
}
  0
DIMENSION
  5
224
100
AcDbEntity
  8
Medidas Horizontal
 62
256
370
-1
 48
1.0
  6
BYLAYER
100
AcDbDimension
 10
163.8499999999999943
 20
11.0
 30
0.0
 11
167.2249999999999659
 21
12.875
 31
0.0
 70
0
 71
8
 72
2
 74
0
 75
0
 41
1.0
 42
0.0
  1

  3
Standard
100
AcDbAlignedDimension
 13
163.8499999999999943
 23
-2.240000000000002
 33
0.0
 14
170.5999999999999659
 24
-9.1400000000000006
 34
0.0
 50
0.0
100
AcDbRotatedDimension
1001
ACAD
1000
DSTYLE
1002
{
1070
144
1040
1.0
1070
40
1040
1.0
1002
}
  0
DIMENSION
  5
225
100
AcDbEntity
  8
Medidas Horizontal
 62
256
370
-1
 48
1.0
  6
BYLAYER
100
AcDbDimension
 10
163.8499999999999943
 20
19.0
 30
0.0
 11
156.9250000000000114
 21
20.875
 31
0.0
 70
0
 71
8
 72
2
 74
0
 75
0
 41
1.0
 42
0.0
  1

  3
Standard
100
AcDbAlignedDimension
 13
163.8499999999999943
 23
-2.240000000000002
 33
0.0
 14
150.0
 24
0.6499999999999986
 34
0.0
 50
0.0
100
AcDbRotatedDimension
1001
ACAD
1000
DSTYLE
1002
{
1070
144
1040
1.0
1070
40
1040
1.0
1002
}
  0
DIMENSION
  5
226
100
AcDbEntity
  8
Medidas Horizontal
 62
256
370
-1
 48
1.0
  6
BYLAYER
100
AcDbDimension
 10
177.3499999999999943
 20
-19.0
 30
0.0
 11
182.5625
 21
-17.125
 31
0.0
 70
0
 71
8
 72
2
 74
0
 75
0
 41
1.0
 42
0.0
  1

  3
Standard
100
AcDbAlignedDimension
 13
177.3499999999999943
 23
-2.240000000000002
 33
0.0
 14
187.7750000000000057
 24
-2.240000000000002
 34
0.0
 50
0.0
100
AcDbRotatedDimension
1001
ACAD
1000
DSTYLE
1002
{
1070
144
1040
1.0
1070
40
1040
1.0
1002
}
  0
DIMENSION
  5
227
100
AcDbEntity
  8
Medidas Horizontal
 62
256
370
-1
 48
1.0
  6
BYLAYER
100
AcDbDimension
 10
214.0
 20
20.0
 30
0.0
 11
217.7916666666666572
 21
21.875
 31
0.0
 70
0
 71
8
 72
2
 74
0
 75
0
 41
1.0
 42
0.0
  1

  3
Standard
100
AcDbAlignedDimension
 13
214.0
 23
8.5499999999999989
 33
0.0
 14
215.5
 24
8.5499999999999989
 34
0.0
 50
0.0
100
AcDbRotatedDimension
1001
ACAD
1000
DSTYLE
1002
{
1070
144
1040
1.0
1070
40
1040
1.0
1002
}
  0
DIMENSION
  5
228
100
AcDbEntity
  8
Medidas Horizontal
 62
256
370
-1
 48
1.0
  6
BYLAYER
100
AcDbDimension
 10
208.5000000000000568
 20
27.0
 30
0.0
 11
211.2500000000000568
 21
28.875
 31
0.0
 70
0
 71
8
 72
2
 74
0
 75
0
 41
1.0
 42
0.0
  1

  3
Standard
100
AcDbAlignedDimension
 13
208.5000000000000568
 23
15.5
 33
0.0
 14
214.0000000000000284
 24
15.5
 34
0.0
 50
0.0
100
AcDbRotatedDimension
1001
ACAD
1000
DSTYLE
1002
{
1070
144
1040
1.0
1070
40
1040
1.0
1002
}
  0
DIMENSION
  5
229
100
AcDbEntity
  8
Medidas Horizontal
 62
256
370
-1
 48
1.0
  6
BYLAYER
100
AcDbDimension
 10
112.1500000000000057
 20
-60.0
 30
0.0
 11
115.9416666666666771
 21
-58.125
 31
0.0
 70
0
 71
8
 72
2
 74
0
 75
0
 41
1.0
 42
0.0
  1

  3
Standard
100
AcDbAlignedDimension
 13
112.1500000000000057
 23
-36.7000000000000028
 33
0.0
 14
113.6500000000000199
 24
-34.2000000000000028
 34
0.0
 50
0.0
100
AcDbRotatedDimension
1001
ACAD
1000
DSTYLE
1002
{
1070
144
1040
1.0
1070
40
1040
1.0
1002
}
  0
DIMENSION
  5
22A
100
AcDbEntity
  8
Medidas Horizontal
 62
256
370
-1
 48
1.0
  6
BYLAYER
100
AcDbDimension
 10
92.2999999999999972
 20
-1.0
 30
0.0
 11
94.5916666666666686
 21
0.8749999999999992
 31
0.0
 70
0
 71
8
 72
2
 74
0
 75
0
 41
1.0
 42
0.0
  1

  3
Standard
100
AcDbAlignedDimension
 13
92.2999999999999972
 23
-22.5
 33
0.0
 14
90.7999999999999972
 24
-22.5
 34
0.0
 50
0.0
100
AcDbRotatedDimension
1001
ACAD
1000
DSTYLE
1002
{
1070
144
1040
1.0
1070
40
1040
1.0
1002
}
  0
DIMENSION
  5
22B
100
AcDbEntity
  8
Medidas Horizontal
 62
256
370
-1
 48
1.0
  6
BYLAYER
100
AcDbDimension
 10
95.2000000000000028
 20
-8.0
 30
0.0
 11
97.7694444444444457
 21
-6.1250000000000009
 31
0.0
 70
0
 71
8
 72
2
 74
0
 75
0
 41
1.0
 42
0.0
  1

  3
Standard
100
AcDbAlignedDimension
 13
95.2000000000000028
 23
-14.9000000000000004
 33
0.0
 14
92.2999999999999972
 24
-14.8999999999999986
 34
0.0
 50
0.0
100
AcDbRotatedDimension
1001
ACAD
1000
DSTYLE
1002
{
1070
144
1040
1.0
1070
40
1040
1.0
1002
}
  0
DIMENSION
  5
22C
100
AcDbEntity
  8
Medidas Horizontal
 62
256
370
-1
 48
1.0
  6
BYLAYER
100
AcDbDimension
 10
114.4500000000000028
 20
-53.0
 30
0.0
 11
117.0194244905192278
 21
-51.125
 31
0.0
 70
0
 71
8
 72
2
 74
0
 75
0
 41
1.0
 42
0.0
  1

  3
Standard
100
AcDbAlignedDimension
 13
114.4500000000000028
 23
-29.1000000000000014
 33
0.0
 14
113.6500000000000199
 24
-34.2000000000000028
 34
0.0
 50
0.0
100
AcDbRotatedDimension
1001
ACAD
1000
DSTYLE
1002
{
1070
144
1040
1.0
1070
40
1040
1.0
1002
}
  0
DIMENSION
  5
22D
100
AcDbEntity
  8
Medidas Horizontal
 62
256
370
-1
 48
1.0
  6
BYLAYER
100
AcDbDimension
 10
150.0
 20
-33.0
 30
0.0
 11
154.5138888888888857
 21
-31.1250000000000036
 31
0.0
 70
0
 71
8
 72
2
 74
0
 75
0
 41
1.0
 42
0.0
  1

  3
Standard
100
AcDbAlignedDimension
 13
150.0
 23
-20.6000000000000014
 33
0.0
 14
143.0250000000000057
 24
-38.7100000000000009
 34
0.0
 50
0.0
100
AcDbRotatedDimension
1001
ACAD
1000
DSTYLE
1002
{
1070
144
1040
1.0
1070
40
1040
1.0
1002
}
  0
DIMENSION
  5
22E
100
AcDbEntity
  8
Medidas Horizontal
 62
256
370
-1
 48
1.0
  6
BYLAYER
100
AcDbDimension
 10
113.6500000000000199
 20
-8.0
 30
0.0
 11
117.88611111111112
 21
-6.1250000000000009
 31
0.0
 70
0
 71
8
 72
2
 74
0
 75
0
 41
1.0
 42
0.0
  1

  3
Standard
100
AcDbAlignedDimension
 13
113.6500000000000199
 23
-10.2000000000000046
 33
0.0
 14
111.7249999999999943
 24
-10.2000000000000028
 34
0.0
 50
0.0
100
AcDbRotatedDimension
1001
ACAD
1000
DSTYLE
1002
{
1070
144
1040
1.0
1070
40
1040
1.0
1002
}
  0
DIMENSION
  5
22F
100
AcDbEntity
  8
Medidas Horizontal
 62
256
370
-1
 48
1.0
  6
BYLAYER
100
AcDbDimension
 10
112.2249999999999943
 20
49.0
 30
0.0
 11
122.4749999999999943
 21
50.875
 31
0.0
 70
0
 71
8
 72
2
 74
0
 75
0
 41
1.0
 42
0.0
  1

  3
Standard
100
AcDbAlignedDimension
 13
112.2249999999999943
 23
29.0500000000000043
 33
0.0
 14
132.7249999999999943
 24
29.0500000000000007
 34
0.0
 50
0.0
100
AcDbRotatedDimension
1001
ACAD
1000
DSTYLE
1002
{
1070
144
1040
1.0
1070
40
1040
1.0
1002
}
  0
DIMENSION
  5
230
100
AcDbEntity
  8
Medidas Horizontal
 62
256
370
-1
 48
1.0
  6
BYLAYER
100
AcDbDimension
 10
111.7249999999999943
 20
52.0
 30
0.0
 11
114.7944244905192193
 21
53.875
 31
0.0
 70
0
 71
8
 72
2
 74
0
 75
0
 41
1.0
 42
0.0
  1

  3
Standard
100
AcDbAlignedDimension
 13
111.7249999999999943
 23
23.0500000000000007
 33
0.0
 14
112.2249999999999943
 24
23.0500000000000007
 34
0.0
 50
0.0
100
AcDbRotatedDimension
1001
ACAD
1000
DSTYLE
1002
{
1070
144
1040
1.0
1070
40
1040
1.0
1002
}
  0
DIMENSION
  5
231
100
AcDbEntity
  8
Medidas Vertical
 62
256
370
-1
 48
1.0
  6
BYLAYER
100
AcDbDimension
 10
291.0
 20
119.3171978098202288
 30
0.0
 11
289.125
 21
123.1088445225616681
 31
0.0
 70
0
 71
8
 72
2
 74
0
 75
0
 41
1.0
 42
0.0
  1

  3
Standard
100
AcDbAlignedDimension
 13
336.1797629472746394
 23
119.3171978098202288
 33
0.0
 14
309.6297629472746848
 24
119.5671978098202288
 34
0.0
 50
90.0
100
AcDbRotatedDimension
1001
ACAD
1000
DSTYLE
1002
{
1070
144
1040
1.0
1070
40
1040
1.0
1002
}
  0
DIMENSION
  5
232
100
AcDbEntity
  8
Medidas Vertical
 62
256
370
-1
 48
1.0
  6
BYLAYER
100
AcDbDimension
 10
286.0
 20
119.3171978098202288
 30
0.0
 11
284.125
 21
117.3171978098202288
 31
0.0
 70
0
 71
8
 72
2
 74
0
 75
0
 41
1.0
 42
0.0
  1

  3
Standard
100
AcDbAlignedDimension
 13
336.1797629472746394
 23
119.3171978098202288
 33
0.0
 14
319.6297629472746848
 24
115.3171978098202288
 34
0.0
 50
90.0
100
AcDbRotatedDimension
1001
ACAD
1000
DSTYLE
1002
{
1070
144
1040
1.0
1070
40
1040
1.0
1002
}
  0
DIMENSION
  5
233
100
AcDbEntity
  8
Medidas Vertical
 62
256
370
-1
 48
1.0
  6
BYLAYER
100
AcDbDimension
 10
381.0
 20
110.2771978098202226
 30
0.0
 11
379.125
 21
113.7271978098202254
 31
0.0
 70
0
 71
8
 72
2
 74
0
 75
0
 41
1.0
 42
0.0
  1

  3
Standard
100
AcDbAlignedDimension
 13
356.7797629472746621
 23
110.2771978098202226
 33
0.0
 14
363.5297629472746621
 24
117.1771978098202283
 34
0.0
 50
90.0
100
AcDbRotatedDimension
1001
ACAD
1000
DSTYLE
1002
{
1070
144
1040
1.0
1070
40
1040
1.0
1002
}
  0
DIMENSION
  5
234
100
AcDbEntity
  8
Medidas Vertical
 62
256
370
-1
 48
1.0
  6
BYLAYER
100
AcDbDimension
 10
397.9903233793273216
 20
119.3171978098202288
 30
0.0
 11
396.1153233793273216
 21
114.3421978098202203
 31
0.0
 70
0
 71
8
 72
2
 74
0
 75
0
 41
1.0
 42
0.0
  1

  3
Standard
100
AcDbAlignedDimension
 13
336.1797629472746394
 23
119.3171978098202288
 33
0.0
 14
337.6797629472746394
 24
109.367197809820226
 34
0.0
 50
90.0
100
AcDbRotatedDimension
1001
ACAD
1000
DSTYLE
1002
{
1070
144
1040
1.0
1070
40
1040
1.0
1002
}
  0
DIMENSION
  5
235
100
AcDbEntity
  8
Medidas Vertical
 62
256
370
-1
 48
1.0
  6
BYLAYER
100
AcDbDimension
 10
329.4507486193821251
 20
110.617197809820226
 30
0.0
 11
327.5757486193821251
 21
113.1866422542646688
 31
0.0
 70
0
 71
8
 72
2
 74
0
 75
0
 41
1.0
 42
0.0
  1

  3
Standard
100
AcDbAlignedDimension
 13
334.6797629472746394
 23
110.617197809820226
 33
0.0
 14
334.6797629472746394
 24
108.117197809820226
 34
0.0
 50
90.0
100
AcDbRotatedDimension
1001
ACAD
1000
DSTYLE
1002
{
1070
144
1040
1.0
1070
40
1040
1.0
1002
}
  0
DIMENSION
  5
236
100
AcDbEntity
  8
Medidas Vertical
 62
256
370
-1
 48
1.0
  6
BYLAYER
100
AcDbDimension
 10
404.0
 20
119.3171978098202288
 30
0.0
 11
402.125
 21
109.0671978098202288
 31
0.0
 70
0
 71
8
 72
2
 74
0
 75
0
 41
1.0
 42
0.0
  1

  3
Standard
100
AcDbAlignedDimension
 13
336.1797629472746394
 23
119.3171978098202288
 33
0.0
 14
336.1797629472746394
 24
98.8171978098202288
 34
0.0
 50
90.0
100
AcDbRotatedDimension
1001
ACAD
1000
DSTYLE
1002
{
1070
144
1040
1.0
1070
40
1040
1.0
1002
}
  0
DIMENSION
  5
237
100
AcDbEntity
  8
Medidas Vertical
 62
256
370
-1
 48
1.0
  6
BYLAYER
100
AcDbDimension
 10
410.0
 20
119.3171978098202288
 30
0.0
 11
408.125
 21
104.5171978098202317
 31
0.0
 70
0
 71
8
 72
2
 74
0
 75
0
 41
1.0
 42
0.0
  1

  3
Standard
100
AcDbAlignedDimension
 13
336.1797629472746394
 23
119.3171978098202288
 33
0.0
 14
353.1047629472747076
 24
89.7171978098202203
 34
0.0
 50
90.0
100
AcDbRotatedDimension
1001
ACAD
1000
DSTYLE
1002
{
1070
144
1040
1.0
1070
40
1040
1.0
1002
}
  0
DIMENSION
  5
238
100
AcDbEntity
  8
Medidas Vertical
 62
256
370
-1
 48
1.0
  6
BYLAYER
100
AcDbDimension
 10
415.2909162330907975
 20
119.3171978098202288
 30
0.0
 11
413.4159162330907975
 21
100.0121978098202362
 31
0.0
 70
0
 71
8
 72
2
 74
0
 75
0
 41
1.0
 42
0.0
  1

  3
Standard
100
AcDbAlignedDimension
 13
336.1797629472746394
 23
119.3171978098202288
 33
0.0
 14
343.1547629472746621
 24
80.7071978098202294
 34
0.0
 50
90.0
100
AcDbRotatedDimension
1001
ACAD
1000
DSTYLE
1002
{
1070
144
1040
1.0
1070
40
1040
1.0
1002
}
  0
DIMENSION
  5
239
100
AcDbEntity
  8
Medidas Vertical
 62
256
370
-1
 48
1.0
  6
BYLAYER
100
AcDbDimension
 10
421.0
 20
119.3171978098202288
 30
0.0
 11
419.125
 21
99.7671978098202317
 31
0.0
 70
0
 71
8
 72
2
 74
0
 75
0
 41
1.0
 42
0.0
  1

  3
Standard
100
AcDbAlignedDimension
 13
336.1797629472746394
 23
119.3171978098202288
 33
0.0
 14
370.4297629472746394
 24
80.2171978098202203
 34
0.0
 50
90.0
100
AcDbRotatedDimension
1001
ACAD
1000
DSTYLE
1002
{
1070
144
1040
1.0
1070
40
1040
1.0
1002
}
  0
DIMENSION
  5
23A
100
AcDbEntity
  8
Medidas Vertical
 62
256
370
-1
 48
1.0
  6
BYLAYER
100
AcDbDimension
 10
426.4168179369902987
 20
119.3171978098202288
 30
0.0
 11
424.5418179369902987
 21
97.117197809820226
 31
0.0
 70
0
 71
8
 72
2
 74
0
 75
0
 41
1.0
 42
0.0
  1

  3
Standard
100
AcDbAlignedDimension
 13
336.1797629472746394
 23
119.3171978098202288
 33
0.0
 14
370.4297629472745825
 24
74.9171978098202089
 34
0.0
 50
90.0
100
AcDbRotatedDimension
1001
ACAD
1000
DSTYLE
1002
{
1070
144
1040
1.0
1070
40
1040
1.0
1002
}
  0
DIMENSION
  5
23B
100
AcDbEntity
  8
Medidas Vertical
 62
256
370
-1
 48
1.0
  6
BYLAYER
100
AcDbDimension
 10
280.0
 20
119.3171978098202288
 30
0.0
 11
278.125
 21
114.2671978098202317
 31
0.0
 70
0
 71
8
 72
2
 74
0
 75
0
 41
1.0
 42
0.0
  1

  3
Standard
100
AcDbAlignedDimension
 13
336.1797629472746394
 23
119.3171978098202288
 33
0.0
 14
297.9047629472746621
 24
109.2171978098202203
 34
0.0
 50
90.0
100
AcDbRotatedDimension
1001
ACAD
1000
DSTYLE
1002
{
1070
144
1040
1.0
1070
40
1040
1.0
1002
}
  0
DIMENSION
  5
23C
100
AcDbEntity
  8
Medidas Vertical
 62
256
370
-1
 48
1.0
  6
BYLAYER
100
AcDbDimension
 10
275.0
 20
119.3171978098202288
 30
0.0
 11
273.125
 21
102.2671978098202317
 31
0.0
 70
0
 71
8
 72
2
 74
0
 75
0
 41
1.0
 42
0.0
  1

  3
Standard
100
AcDbAlignedDimension
 13
336.1797629472746394
 23
119.3171978098202288
 33
0.0
 14
298.3297629472746735
 24
85.2171978098202203
 34
0.0
 50
90.0
100
AcDbRotatedDimension
1001
ACAD
1000
DSTYLE
1002
{
1070
144
1040
1.0
1070
40
1040
1.0
1002
}
  0
DIMENSION
  5
23D
100
AcDbEntity
  8
Medidas Vertical
 62
256
370
-1
 48
1.0
  6
BYLAYER
100
AcDbDimension
 10
270.6114748242787869
 20
119.3171978098202288
 30
0.0
 11
268.7364748242787869
 21
98.617197809820226
 31
0.0
 70
0
 71
8
 72
2
 74
0
 75
0
 41
1.0
 42
0.0
  1

  3
Standard
100
AcDbAlignedDimension
 13
336.1797629472746394
 23
119.3171978098202288
 33
0.0
 14
332.9297629472746394
 24
77.9171978098202231
 34
0.0
 50
90.0
100
AcDbRotatedDimension
1001
ACAD
1000
DSTYLE
1002
{
1070
144
1040
1.0
1070
40
1040
1.0
1002
}
  0
DIMENSION
  5
23E
100
AcDbEntity
  8
Medidas Vertical
 62
256
370
-1
 48
1.0
  6
BYLAYER
100
AcDbDimension
 10
324.951197279411474
 20
122.2171978098202203
 30
0.0
 11
323.076197279411474
 21
124.5088644764868917
 31
0.0
 70
0
 71
8
 72
2
 74
0
 75
0
 41
1.0
 42
0.0
  1

  3
Standard
100
AcDbAlignedDimension
 13
318.0297629472746621
 23
122.2171978098202203
 33
0.0
 14
318.0297629472746621
 24
119.117197809820226
 34
0.0
 50
90.0
100
AcDbRotatedDimension
1001
ACAD
1000
DSTYLE
1002
{
1070
144
1040
1.0
1070
40
1040
1.0
1002
}
  0
DIMENSION
  5
23F
100
AcDbEntity
  8
Medidas Vertical
 62
256
370
-1
 48
1.0
  6
BYLAYER
100
AcDbDimension
 10
393.0
 20
117.1771978098202283
 30
0.0
 11
391.125
 21
122.7199755875980003
 31
0.0
 70
0
 71
8
 72
2
 74
0
 75
0
 41
1.0
 42
0.0
  1

  3
Standard
100
AcDbAlignedDimension
 13
363.5297629472746621
 23
117.1771978098202283
 33
0.0
 14
336.1797629472746394
 24
119.3171978098202288
 34
0.0
 50
90.0
100
AcDbRotatedDimension
1001
ACAD
1000
DSTYLE
1002
{
1070
144
1040
1.0
1070
40
1040
1.0
1002
}
  0
DIMENSION
  5
240
100
AcDbEntity
  8
Medidas Vertical
 62
256
370
-1
 48
1.0
  6
BYLAYER
100
AcDbDimension
 10
400.0
 20
119.3171978098202288
 30
0.0
 11
398.125
 21
127.5477533653757547
 31
0.0
 70
0
 71
8
 72
2
 74
0
 75
0
 41
1.0
 42
0.0
  1

  3
Standard
100
AcDbAlignedDimension
 13
336.1797629472746394
 23
119.3171978098202288
 33
0.0
 14
368.4547629472746735
 24
123.8671978098201834
 34
0.0
 50
90.0
100
AcDbRotatedDimension
1001
ACAD
1000
DSTYLE
1002
{
1070
144
1040
1.0
1070
40
1040
1.0
1002
}
  0
DIMENSION
  5
241
100
AcDbEntity
  8
Medidas Vertical
 62
256
370
-1
 48
1.0
  6
BYLAYER
100
AcDbDimension
 10
344.8168856272241101
 20
119.3171978098202288
 30
0.0
 11
342.9418856272241101
 21
127.7577533653757911
 31
0.0
 70
0
 71
8
 72
2
 74
0
 75
0
 41
1.0
 42
0.0
  1

  3
Standard
100
AcDbAlignedDimension
 13
336.1797629472746394
 23
119.3171978098202288
 33
0.0
 14
356.7797629472746621
 24
124.0771978098202339
 34
0.0
 50
90.0
100
AcDbRotatedDimension
1001
ACAD
1000
DSTYLE
1002
{
1070
144
1040
1.0
1070
40
1040
1.0
1002
}
  0
DIMENSION
  5
242
100
AcDbEntity
  8
Medidas Vertical
 62
256
370
-1
 48
1.0
  6
BYLAYER
100
AcDbDimension
 10
332.0
 20
119.3171978098202288
 30
0.0
 11
330.125
 21
127.117197809820226
 31
0.0
 70
0
 71
8
 72
2
 74
0
 75
0
 41
1.0
 42
0.0
  1

  3
Standard
100
AcDbAlignedDimension
 13
336.1797629472746394
 23
119.3171978098202288
 33
0.0
 14
336.1797629472746394
 24
134.9171978098202374
 34
0.0
 50
90.0
100
AcDbRotatedDimension
1001
ACAD
1000
DSTYLE
1002
{
1070
144
1040
1.0
1070
40
1040
1.0
1002
}
  0
DIMENSION
  5
243
100
AcDbEntity
  8
Medidas Vertical
 62
256
370
-1
 48
1.0
  6
BYLAYER
100
AcDbDimension
 10
435.0
 20
129.75
 30
0.0
 11
433.125
 21
133.0138888888888857
 31
0.0
 70
0
 71
8
 72
2
 74
0
 75
0
 41
1.0
 42
0.0
  1

  3
Standard
100
AcDbAlignedDimension
 13
418.5
 23
129.75
 33
0.0
 14
417.0000000000000568
 24
127.9999999999999858
 34
0.0
 50
90.0
100
AcDbRotatedDimension
1001
ACAD
1000
DSTYLE
1002
{
1070
144
1040
1.0
1070
40
1040
1.0
1002
}
  0
DIMENSION
  5
244
100
AcDbEntity
  8
Medidas Vertical
 62
256
370
-1
 48
1.0
  6
BYLAYER
100
AcDbDimension
 10
429.0
 20
129.75
 30
0.0
 11
427.125
 21
134.6194444444444116
 31
0.0
 70
0
 71
8
 72
2
 74
0
 75
0
 41
1.0
 42
0.0
  1

  3
Standard
100
AcDbAlignedDimension
 13
418.5
 23
129.75
 33
0.0
 14
418.5
 24
132.0499999999999829
 34
0.0
 50
90.0
100
AcDbRotatedDimension
1001
ACAD
1000
DSTYLE
1002
{
1070
144
1040
1.0
1070
40
1040
1.0
1002
}
  0
DIMENSION
  5
245
100
AcDbEntity
  8
Medidas Vertical
 62
256
370
-1
 48
1.0
  6
BYLAYER
100
AcDbDimension
 10
440.0
 20
127.9999999999999574
 30
0.0
 11
438.125
 21
133.5
 31
0.0
 70
0
 71
8
 72
2
 74
0
 75
0
 41
1.0
 42
0.0
  1

  3
Standard
100
AcDbAlignedDimension
 13
417.0000000000000568
 23
127.9999999999999574
 33
0.0
 14
417.0000000000000568
 24
139.0000000000000568
 34
0.0
 50
90.0
100
AcDbRotatedDimension
1001
ACAD
1000
DSTYLE
1002
{
1070
144
1040
1.0
1070
40
1040
1.0
1002
}
  0
DIMENSION
  5
246
100
AcDbEntity
  8
Medidas Vertical
 62
256
370
-1
 48
1.0
  6
BYLAYER
100
AcDbDimension
 10
410.0
 20
119.3171978098202288
 30
0.0
 11
408.125
 21
133.3921978098202317
 31
0.0
 70
0
 71
8
 72
2
 74
0
 75
0
 41
1.0
 42
0.0
  1

  3
Standard
100
AcDbAlignedDimension
 13
336.1797629472746394
 23
119.3171978098202288
 33
0.0
 14
368.5047629472746848
 24
147.4671978098202203
 34
0.0
 50
90.0
100
AcDbRotatedDimension
1001
ACAD
1000
DSTYLE
1002
{
1070
144
1040
1.0
1070
40
1040
1.0
1002
}
  0
DIMENSION
  5
247
100
AcDbEntity
  8
Medidas Vertical
 62
256
370
-1
 48
1.0
  6
BYLAYER
100
AcDbDimension
 10
406.0
 20
119.3171978098202288
 30
0.0
 11
404.125
 21
132.3921978098202317
 31
0.0
 70
0
 71
8
 72
2
 74
0
 75
0
 41
1.0
 42
0.0
  1

  3
Standard
100
AcDbAlignedDimension
 13
336.1797629472746394
 23
119.3171978098202288
 33
0.0
 14
368.5047629472746848
 24
145.4671978098202203
 34
0.0
 50
90.0
100
AcDbRotatedDimension
1001
ACAD
1000
DSTYLE
1002
{
1070
144
1040
1.0
1070
40
1040
1.0
1002
}
  0
DIMENSION
  5
248
100
AcDbEntity
  8
Medidas Vertical
 62
256
370
-1
 48
1.0
  6
BYLAYER
100
AcDbDimension
 10
362.0
 20
119.3171978098202288
 30
0.0
 11
360.125
 21
132.317197809820243
 31
0.0
 70
0
 71
8
 72
2
 74
0
 75
0
 41
1.0
 42
0.0
  1

  3
Standard
100
AcDbAlignedDimension
 13
336.1797629472746394
 23
119.3171978098202288
 33
0.0
 14
349.5297629472746053
 24
145.317197809820243
 34
0.0
 50
90.0
100
AcDbRotatedDimension
1001
ACAD
1000
DSTYLE
1002
{
1070
144
1040
1.0
1070
40
1040
1.0
1002
}
  0
DIMENSION
  5
249
100
AcDbEntity
  8
Medidas Vertical
 62
256
370
-1
 48
1.0
  6
BYLAYER
100
AcDbDimension
 10
362.0
 20
152.5171978098202317
 30
0.0
 11
360.125
 21
148.9171978098202374
 31
0.0
 70
0
 71
8
 72
2
 74
0
 75
0
 41
1.0
 42
0.0
  1

  3
Standard
100
AcDbAlignedDimension
 13
349.5297629472746053
 23
152.5171978098202317
 33
0.0
 14
349.5297629472746053
 24
145.317197809820243
 34
0.0
 50
90.0
100
AcDbRotatedDimension
1001
ACAD
1000
DSTYLE
1002
{
1070
144
1040
1.0
1070
40
1040
1.0
1002
}
  0
DIMENSION
  5
24A
100
AcDbEntity
  8
Medidas Vertical
 62
256
370
-1
 48
1.0
  6
BYLAYER
100
AcDbDimension
 10
289.0
 20
142.4671978098202203
 30
0.0
 11
287.125
 21
145.4671978098202203
 31
0.0
 70
0
 71
8
 72
2
 74
0
 75
0
 41
1.0
 42
0.0
  1

  3
Standard
100
AcDbAlignedDimension
 13
298.4047629472746621
 23
142.4671978098202203
 33
0.0
 14
298.4047629472746621
 24
148.4671978098202203
 34
0.0
 50
90.0
100
AcDbRotatedDimension
1001
ACAD
1000
DSTYLE
1002
{
1070
144
1040
1.0
1070
40
1040
1.0
1002
}
  0
DIMENSION
  5
24B
100
AcDbEntity
  8
Medidas Vertical
 62
256
370
-1
 48
1.0
  6
BYLAYER
100
AcDbDimension
 10
294.0
 20
151.5171978098202317
 30
0.0
 11
292.125
 21
155.0588445225616852
 31
0.0
 70
0
 71
8
 72
2
 74
0
 75
0
 41
1.0
 42
0.0
  1

  3
Standard
100
AcDbAlignedDimension
 13
318.904762947274719
 23
151.5171978098202317
 33
0.0
 14
318.9047629472746621
 24
148.4671978098202203
 34
0.0
 50
90.0
100
AcDbRotatedDimension
1001
ACAD
1000
DSTYLE
1002
{
1070
144
1040
1.0
1070
40
1040
1.0
1002
}
  0
DIMENSION
  5
24C
100
AcDbEntity
  8
Medidas Vertical
 62
256
370
-1
 48
1.0
  6
BYLAYER
100
AcDbDimension
 10
447.6479901625466482
 20
151.5171978098202317
 30
0.0
 11
445.7729901625466482
 21
113.2171978098202203
 31
0.0
 70
0
 71
8
 72
2
 74
0
 75
0
 41
1.0
 42
0.0
  1

  3
Standard
100
AcDbAlignedDimension
 13
352.9547629472747303
 23
151.5171978098202317
 33
0.0
 14
370.4297629472746394
 24
74.9171978098202089
 34
0.0
 50
90.0
100
AcDbRotatedDimension
1001
ACAD
1000
DSTYLE
1002
{
1070
144
1040
1.0
1070
40
1040
1.0
1002
}
  0
DIMENSION
  5
24D
100
AcDbEntity
  8
Medidas Vertical
 62
256
370
-1
 48
1.0
  6
BYLAYER
100
AcDbDimension
 10
253.6450149053450787
 20
91.7999999999999972
 30
0.0
 11
251.7700149053450787
 21
94.0999999999999943
 31
0.0
 70
0
 71
8
 72
2
 74
0
 75
0
 41
1.0
 42
0.0
  1

  3
Standard
100
AcDbAlignedDimension
 13
262.0999999999999659
 23
91.7999999999999972
 33
0.0
 14
260.5999999999999659
 24
96.3999999999999915
 34
0.0
 50
90.0
100
AcDbRotatedDimension
1001
ACAD
1000
DSTYLE
1002
{
1070
144
1040
1.0
1070
40
1040
1.0
1002
}
  0
DIMENSION
  5
24E
100
AcDbEntity
  8
Medidas Vertical
 62
256
370
-1
 48
1.0
  6
BYLAYER
100
AcDbDimension
 10
258.400566174206574
 20
96.3999999999999915
 30
0.0
 11
256.525566174206574
 21
97.3999999999999915
 31
0.0
 70
0
 71
8
 72
2
 74
0
 75
0
 41
1.0
 42
0.0
  1

  3
Standard
100
AcDbAlignedDimension
 13
260.5999999999999659
 23
96.3999999999999915
 33
0.0
 14
260.5999999999999659
 24
98.3999999999999915
 34
0.0
 50
90.0
100
AcDbRotatedDimension
1001
ACAD
1000
DSTYLE
1002
{
1070
144
1040
1.0
1070
40
1040
1.0
1002
}
  0
DIMENSION
  5
24F
100
AcDbEntity
  8
Medidas Vertical
 62
256
370
-1
 48
1.0
  6
BYLAYER
100
AcDbDimension
 10
246.0
 20
91.7999999999999972
 30
0.0
 11
244.125
 21
98.9000000000000057
 31
0.0
 70
0
 71
8
 72
2
 74
0
 75
0
 41
1.0
 42
0.0
  1

  3
Standard
100
AcDbAlignedDimension
 13
262.0999999999999659
 23
91.7999999999999972
 33
0.0
 14
262.0999999999999659
 24
106.0
 34
0.0
 50
90.0
100
AcDbRotatedDimension
1001
ACAD
1000
DSTYLE
1002
{
1070
144
1040
1.0
1070
40
1040
1.0
1002
}
  0
DIMENSION
  5
250
100
AcDbEntity
  8
Raios
 62
256
370
-1
 48
1.0
  6
BYLAYER
100
AcDbDimension
 10
150.0
 20
-20.6000000000000014
 30
0.0
 11
163.3029219780909784
 21
-22.8837840577869684
 31
0.0
 70
4
 71
8
 72
2
 74
0
 41
1.0
 42
0.0
  1

  3
Standard
100
AcDbRadialDimension
 15
157.5725468229026376
 25
-23.020544280724355
 35
0.0
 40
0.0
1001
ACAD
1000
DSTYLE
1002
{
1070
144
1040
1.0
1070
40
1040
1.0
1002
}
  0
LINE
  5
251
100
AcDbEntity
  8
Raios
 62
256
370
-1
 48
1.0
  6
ACAD_ISO10W100
100
AcDbLine
 10
0.0
 20
-81.0
 30
0.0
 11
0.0
 21
105.5449465048655782
 31
0.0
  0
MTEXT
  5
252
100
AcDbEntity
  8
Back
 62
256
370
-1
 48
1.0
  6
BYLAYER
100
AcDbMText
 10
-17.213398212409075
 20
68.8473465048655839
 30
0.0
 40
3.0
 41
0.0
 71
1
 72
1
  1
GBA Rear view
  7
textstyle9
 50
0.0
 73
2
 44
1.0
  0
ENDSEC
  0
SECTION
  2
OBJECTS
  0
DICTIONARY
  5
C
100
AcDbDictionary
280
0
281
1
  3
ACAD_GROUP
350
D
  3
ACAD_LAYOUT
350
1A
  3
ACAD_MLINESTYLE
350
17
  3
ACAD_PLOTSETTINGS
350
19
  3
ACAD_PLOTSTYLENAME
350
E
  3
AcDbVariableDictionary
350
253
  3
QCAD_OBJECTS
350
254
  0
DICTIONARY
  5
D
100
AcDbDictionary
280
0
281
1
  0
ACDBDICTIONARYWDFLT
  5
E
100
AcDbDictionary
281
1
  3
Normal
350
F
100
AcDbDictionaryWithDefault
340
F
  0
ACDBPLACEHOLDER
  5
F
  0
DICTIONARY
  5
17
100
AcDbDictionary
280
0
281
1
  3
Standard
350
18
  0
MLINESTYLE
  5
18
100
AcDbMlineStyle
  2
STANDARD
 70
0
  3

 62
256
 51
90.0
 52
90.0
 71
2
 49
0.5
 62
256
  6
BYLAYER
 49
-0.5
 62
256
  6
BYLAYER
  0
DICTIONARY
  5
19
100
AcDbDictionary
280
0
281
1
  0
DICTIONARY
  5
1A
100
AcDbDictionary
281
1
  3
Layout1
350
1E
  3
Layout2
350
26
  3
Model
350
22
  0
LAYOUT
  5
1E
100
AcDbPlotSettings
  1

  2
none_device
  4

  6

 40
0.0
 41
0.0
 42
0.0
 43
0.0
 44
0.0
 45
0.0
 46
0.0
 47
0.0
 48
0.0
 49
0.0
140
0.0
141
0.0
142
1.0
143
1.0
 70
688
 72
0
 73
0
 74
5
  7

 75
16
147
1.0
148
0.0
149
0.0
100
AcDbLayout
  1
Layout1
 70
1
 71
1
 10
0.0
 20
0.0
 11
420.0
 21
297.0
 12
0.0
 22
0.0
 32
0.0
 14
100000000000000000000.0
 24
100000000000000000000.0
 34
100000000000000000000.0
 15
-100000000000000000000.0
 25
-100000000000000000000.0
 35
-100000000000000000000.0
146
0.0
 13
0.0
 23
0.0
 33
0.0
 16
1.0
 26
0.0
 36
0.0
 17
0.0
 27
1.0
 37
0.0
 76
0
330
1B
  0
LAYOUT
  5
22
100
AcDbPlotSettings
  1

  2
none_device
  4

  6

 40
0.0
 41
0.0
 42
0.0
 43
0.0
 44
0.0
 45
0.0
 46
0.0
 47
0.0
 48
0.0
 49
0.0
140
0.0
141
0.0
142
1.0
143
1.0
 70
1712
 72
0
 73
0
 74
0
  7

 75
0
147
1.0
148
0.0
149
0.0
100
AcDbLayout
  1
Model
 70
1
 71
0
 10
0.0
 20
0.0
 11
12.0
 21
9.0
 12
0.0
 22
0.0
 32
0.0
 14
0.0
 24
0.0
 34
0.0
 15
0.0
 25
0.0
 35
0.0
146
0.0
 13
0.0
 23
0.0
 33
0.0
 16
1.0
 26
0.0
 36
0.0
 17
0.0
 27
1.0
 37
0.0
 76
0
330
1F
  0
LAYOUT
  5
26
100
AcDbPlotSettings
  1

  2
none_device
  4

  6

 40
0.0
 41
0.0
 42
0.0
 43
0.0
 44
0.0
 45
0.0
 46
0.0
 47
0.0
 48
0.0
 49
0.0
140
0.0
141
0.0
142
1.0
143
1.0
 70
688
 72
0
 73
0
 74
5
  7

 75
16
147
1.0
148
0.0
149
0.0
100
AcDbLayout
  1
Layout2
 70
1
 71
2
 10
0.0
 20
0.0
 11
12.0
 21
9.0
 12
0.0
 22
0.0
 32
0.0
 14
0.0
 24
0.0
 34
0.0
 15
0.0
 25
0.0
 35
0.0
146
0.0
 13
0.0
 23
0.0
 33
0.0
 16
1.0
 26
0.0
 36
0.0
 17
0.0
 27
1.0
 37
0.0
 76
0
330
23
  0
DICTIONARY
  5
253
100
AcDbDictionary
281
1
  3
DIMASSOC
350
256
  3
HIDETEXT
350
255
  0
DICTIONARYVAR
  5
255
100
DictionaryVariables
280
0
  1
2
  0
DICTIONARYVAR
  5
256
100
DictionaryVariables
280
0
  1
1
  0
DICTIONARY
  5
254
100
AcDbDictionary
281
1
  3
ColorSettings/BackgroundColor
350
257
  3
ColorSettings/ColorMode
350
258
  3
Grid/DisplayGrid00
350
259
  3
Grid/DisplayGrid01
350
25A
  3
Grid/DisplayGrid02
350
25B
  3
Grid/DisplayGrid03
350
25C
  3
Grid/GridSpacingX00
350
25D
  3
Grid/GridSpacingX01
350
25E
  3
Grid/GridSpacingX02
350
25F
  3
Grid/GridSpacingX03
350
260
  3
Grid/GridSpacingY00
350
261
  3
Grid/GridSpacingY01
350
262
  3
Grid/GridSpacingY02
350
263
  3
Grid/GridSpacingY03
350
264
  3
Grid/IsometricGrid00
350
265
  3
Grid/IsometricGrid01
350
266
  3
Grid/IsometricGrid02
350
267
  3
Grid/IsometricGrid03
350
268
  3
Grid/IsometricProjection00
350
269
  3
Grid/IsometricProjection01
350
26A
  3
Grid/IsometricProjection02
350
26B
  3
Grid/IsometricProjection03
350
26C
  3
Grid/MetaGridSpacingX00
350
26D
  3
Grid/MetaGridSpacingX01
350
26E
  3
Grid/MetaGridSpacingX02
350
26F
  3
Grid/MetaGridSpacingX03
350
270
  3
Grid/MetaGridSpacingY00
350
271
  3
Grid/MetaGridSpacingY01
350
272
  3
Grid/MetaGridSpacingY02
350
273
  3
Grid/MetaGridSpacingY03
350
274
  3
MultiPageSettings/Columns
350
275
  3
MultiPageSettings/GlueMarginsBottom
350
276
  3
MultiPageSettings/GlueMarginsLeft
350
277
  3
MultiPageSettings/GlueMarginsRight
350
278
  3
MultiPageSettings/GlueMarginsTop
350
279
  3
MultiPageSettings/PrintCropMarks
350
27A
  3
MultiPageSettings/Rows
350
27B
  3
PageSettings/OffsetX
350
27C
  3
PageSettings/OffsetY
350
27D
  3
PageSettings/PageOrientation
350
27E
  3
PageSettings/PaperHeight
350
27F
  3
PageSettings/PaperWidth
350
280
  3
PageSettings/Scale
350
281
  3
PageSettings/ShowPaperBorders
350
282
  3
PageTagSettings/EnablePageTags
350
283
  3
PageTagSettings/TagAlignment
350
284
  3
PageTagSettings/TagFont
350
285
  3
PageTagSettings/TagPosition
350
286
  3
QCADVersion
350
287
  3
UnitSettings/PaperUnit
350
288
  3
ViewportCenter
350
289
  3
ViewportHeight
350
28A
  3
ViewportWidth
350
28B
  0
XRECORD
  5
257
330
254
100
AcDbXrecord
280
1
1000
Branco
  0
XRECORD
  5
258
330
254
100
AcDbXrecord
280
1
1000
FullColor
  0
XRECORD
  5
259
330
254
100
AcDbXrecord
280
1
290
1
  0
XRECORD
  5
25A
330
254
100
AcDbXrecord
280
1
290
1
  0
XRECORD
  5
25B
330
254
100
AcDbXrecord
280
1
290
1
  0
XRECORD
  5
25C
330
254
100
AcDbXrecord
280
1
290
1
  0
XRECORD
  5
25D
330
254
100
AcDbXrecord
280
1
1000
auto
  0
XRECORD
  5
25E
330
254
100
AcDbXrecord
280
1
1000
auto
  0
XRECORD
  5
25F
330
254
100
AcDbXrecord
280
1
1000
auto
  0
XRECORD
  5
260
330
254
100
AcDbXrecord
280
1
1000
auto
  0
XRECORD
  5
261
330
254
100
AcDbXrecord
280
1
1000
auto
  0
XRECORD
  5
262
330
254
100
AcDbXrecord
280
1
1000
auto
  0
XRECORD
  5
263
330
254
100
AcDbXrecord
280
1
1000
auto
  0
XRECORD
  5
264
330
254
100
AcDbXrecord
280
1
1000
auto
  0
XRECORD
  5
265
330
254
100
AcDbXrecord
280
1
290
0
  0
XRECORD
  5
266
330
254
100
AcDbXrecord
280
1
290
0
  0
XRECORD
  5
267
330
254
100
AcDbXrecord
280
1
290
0
  0
XRECORD
  5
268
330
254
100
AcDbXrecord
280
1
290
0
  0
XRECORD
  5
269
330
254
100
AcDbXrecord
280
1
 90
65537
  0
XRECORD
  5
26A
330
254
100
AcDbXrecord
280
1
 90
65537
  0
XRECORD
  5
26B
330
254
100
AcDbXrecord
280
1
 90
65537
  0
XRECORD
  5
26C
330
254
100
AcDbXrecord
280
1
 90
65537
  0
XRECORD
  5
26D
330
254
100
AcDbXrecord
280
1
1000
auto
  0
XRECORD
  5
26E
330
254
100
AcDbXrecord
280
1
1000
auto
  0
XRECORD
  5
26F
330
254
100
AcDbXrecord
280
1
1000
auto
  0
XRECORD
  5
270
330
254
100
AcDbXrecord
280
1
1000
auto
  0
XRECORD
  5
271
330
254
100
AcDbXrecord
280
1
1000
auto
  0
XRECORD
  5
272
330
254
100
AcDbXrecord
280
1
1000
auto
  0
XRECORD
  5
273
330
254
100
AcDbXrecord
280
1
1000
auto
  0
XRECORD
  5
274
330
254
100
AcDbXrecord
280
1
1000
auto
  0
XRECORD
  5
275
330
254
100
AcDbXrecord
280
1
 90
1
  0
XRECORD
  5
276
330
254
100
AcDbXrecord
280
1
 40
10.0
  0
XRECORD
  5
277
330
254
100
AcDbXrecord
280
1
 40
10.0
  0
XRECORD
  5
278
330
254
100
AcDbXrecord
280
1
 40
10.0
  0
XRECORD
  5
279
330
254
100
AcDbXrecord
280
1
 40
10.0
  0
XRECORD
  5
27A
330
254
100
AcDbXrecord
280
1
290
0
  0
XRECORD
  5
27B
330
254
100
AcDbXrecord
280
1
 90
1
  0
XRECORD
  5
27C
330
254
100
AcDbXrecord
280
1
 40
0.0
  0
XRECORD
  5
27D
330
254
100
AcDbXrecord
280
1
 40
0.0
  0
XRECORD
  5
27E
330
254
100
AcDbXrecord
280
1
1000
Portrait
  0
XRECORD
  5
27F
330
254
100
AcDbXrecord
280
1
 40
297.0
  0
XRECORD
  5
280
330
254
100
AcDbXrecord
280
1
 40
210.0
  0
XRECORD
  5
281
330
254
100
AcDbXrecord
280
1
1000
1:1
  0
XRECORD
  5
282
330
254
100
AcDbXrecord
280
1
290
1
  0
XRECORD
  5
283
330
254
100
AcDbXrecord
280
1
290
0
  0
XRECORD
  5
284
330
254
100
AcDbXrecord
280
1
1000
Inside
  0
XRECORD
  5
285
330
254
100
AcDbXrecord
280
1
1000
Arial,10,-1,5,50,0,0,0,0,0
  0
XRECORD
  5
286
330
254
100
AcDbXrecord
280
1
1000
TopLeft
  0
XRECORD
  5
287
330
254
100
AcDbXrecord
280
1
1000
3.25.2
  0
XRECORD
  5
288
330
254
100
AcDbXrecord
280
1
 90
4
  0
XRECORD
  5
28A
330
254
100
AcDbXrecord
280
1
 40
389.047438540799817
  0
XRECORD
  5
28B
330
254
100
AcDbXrecord
280
1
 40
776.0309649407996631
  0
ENDSEC
  0
EOF
